<mxfile host="65bd71144e">
    <diagram id="QqrwmqPTfOMW0EA0M14h" name="Page-1">
        <mxGraphModel dx="388" dy="311" grid="1" gridSize="10" guides="1" tooltips="1" connect="1" arrows="1" fold="1" page="1" pageScale="1" pageWidth="827" pageHeight="1169" math="0" shadow="0">
            <root>
                <mxCell id="0"/>
                <mxCell id="1" parent="0"/>
                <mxCell id="2" value="" style="shape=image;verticalLabelPosition=bottom;labelBackgroundColor=#ffffff;verticalAlign=top;aspect=fixed;imageAspect=0;image=data:image/png,iVBORw0KGgoAAAANSUhEUgAAApEAAAC9CAIAAABkuLH4AAAgAElEQVR4Aey9B5hlV3EuKsC+7717QYTrZ9/vXcfrD18bE0QGE2zABBsbTDKWCRYSGQRICJBJkgGTBAgZjDR5RtKMJo+yNEFhNEFZkzp3z/TM9Ez3OZ37nLP32bneV1Wraq8dzumeUUszw1V/++tevUKtqlq11r/yOsvzI68Z1Gac2owTRwBx5kviJInoixMOSmIwPuxPvzWVBhV94jCuzdRsgrZb4+dywX8TwB9iLE2SzRdiiKPYaThxFNuk4iiOwjgMoiRmKkQqgSROwiCKwjiO4iRS0UTYnMgiaX2mjnSYpRw/oh/NnVnVf2d3JID8h8Q/sQkJxFEShSiCMsl0VA+GLJCWpOxypYBpkVTcqDWKbGjkRJNroYvgRuoY7NIvkqrXGqj/hCykQETjJyIUyhUjb/ixVhOIwzgmeTMiUxy34cZSWNDeDjX3FuWCUmsQWVcSJ2ifIjJzq3pOBadUSZSwaRkm1bjItDLEU62C7/lhECJlLS/WlSWUraUMHU2CpSCGKiKwGhv1RkZpbKJqzBaTmkvOweKnRSDMQwxhEHpNz2v6mESLjOpd4AdqPG3KJWVblJwWAQnlNJzAD9j2UxVZPBhurdxTZthTf1upsOzIzHzPb7rNUpFZcA3ifzPKtPVvVJppKiEGz/VQFVKaRpnUBBmCzBUXBJl6qgH2tKxamVGH67ie6+m/JfqkrPP+YiRYNHESU3sShdQkcr0jrpIYXMf1PSpf0R6yHdOnVsSRtQTFkXJV8NEgv+m7jjt7+UrumtBAgNRTY58il9bNKIxcx01VKnRShRSSFCPbBmwYYC0BVgGn7mASNgZFpaxyOJW2cnaTZYK4/goztpiNeiMVljUVA+OURjurHLOL1bvoIxpBWvqjnuojZpHECWKG/GtXe+VGHVoM6KNZK3F1aC6A5mgKLOOJ+IFAqEQ4lCuMNtziqQyU5mv4t+hnxLH9rRqeoamcFx0ArtM0BqGkpA4jEYumWqEhbgVlsmM6JHsSJ07DUcKpwy4RjZ9jT7VXjJwSgoxBS0yu9oYrpiNCYeumlIVOJr548t+mQw2ueuaYtE1Fci/Sb1lkCdTtPg3nonQ0r6wIplyUpScFs9MiVu2RA8tXfYR/QYusqnPiKP/knxaBRS0KY9/zAy/IZZEQnGc8lbg6mE4rZQqrruNin8b+seGZ3RqqxNVHHZqR5kuOwMduh8YyDqVjCZtqOB+b/uckdnzy9pvUJ1N/isZVNWP/TLMFZscRDiTydkVJmm7Tb/qcGn+rmDkRcv7KDyVhfrhvnZKioKbbzPSZGJNyRVCab3sIkGwCL8A+U+7H5tYuYqrO2B5mPbnbgd16xjyLnzhKmq6XMUXOS7NQVRR9bK5Un1rQJGAYhG7DbUlfiTMpaeWwKDU7m3IuPqUqaaKfwmxTNE9httqo2pPakPqohRWD1EfpwK8tZpvWQSsw9/epc51vW584zLabztJyAZynyTcoMo43bZ8WlhZxrhyJ8hOK2YgZRf6p5c1jNovcltW8/lnAXBJp9E8XzCZ+GHtS0+KCoHmL/1MwO1e+jG1FT7svLlMFpwCzEwj8wJkLZmv5YvcrMy+L5qpfruqR6T6F2WYu96lxNjaJUYITL8WfXANn9VtLzKsY2SL46zrOJgyTyiZtK49f85jxxGG2VnXbodWeHCeA2TKtl8d4Iv7EYrZObtltcSlml0qq9qah6qOOnJUyDACcLpgtSs7MeYpd/R80ztZi0qLMOngFCquY2vmpxWxvzphNg+y0fLlRzcmrQqndcrfb+hedcxpni4ljAslG+4M6a81tlukyZztHGtleG+D1bAMDzC4RN3RkFYT/5cVCXsdVasWYKajIenZauiRt+Xo2TqRDGERmgsjWnY5LrJZF8zXr2XZ8LYycovlfVcvcHLOuZ+uUuC6mqnJsVSDDbP1alGRDOPdb+qPRNDTHsPoX5bWKUtezsRToU9XpIh+bBC/Sn+R6NjPDxqMruzrq5QaR/E1tt8uLGSNtZEyFsLY2U1POVWJbBFIsdpzb7DPg9ULeJ2GnjaMkXc9WNuwJNOZcKkKODi9G2gSVGQ6CBHA9O7tvw+wtYGNWPUilRv3kflAPuKXAlJeGJtn1bPUH3CfRbj2bJzAlazVgI4i1pMdrNzg3a7OXbcTzRp4tdA1NcyH69np2ydy4mrQwicKJAVuCWk4OtTzY6Td9UgUREgppVdVaKQXNTZApRyZBphW3kMusZ9v5Si6GYQ2y/S1Pez0bk+gP6dz3fLOezUFCJKdPbdWNwjmakiqYtJZLcT07pVwQ2QCNbaLUOMcR7k9S1ZHxmy1WvJ6tjKDDaiWQDZGI/VMfTsOhwr/dZHHMwAsaup6t2ZgsaM+EZa7aROTWs1ORLeM3KqIqnCsXohPh/gNpGUrWs8nEzTaitOmRDPKYTYTSJljoGiYs+e09aNgBkX1GyortOFnMdgM/pN6N2VaWx2xpDmQPWhQGYRhgEv1SNlRkEUr3oOn+ggithyngjrbsp0E5//J/YQ570LS8VT8xbYbivrn+VhGYHzQa2oNWrzWyHCInVAGyIohQLBrqh/brUVojlO7gi3jTHBmrYjZ3ME2XS7Rnm4SygRgjVYUd6QYo2cvDFQYS4D1oaVqhrPKmWQiWq6I0lZo0B2n7yHvQUpGlNLnuaSruJGmFzFVsbRPT+MKkYjYbD0fgIrOJqCw5zFb/jENNlNTYqDeUMZaXZMQKn84lEiojn7RuKjuSUptEf6me9mafzB406iJrFu0wm8TXXETn2CfAT/jnbofZg8ZzFVKCGhON3/5EsVro6tBqwvRtzHYdVy2BHVridjugnhpZdx1SlcnWFzEV18H1YC5NIyntck0rgqC1aUCwWkVchcWuYqxrOJwwLZgKBbRHzHO9tPEJtTIiP/RRK5Svv+gpqsjsQVNSpNj8HjQprHZ70GJsQFgbxoTUPm3O2Z3HbBo0a/xyx4ljtpqlMqD2wBLZ6GPVl1SZygmLZupynPhNX7vFRp9kwya+GDNnx3bC5auLQcoJJpH4yid3uw1mM3RiPU3YJJSrEsw2bah0STgbpZvHbKpFVqgp4NRHqpaOsw2vRB+Jt/hMc2a16SamELRbusy+ceGcPUv2jdOGNeypkSkjP1YSVY3qVH0y42xOwmZnU1BS0vSoKmZxzAmzsTeHH0E1uWXO1urimThqE8RSHCU4zrbYYze3aHklZAsFOZeEKXH20aAY93CZqQv2tHpsdmFpS3GS42zJ13BSZg8YxNVJ1ZKmIh1iaCoUjkd537gIbuQlEcgUM1u1taobuUQ5vNVfK7nqih08zma7UrVrp4HNQ5MY+zdSFKoJSy1FzMVnGhRlhicSGYNpP79diCZfjZzqB5t1DM1adQazrXHYLONspiOqxkE89RVMnRL+yzFbykJ1knFIuRerFUaz9GNjNu6Byoks9dSWVzNKI1tDMQ5Ng4Sg15R947YyC/vGOTnhR7YJkqlBtB9LMyqgGWdLdmy0yio50KTVtCQotXPtU0ZhhGTtGYUYvKaXjrNleMNFY+sTfUS9koU0oRYMK9vqyGC2NQI21Iqmjj46nmXR+LyGjDtJSygv8WPG2WJsWEDcSSq2BtJu2/ORLAvXCyZI3SlT9SDGcx+K2Slbtv1Ia8N94lxfOS0v0Z5qxjjKxtk83FKoSuKkDLNZZmEKJYmsaRRRRCY/iZx6FnwSxYyCTtNUqcymGDBIM5fQNL7m0nLfOPVTyvaNm84vN0xMR2qaoV/It3zfuFYhixl0qv8cHbhvnA4qWHSojUMRTBGI8k2h2MrRVBIHpeAfEqTderZyqPHVRx3FIEM9/ZNfzyZO0Pq1AWKVygQgTwCk6cmViZ8Ne+L3jdfTUuOsW4hgysU+mCfxuWhSkcVoE6rzubNe2tykJq3xW1VsiYBJ1ETJMdf1bNtClILwb1pkLjIrtPW+8QSFsmIWZTGhokzu02T4p/qS7kGzZWzh5lbV7gtqvmntsJsaXM8OSubG1cJtEag9MaaY9UdgLZY7ac/sG7frnek2yaCZ8yKJuOdast1M5eUSsX6X7Bu3mWd3acujRAhgeGSfKTJKVbJvXOkzV6wK235Uw5pFa/5L9o0LKa0v6hA7VLqM2YgL9vQPBguROIpNn8xKZEdIRZYkqY+dpFSEBAJczy5s81QG1E6IeKZ8NUj6CtwTsvNkd8keNDJFYyfE2OyYjf3iUM0wVZDWEHToT1Fa0U67s14qktKRVOqBDsviTe5W8Gl61svicFZnm7NeaMr2D+sn62fCVXVaLhTtTDnrlRlk2CIDPPGYbZ1f56xJmYgBatiscxlPZIzfSlLSFiQl57NLMFtFnksRqwGQo6RB0f0Zub6piqNGwvmSf9ptUvoEVPNw1ouEmh2zVQmtHVQo+ckAbiI4CIuG+RcwO4E9aNJQYp/AUgKzY9aDCryd6Fmv0j6B6XAUMgWAEsy2y9GW1/a3SfGgkGbp8nIlSP/JPuulfQIpo1Sp2o6pl7T/xn5ULok5/2e9NGtCn7nuG+dUBp7FCJWUcJvXP0Vohdl2+z87ZnO/RnPEnGyDYLcGa5D6SPx5wGzt0RRzaTnONv2yvIJyhyOZW2HVCKg2IdmVj7M5VCPnBNd/5+BoidmchU2BWS1mStNraQFxEop2pmB2xsBskU8JZuf0qc0ilYgZE2SZNPwXi+YMx+wE99AFxfPZtK81ytQvqS+pHbI2cm2uKlOsNB1n51Ra+q/mUgzVimzne0L7xk8dZtMIrNDQk4y/hpitZVdWX4z92HGoZE8NZtOdKid0PjuPIyyI1IJMlREZn1zMFlZMJ5f/tX/H0KjTnR5ZTxTM9lHBuE7mytKOmQ060XF2ZjlTM9XabjcokmnJJTUaP8sM0uMgTitF0v6v6zRxDkR/iELKp/or8SKTOYzhJMxbgnPvNg2jdlwNwi8tCG0N1aHStZG31flsmwhrA3ug5isxXNF2MSg/zrZjFvVc9FHhWwSZ8s2F2uWY00Mupmq71B9OdpxtZ8qUi6VAcVqNs83itC2+XSjqL8aTH2dTpkmUhH6YH4dREuy7KJNCxDRYnJEdSrf7pUNMDSL7zN+pYvOWc6sIOf9i7ZDiKB9nF5XJBGmV1FSKbBZ4r6K9XCihJzzOLiqHmReGhbD5m8dsO3IuCf+bo89L3brmkqOe4Hp24JfdaaNVgJOoxrQIrEYrLfccfcC55ZI7VQrRjAdNCSA1/SGheB4iM/8h7M3DOFv0VoJitLYyp/PZzDCTUvPOSpGRS4NKz3ppKUu02cfZuPgxl7lxKUisjfamR8kJ90UrZrOnJEmLWSXUIPVROi0crTCbtwtl2hSlUEpcDVGjiQPH2bmfNny2CcoRkX9dxy1iNiqnyGcb4sq/be5U8BnMFuukdSOCbTthzq0MtMm3BWanhctiKgXOQimLEtr8zWN2m6gnFWT6lCeVNk3Eik3/T12Z9U7Sw+xz43bp51SXC2p9p4pZbkgZsabKcvqnQkkxm01I8o2CqBSzTREr/Zzx2HxSHN6fYbZGKwOnJ2Yreyodjbcy9VSCTgyz7c6NUMC/retFCWbbCXNuKbXUWxZ0TPmmAeQqxWwGjBxLStkuaKWmnuojjpPAbByx6A/VrJaYTbtkHu89aCQa18p06z7LCxD6J3IPmrKdc6j2cv70b+k4G9t/yw4zmB2FSUxDLhx1SaSIThSk9DVLLZtsxT4lmE3jtsRtFPdwJYZ/EScVhM0x8z/9o3IVgvD8bu5HtVGk3yYoR0T+dep037j8i0XAzMyFuEZW/m1zP20xu9Cgq/RFxxON2fVavZjpCftkK5idHNtcLzDNPZXXE43ZSYz2b84O2ayokeRMi/xbYXYYhLivuCwJGqr+KHF12EkSQJbwfFRkdglwwicUs4m9kxln25yLgIEX4JJ24QfHqfbdrqxM3sPLqshRI0/EBv3RWmz5aeCTgtnWfe+ccZEl9dHytZWhnsq3OLwm3fcu/87yV5cvNV5rzObZ8vkZZ/MUIL6JQFvrqYHiOnti69nKds6h2sv5078njNmhH8sXBV4Q+IHvBX7Tx4+uGg68wPd8r5n/OA75e/SQAL4lwB+vgWHCpj85MYk0m3hrcSmpYi4amZO0+s1niBt1h6uNRuNbAvh34KNEJBRJRHJpTHUo5+qjjumpGU5uNOMhHRHTCKWRVVFzFCHwgtpMnaslK3xOxNuWizLDbE9PTqc+Xuh7kdcMvWbYdAPPDdjtN0Mfg+hrBjnp2gs1OTHpuXhcxCPdqibxX+VTNKahGmTxhuaR+6IwrtfqoR/ql4sQeEEa5EtyP/XkULQBJq5BAU75Bn4wMzWjNPORlR9Nrj5UU3DemHy41HJ0aFY5dBpO022GmB1GZrPM1RdNWCx9VX6qOrFhH1EkmpmeUTYMHZzN5rzY+OlfH6HXqhTG01QNLD6sxRIBlcPuptvkbUoBqQ6zkCAsRM7LIl6WCyrfLnHWTODjGd9GreE3fTw8Zuu2hVuVUIxsq455CP0wDmPXadZr9Vx83zNG7km7xEIRfVSCiU/lrnpA/WQbRrxwo9Zokv2TKoSs6zXdJnOr1JBO0/dcbCfJHoxNqlCGOGdBv6MwchoOLflT49xCLaRPo2SmpvKyRGJvJJoYM/NTr9Wdhqvx2aFWp+2YrTFlWFMVfTTIddzadM1UwEJTnOpTgtgIbbvCosEGBO0TyYrJ0dl6PGDtNBy1KA3VumYlMSaN8CRE0KG1ksqRi9v3Ai4j13GnJ6eNqbPxU9FQORp7UGEzDq4vYkKsomIRh344NTHFlUvLUVlSgplxtucGTcdvOr7rNJ2GS5/TqDcadcepO1mfBvm3+u006uaTVG6j7oxWx5CykpI4aWQNamB8/pRCG0fTaTZdrzZTR1YN58w//nYLPoZyWeQ2+U6MTbhOM8NVWybb5FJk0mk4kxNTdRKBpWjDiSP6SZUpPprKVgUX6PjouJVv02k0G3W3UXfrNadRcxv1ZqPedOpNp+HJ53IpW7mwPZBJFLQ6Wh1t1BpOQ+Ok5uE0pFxQY6l/o47xLa7SUrM93YbbdJuT45O2Z45OhpTkUkbcMJATymk4Y6NjStNkJHQsfzbLEhE4Tr3WqNfqVnyVyJmZnqnX6mirTtN12L+oDROfyhFzSUUoMJPmUsfewPjYuKV81KpLn5hEQ7VXQpxKU0So12tGQEpimKzN1GozNYfYUK5SHsQe1EcdElmF1fYhlc51mlOTU416w/d85bONwyKuGhaHKEryRT00XW9memZyYqpAU7my9WOLL2TFsLF8VT9WGzI1OV2v1TEvKl/DoWUPyg/rsDZTa9QbLkY27a0KVXQ03eb01HRtptZ0tXFWxozDZG0Kwsil8hZpknVRWtLY9OR0bbqm8cUhdFJJU40pTYlsWoyUsliF03BrM7XJCarCrUkVayXXF1Rpw6Vaw7lj90WDpE41Z6Zmiq29VopU/1KUVnapHhr1TBXGMkIpsP6OjY47dcya5WXx67VcfTGhqpPSclHVqcN1mmPVMY5sNRGYtcW5m8Hs/KwXD96Lc33sM8ffOgOA91jRozr2tE+OiEbmieti1nYE200zGIFHs222fyu35luM0DrIc2niyOZf+SzS0aBc/NKY5Ol7YWbHWWtOMHpRORpfHdm8mo71KBAHJbh7yExRlqZqk0uWOOB6atmjN4VoJ+lBc6eZvT/KsDps0kXONbRFEK73F0mpj6bK+Wj5sr/Ogmp8yTfKvQnL/jlqErmEEy30XBKebdO7SzU0R0r/tenYnupvi8ARiCZfh5JLUcKnMqAOO416qt4ktOl6pXPOEp79q3Sy3uY/DtUgyosGiIV3vVTqHD85CkqKtpSj1IWf0A/tMzmqmUyltlPZU8rsr0IVHQA40rXfKrVJlbpzIuRo5pIkuF5buk5vBLHj50jZ2tAgOz654wifhit4t/awydqxcnJpEB3N0P8yjmKSog8nIP+0yKxoURjh8lzxh+NYMYtRMj52fNtNV3RkYpb9k8Xsog2RgeYbSl2xiCFJAG9faP0pS3EC9QYKrNcrlaay43ME9Wnl4GhhBI7rZ697QmOLE8Cn7eSiHiaiWRdptgmqU5/DTtImMmfNEewkbdxuM8A1FFJm++Sary2X7alE7Owajsf/kiXEACEkAcSRUZC21HYrZnuyf87HsipzpwpDiGUkuNip1a8YqkEWqaITz6rVnUybnsuiNJcicWXADiK94B40pckcaGT1Zw3qv+xgUuTmPTJ5OqS6wMcZ7IxoRfoarEHKp/rkcud7oPAeujq2uTZLlC+tT1tFoBudbI1xviyCfQ2OVejlW0OUGeVcfdTBIojq0vVyFY1yyb+frQRLHUq8GKqKkny5CTbvZ+fi5yJzKHnm98Mz/7geT/exy79q277nZ54jIg4z9qDyUtqSs4IqVJkjvQctJ0LpvyqXhprDGnyxV9YeiB9zH77GZ4fSsZkvsqepNEh9xIFX6bmFPpOtRnZLvsZOJDl3HVrtQaM7TPD9bC0OTYc+zFVRBPWRTDEm3WqQVmGGRbpyP0+fyKb2XAagKRt2Fqol23ES+8aRy8JP+33jiIhtP2UpSqDWaCaA8W3PXPJikPq0cUQJhDHUHc+6/RpzYf8wzmTK/pxvkabyUwyqNZrsqTbQJnL7XIrEE4CG6wWy72HW5Ib/uSmTGa47ntVKBwAexE2IA4hCgm2y7FwVUoFzBpezdQp9QjFb7xtPLbRUibPyqYVni0BS47kApZmjo/6sH/2XHUyK3Jk22q5Qej47FYDazRwpDS3yqT65JLQf2LwRYtcuBmy6sjgz/jtVmC3wb87XWraIQtPdvScwjlQlqMbUoYrichEkmIc9aESKHqiwBgGSr+/5UWAdVS/aQ87kWATbU4Uqc8wDZvNBL+6TCdv4l+Qy+95tfykyrBfKp6rXZlJTqaf6iCP0w5KzXlw6+lsiM3Bm7JbiPAmYzTtD06bgFGK2qkWVD5AZZ6cTAqw4SmDuQZNy0p2u5kSvllArh+Yay1kvLn72z6XSyJKdsRXbv5U7SppO05zb0zgEfcbTEsqUh6UINZW0qAqhpk3XqJwLi1CInOncFUOViOVoNtxMP12VUExeDFIfW6VMnJPH4NbpfLZRDr7fBFGAaB0mEFpd0SIpZUCD1Mfivx1ma51XCsqnkioG2XHkjZA0Qw1VR5GU+mgyzUWDxAfvY1dSqjr1YYdd6BrEpOjf9pidGWfreVmlYzmw826O0pqi0dZKg5Rb7unjONvutFKDy1cfZ6rASWP24z/rRapOMduWN05KxtlSNCqpOniQaoaqFh2+FZIVwpH5UAlQnwkxIxvZxLd3d4veUGmFyKBPAhaCvKaXucaVIuTtwUpVXo5a7jlHnJRjtkXQwGoLpWl2RjmW0bKYnkv73m2CfDwMZ+2kfSBHhhTxqRFQXluZVkLf8zPHTe0OgUbTWimzR1pxuWOhtSDXhygfZ5Mq1Egsh7kbW32Uf77Tplj0SYx33+bvVFFtFFRkE7TLRfkv0WHpfeNGD2kRtMBsbZjoPSgDJMyfqBIBXtE31avpsrF+U7VS8Zj3m7VUuMwMhFj9OG0uOcgm3tqdRAleJmwTF5vAgrH9W+Vo51uWUb1WR1LFnzI/jNXKv0iBfErOZ7fRQDHIlqsQmsSQOUjAEeIEghDnKEK0CWrd0srJjZ0xayFu6qQWvfjz+XujamMqPAtHF0xqfGkFhI41XpEKpkG2Ix1nS452KLtR4fxJLqmPBtFdDTmhuILxAwA2KdWA5sXL//pvNjJKat7AkPctbAbSuceUSWo7TORU81gW2mRzRWOJ1JMdkgu3wnnMllspzJ0qBQ2Ywir42yIw/ywm755FH/6hhKoKlVR91KFBpD1WkbENbdrStzgt4phQxLcdStmUYzYOhtJQkkPbY3ZKShGa7bD1Mzz2y4E2V20wm3OxI9tFrP5poecKmsTJY7ZYkSY3RSNKU9E4Aj0sJPbJd7JKTI7QErMtZSqpHKvG3zJI9rF/Z94I0VLOlp0RgbqV5l4BsU82V34eyawBWUF5zLaUo3pQa0GTkBpkc5jWdzUGYW8WzC6oyCZrlwsyUyxc8sm86yX6MX1uq4nIYjYfyxYuqRE3b7dZ0vKzPxBF1NTHZlZVZ4mx/bc+ld0PYWrGDSRIZ63tyDyJzT5BBH4EJn7b6Xcm5YXgerGvXNFseThbQktWo2QVpBg0U/f8KF0LwDE8Tb9jkkLbkgalPaRMOeboRwnUncCf29x4KXHlXB02h0EEtYavw100I2PWSSwnEflCtOxv0/wx66mta7laYtjj7JxpquQ5fzRf6aKyu41B81ucKamC6adBWjGEePsgqtV4T5/mzvFLudU4qYNy4X/1IUv+18pX7kGj9ohyJNxSKbKs8vxW+oYmP6xCr2RyFjxatXnIY7YUjXljRktcLyEvFGJRBG4E2D+gc1wokfSGy4FHOn/UAsoOR2FG21ykaYlcgtmSRHWojky5KE6IQ1XHLTs3xK3G2apARggeYDGT+oyQzSfd1Rqn+wYsJtthNpeyFblcdWoM8hKGKWt6gTCD2QK3qSGR+NwrooY++5YGPYuePoqqT6RTX5AV2w6zDf+mLVOlqYMp2OWihaWOPGaTQSr/JppYKYtgj3fJYPBdOPOYphiPNkrmXS/uU4qqNZSSC/8tMTsFVGWbHbNjNqlIU9lyof3IUIHXmrFYC0Vcitl8J5ip7CRyBrPjAvKg4uh1WLVauqUhjsLE92HKgQkHxh0Ya8BoA6p1qNagMpN+1RqM1jHCuIOeQ+MYYZSiVWv5yJUZ9DmJb7RODNRhZNoQH60jP6MN9OfcW/2ecCH3acyc/4SLIky4hiCHauRxpyWdYlCRMpNlbjX0hIiPC2OlqUbryB7zP+nClAvTjnwuTNah0cROGLUj5ipTQe4MZqtFljraYLbWPbtWmwqf1r20wmhboI50nC210RFUPj0AACAASURBVG71OJpyleYixNsHYXK6WzfNTnJRH+PQ3oDVvGrt4OdfMxPUSkff9VLMtilkAQzpyKvMSlxf/zUvBMs0uDLWCrMxAjfoyoxkrWqxHdSgyF42a3w/R8y2SRXd84LZxaK3i0lVNxfMRlKkHOoeyfBL9GMgPGtFovB8P709ZqMqBGhZLcqzakl9+FUofb2bX63NYLZ0m+wkyq32OTgh0+dX7Vk5KCzJKOKjLLNgtqWEXKZau+1yUaHUUYLZal0WcY2vHKY+9JbrCWG2EZALVHJJgVx8OIu03Sh2Z9vPjWv9lSJWFTEDyobWYnVoKbfCbD59zsUHcXY922C2GX5RC869s+x7rmTiMDEVXXH15oWrdy1as2Pxml2Lb9i5aNWOhfjtXJD7Vu4wPit3LLxh16LVuxfesIu/XEz1x2gUx45sh9ruRat3L15z/6LVu5nawht2aXYLVu5o9+X45H8lycJVO0kcFgp/L1i5Y/HqXey5YCX5kCdmkSG1Y8Gq3FfQSSZ+61BmpjRyMUg4NyIjD4by1dfft/CGXdcQnwtX7Vi06r7Fq3YsXrV98aq7F6+578e/WluZcvGmc6xC8ry0WDkXtzUup6ZKusOpP91Nyz1Kq44JDMsGd24f7d8YWUwO/a3m0nYLZseJ/RMncYw7DJOI9r8neJCBjgoInWyd1JqDlDlIBcH9Fo10FkX8bVbJbZp429+IYBQolBkghQ7EEDT9iJ+txCAzBYTtHX9ZVpV+RpkylORQDtKYecymrPnJasxFOZEuvyksy1/y4nMgUtCCanwbBtIRwEB9aofAptPKLftLkoj3hdpzUIlbd0K+R8xOzmos/E5tI6sTnks00/vU8rJJtxpnGxHYHiRfJpLuD8/mzoMe0RVpiSJ4TS+zB42oaelgfFmtMAUnpq6kjFAFidhWXaeZX/6zitKYhPrQ3D5PHpjsqHLpJIRWVbPKSe9n4z1uWWGRrBaxBKXKbyVCAfPw/elmdj27qB+rKdByse1WH5MmubLtBg0v8SyW2qfCp7YqUsXaYTYrv8B/+Tg7I4KpL1xYbELaizItDxcBzZapVlMLabGerYNsplw2zhbDZWWlBpr1n6jBoo1d+45DdzXqq8DACH79I9BXgd5fhy/pr8Szfn2VpCBs0luJs18xzqlXUV8F+isoY88YXLHkjnGnjgMrat4QlHDiJkpiGWzpEiY31mwJ1HTbv+xxttY0rvPYEPCPVCTTNOQoCzyoHatDMRthmr4EkL8YQQkXJ6IIAsIaWbMxbU15G8R10jbpGFx7D5oGSTuVo5P5124mNGFOSwmETT/2w0xCwrCMTy75XP5lDhOo1xrpJckyg81DLqzt9o8KNTf62KzjGyd4IVTaJhIRbkdQhLn8cOmbPor0CZiHGJp1JypidisOBdgy2hOW0pGfJuf3s13a8qKe5GAbM3KJFKg3PdNlm73eqZklwn0CnGKxf9TaC5F1shQVKKHEiXQCxFNDy+8u1aJkwLO6U0YzWToMtzgDUTBaOv9N5ZtLIlCnnGitVEcxSH3UUXLWjjNSqOZ/LRGM3arxco+EOgpIln9EySV3lxJBMw7J9tGFcwF+FZlbwRxmU2gYzHbfuBIhlswkh7DHxWFjuWrGOOjJhlSurNVp5BaYLdrAabxIDiNangDwFGb3V+JfI8xuUCXGOjELZmfNwP4vj9kUhnWDKwBHzVpw3kDtBsh2U2Wg9WwD2DE1dVSFDWaHVNloiwGdOOcRgDY3Qo35MSxpHaP5audxYrati6K7FWYLY2kLW0zb3ocp8J0qdltDdX4eMJu1NI+YbR++1CI4YcwWbMspkLt9qgdt+Fq9xakGmVUyz04bzMgGmU0GihkSas5ny7/4V4kXImOocq5J1CcL/Rx+8pit9OW+jRSzNQjfCMELaNXDOFSEVn0C5lmTqQjqI47yN0KYflE/Nh0NPVHM5qxVBItOeXWjmDwKT0uHy6L0fLZNX4mzZ0zn+LlDprKQwzSJufiUKrNNWIlLBWSPpzC71ZD3ZMbZNMdwho6zz1TMxoXoCEE6iXT/Hv97IuPspzBbsbOVg95SnJ9x9rxgdis+uVnXQdUZitllDXoJZisaMSpwqlJPBQBazjgZzFaWcvQ5a6Zf2hGRoBLM5kLU3oDExL+KcxyHg84IzGZFtcdsxnJbXnKXYLZlwBz9KcyeT8zurwCNvM/EufEzFrMh8YNmEnoQ+BA7kLhzXM/GRkHb/acwW1VR6qDWAl8vmJe58XnB7EJ7l3ooqCiGkWOWO1XS9Og6xeNsBUiLq3nBbB7knS6YrVMRRXkVs21EP/0xW3sYhNm4VqXWaEtkC2UVcR6z7coo0WbDbDqfjROJhcS/LnPjrRab5zrO7qsi6vfRd6ZhNvRXgNazN487J47ZtklQlWvUHdMWWBZp1m+sRTuZlUp4YRq3jemXM2tMlX5uoxFHkaxjYuNDH3gJhF4N3MMQuzHuRnMhDnRO2CJAxHixHreyEWZLTYgTqNUbODyTu2M5RPaKpbvTdNOYOmz0z2nF/tfz8BGnPD+pfMSe1ZGw07Zx6+pwrd7gFVj24bYijBM6V4IlpERMkmJDKdrI/eWI9JRRqLN9RnxaOsu1EJpRzoE8JBBFeNCF9aAZJQk0Go4/5/u0bcpKxDi0lWS+OSrN7ZfenWnMSKIxkTlhts0EzS2bPWjqzxP1bKbqKQ6Tr0y92o27vcitxYb7xu0rKFRMrTUqL60TpXKpggTz8phNLOG+cT/Q7IyDRMh0cGUmg+mnubBcxEwp/3SnSva+botUab5Ix65dMklAe9AElUTJURjjtVp2fFE1tzkpV5Ik9bFilsyNk6oDH98NwyRcl6RGiR6kgnGBGsymJUctINuhOaoDAK8w4UI0Vmh2vNpKaIHZmkwxWzOToF8HzB6B/mHoq0J3BXqqYS9uOksGRpJ+2kw3MAIHR+AQ7qrDdWvaXpf0VRLZcJf0V6L+CvRXoW8EwY+2dEV9lSi7AS3uLdmn1mpw/+T54x40ErNrDH62+FavdhjiCYinIZqGqIZfWIPIoctNPbzfFM9+0f3yYmEpvNFmsITuk8c3kRnzEBLpJ47jKMJ9wsaEBBXjKA6DJApxwzd+tCzNOUgUatYNNEMSO04DD8bKPmvGjDCBWgBhvTr9yCqY6gR/GKIqRE3aSR7HhM2ybY3pYm5BjBvWIrxy3XxBAlONIEjQP6B74UI6f68+7RxCRKkVHQGA40MzNPRbUSsmnNXHkAKYboQ+ycU+IUAA4MfgxeAXhNU4thLa5BUBOAG4IdJkykzBz2qsDQUOChK8d4H55Pv3TJIEZpzIDdISKZLCawnk01Crf2gsDls9Nja2Qf7X3INWct81b8syzaLQoHOxkRmuiCf/NevZ2iSKw5z1Usxg4CzsrJaKAOauG46vv4ma2W8hlDlJ6VkvpZbyT/IikOT2ahHGyAZT2YPGIlGSNme9Mrno4WYRrcgttQJSCiJFyb5xJcXYLDF5Oyxv/jdyGaFw/oPPrGsWDLHUx8L7xtU/xzPv3GZPTVIauQSzqSjx/ex6FrOlsHgTeJojzdvp6azU3xKwxLNs3zgXos1nGWZn6ZpTE6pTabLPXMzuqUB3Fb/+ETh8DPrGoGsC+mv+ofHo4LHg6EhyrApHKnC4AkPDcPw4YnZvBQaGEVB7KtA7AoeH8eurBoNjMFiFvuOI7gOVsL/q9FX8wk7yJw+J55419jPo65yA/1i4srn3GuhZA323wuBWGLoPjt+fHH8QKnthvBumBmDmaNKoJu5U4jUSvxnRFKkbQzOmMS5dX+OFUGvGbgQegJfEXhz4kR9HfuR7oedFfpAEUYKDviAJ/ST0Q8+J/SZEPkT4L/pH+CwbjsMSBAbGBuoBYDuTQNxwGiHivwn1E4QiL0FMAudYtPOqxurzYMe/wcgu8KbwbEYY4iFn3AEfRBBEEOI28wCOH5vsG5ruGJzuHqx3D9a7DtXafN0Haz30tYkzl6DOQ7XOQ7WOtl9nW07mkosdp3uwwZ96Fn04qD1jc+RKFcXqKv3d1Vb89srpOFTrHKzz1zVY7z3s9A42JusI/2gVccKfOfHA5x7Mb7OLtmTfMrWtejAMrUxgnrqUURGecfsETlygSeY+z8W7S7V55VAmXhI/SrRNVzp8vj8Ko5L4cYKvNLp0lokbYR4sWsDJ2InURHAcT1vtOVYkc+6fOtfcm+G+RZzg3LsXKDPqKIqgPuowkYWZUv69pod3f1q9BGbVTInJiTImpVeOIP8kr+ltIP+RUZEkYTb4ThWGT2Ves1DwE/pYiNxtKo2c01sSJ/hEer1hunHElU3Kyhc7K9yHYPtJ6VvlYsWXCUM6+qHy4skC0meOyVkwm8uYqRsZZPh0xmG2Tl8PjCSHRpJDwzjI7qrC/r7Jn1y19Mvfuvzq6zf3DsXHBiu333tgZ6dz6229Ox+s9I1C5yhC9cFhHI53VPHrG0kGhnFSfXTIW7n0ljs6pw9UEbPLtpGfjoDNk/m9FeiqQGcdfvmra4avfXdj1Xvdle9vrPxA44Z/dtad5278uH/jp+NbLoTbL4ItX4W7vwX3fQ92/xge/Ck88kvYuwg6roXuVdC3Hg7dAUe2wbHtcHQHjDwIE3ugMYAz1f5x8Kvgj4M/BcEMRHWIGjRx7UGMUI3D95iG7/S2WBwnIeExDnDJjOmXOBNwHJx7x8E3bxWn811RjINmnBU4vN1d9aFo2V97Gz4GexbB6CPQHA8i38WH3QzlKIkaTVi1YffGu/et37Z309YDm7bub//duGX/vHybtu7fOIdv09b5ye7GLQdu2tbBn/Jv+Rxgz7lwNX8soarnooTSOBu27N+wZd+GzfvWb967/s69mzbvWbb67gP9U9hNjPDaiSCMQmrNuU3X39w0450hTa/kLUW6pgPtireaFzDbbrtNWxwQpgo+ccOaRIh5gY+LMqaNxgYaL+1CbJY7TDQyz70zpqpnBrML9J2G4+Lcb3qoHTPKRuPRJKMgZ23zr5ht+iIpZmPHljDbzxEsisA3c+lNIOzIpyqTt+l6Zr3Wyle7FzkK4i8T4ARgzEwYRPRMC3WbLCWHAc5dc1G2oIalbCuntFw4TkZvlIvv+XSckk/FYilwTFPEZEImX7rDOAxC5NNSBXWYIowf4BRO7oMY6jN0PTYP36VwuUeikVtgtgCzOUSoByfU/ww860UnkvEQ+aGR5MhwcvQ4HB6J9gwOf/YLl332s9/85r/94NwLLv351Rv3PHD/xZf95IZ7Dt67+ejuR0Y7p+HgNAxNw/AUAnzHaNI9Wj82FQ7NQG8dksn4b175pmu2H3l0FOfGe3ggfmYcT4+6q8n+UXhsGn5+5U8mFv0lLPsLWPJKWPhSWPQKWPRKWPhy8y16OSx+BQYtfhV+i14Ji14Fi18LS14PS98Iy98SXf8eWPsh2HRBsPGT8a1fgM1fczdf7t3z42jXL8IHFoUPrYj3rA26bvL6bosHt8GxXTDyCIzth1ofOIcQ2ptHwT8GwXEIqxBNQjwF8SRE4xBNQDQFcZ1gvglxM2xMQtiUifQYQgLtmJaP4gAaFdj6NVj2elj00ubyd7h3XAIDt4A3BEkTcBCGo3MfoikfVtzY2TkGXWPQP9s3MAoH5+kbGIX+0dlynKe8mOdDY8CfilD0Qa6eZCXMll1LfkZhYAwGxuHgOBwah8PjcMvdHfsHpnyaLZfpP1lT1P8FHuROlcLceAvM1uFKZn2RppfNPXdKWQayZXPjdM0Btc4ZDKDmWMfZmSAaitk+6nYdt8nny3klVfLVCDpJwMhtOitWo83tOU1FWHPjJEjS+h40nrpAzKDuAt3SY+TSWQ3mQXGlOFtOfabsnSqFeYJUEIFDpGOPy0k5PFWgfRcz/sZ5i5K58XQaXPgX5aAIOT7tPpDNDCfJz42LAXD3QvnhhLy2QvMBaR9L+mRmfJ/LIn8PGi/2M7RbHbUyzGZzF00ZVuw6QO7xM/BOFYbtfrz+JTlY8ceGx2791Y8/eN7l9/bDsSbcs33PFz9z8ZqNN13y/Z/euqtnw+IHbruj49HjYwsWL37P+z78ua/+7KGDM3c9uOfKH33jM/9y7rs/9PEvb9q7fsON5/zu7739gqvu6kTAPjAKnbQlbe5z1KcuZtg5Gu4Zgz0zcOVVv/Bv+yLc9nHYeC7c8B5Y+few8p1w3dvgur+Ga98EK94Iy18Hy14LS18NS18JS14Ki8+BxS+BRS+ERX8Oi/8cFr8AFv4pLPhTWPgCWPhCWPQSWPwyxPglr4Glf4Eguvwv4dq3wMq3ww1/A2v+AdZ+ANb/E9zyL3D7BXDnx2Hrp+Duz8L2L8Cub8JDP4PHfgEHFkLPtTC4Do5vgbE9MLEPJg/AVAd93dAYgeY4BNP4+VM0iHeiKAiTKHpsSbj6/bDkZbDkFbD0VbDq9bD96zC4DbwxXJjH6fFkKoIFG7t7JnG+pIu3MlBPi/tbxd/zWEBF4kWfecyur4p7NXiPJJMt+hQZKPWZL65KiZ+EJ/IznNx6b1cOs037nvvDbWur9WxFPkEH0/IRlmPrl/U3M5YyYcvTtvy7DLPNUCyHDdxYKwpijrKejRhjNdB2s55fz2ZGlX+mIHBOSIbYkOE/t+dLFUUqerLXs5lV02PI7zVLBc8yKXLxBQ00Cy0AX4rZKR1LsSmQ26pmjOOVAh2minr5HrS5rGcbmxGukAH9EWo2V6m7dD2bR9sWny0wW/NQtdo+5DZz48egpxoRCp4Z96DR1m6zzfvQ4ZnvffnrV1xz66MV2FdNBo45jz184OFdd33tu/++4a4D373o+sW/2nDdTWvfee4Xr1295bJvXX7+ZYuvv6frAx/4++XLrv7Rzxa8+2NXHdjZ8ZcvfMXXF973wBGcA+8kGJivBu4JpdNXibur8b5R2DcJVy5cC0d2w+QeGH8EqruhsgOG74bB22BgE/SuhY7rYO9inA+//2ew8wfh3Zf5W/812HyJf+vnvZs+5W86P9z40WDtucHq97vX/m2w4h3Jte+AFW+BZX8Fi1+fLHpVsujlyaKXwuJXwpJXwxIaqeNg/RU4iF/wMhrWvwyWvgKWvwqWvy5e/ia47q2E7n8La94F6//R23ieu+kC98aPN2/8RHDLZ8I7vhTde3m84wew+woE+Eevgr3/ibP0vWthcBPs/TGsfQ91Gl6CvYolL4blb/Y2nA8P/wzGdkE4liThVAALN+7rnUDAZszuruCqR+mH2xfm7yvNIuc5x+zmgnO9VeBPIytmqw/u7Zjtm0clzCW7OfLTk8VsbqgKrRR5yCAk8APcd5370Wa0iM1FwGZ6OSAUgub9aaYjgxxZyyyZAOAg06YLYJgWXJIj4jKHCTSLd5cy2OdEEBQ042xhz/yV0Iw3ZVe+b5xgHnmwWBKhZBWAFWWJkN+8TRzm96ApuChx5ckipX7oEOaxD2TpmfmJoziz3q+qU/1oRmnfJSOX0MeellG7KB/oThWc29d9/qJ8nl1I9cO5zIrZlj5NXrhv3DFysdgqghV5zpidM2gzN9697xj0VmK+uBTvLqUjT3Nsd05JNORwBL/eEeg6FHzj0p9dveruA+OwbyzuHfbHxpwj++/7+mWXb7q77/Ivrln2i5U/vPKbv/8Xn7jsp2u++oXz/ucbz79625EvfOXSvf2d+/YduuTcXzn7pt7xqrf+cnPvo1WU/ZRIdHKZ4imvCnSMQuc4XLF48/RMgPu5aOcX2mRCE45451iEC89BA7wpaI6BOwKNY9A4DPUBqHXB9H5E+uGdcPQuGLwd9l8L+5bAvoWIkbv/He75Omz9Emz9LGz5BNx6Ptx8Htz0Ydj4QVj/vmTt38F1b4Flb4BFr4WFr4ZFr4FFryYUfxEh7oth4Z/jkH3hC2DRn+I4fumLaED/Qlj0Ylj4Elj0Mlj2avyWvgr7AUv+Epa8CZa8AVb8FSx/PSx7Jax4Bc0HvBwWvxQdy17t3vzpqP82aAy5zXjJxgf7x6GrknTSin73CLT5Tk69palspGzlLk2Y82TkIwpJdxUneBDnyMGeJsIo9I4ibCtS9lXpmAP7cJeF3K2YUf8cAyf9rxJ8nI7eCnQPx7fIONseyaRNJzdzCgyz3oOWa+IYq3KeRM2Mj61mlBvYDGYX21z2sX8rlqin+mi+Vqtdcj5bYMM0+pxKgM3M/SopZl62zqXYIILwerzyYhxCje+vRU9lSbm1C0CHszYhilmC2UrNZpITai42HWVGMVsp4LxIkq4d5Igwq5qLElcfKz6PwjOYTbmEfuHuUiJrAJ5JqdXNBbOtTLkrkD+freVr8VmG2dxNYF1oJ8suHnKP1eCaTT37jkMvno/CTci8rTpXG0+6ej9BCfFQFs2NHxqBkSMzV1785a985/r7j+Pq5vBI85Y1N2/Zcts3vvPTO+4++J0vr1l41fLv//ybz3nJe//+09//8Kc+/alvXrVu875/v+yKjr6eRx/r//JHFrj7xt71mjf/asuhvVXcpMZ64P3Y+vv0vICdb4bHiYFxuGLR5umpgF9twLrAZkd1jzfj0hIyn8gKaae3B5EHsUcnwVyIXDwVFjWgMQpxDZI6hJMQTkA4DsEoBBUIhmGmH6a68SzW8CNw9AE4cn/Sd0fcsRY61vqPXd94cFnjgaX+zivhnm/GW74Gd34FbvtycuMXYcPHYM3b4dq/ipe8Dpa9PrjmlcnCV9Jy+8sAx+4vMx/O2L8cFr8YlrwAlvw5TuAvexkseyksJcDGifqXw4JzghVvjO76SnD4/uXrdvaPJL3DiHZPkJk9AWSTXjxGiCcSe6rQMwqHKvFANeyuBFzjunELJFrgwWrcRxG6CbN5bN0zikkGqslBgu3eKnSNwoExPD2htwucnobaSpNdI9HN2zv3DUwFCCJmVISmW2ipzGyzmRtvFiMYH20WbWDQxtDChnROO5tXZm6cWtt0Dtbe4CapeHxmD+mKPim3CWQwu0xSA8MW/+l4VOABh6S8sqsYI/yUYLZpBGTQWUiSsqf0ZWtVGiT0SzC7KIWWAmdt9wZaySVEMpgtmfJStFGszDCn5SI+zC0rh3e6cY+HdGVWLgIbs5lPyiVDnPVApW82+qkIwqfRjDSzqaIAUsy2IvMsgkabE2anfFuKGKvB1Zt69hYwOze11arKnSp/2YmWHBqJR4YbO2674z0f/Py1tzy8fd/Af16z/rOfuPSOW2/918t/csc9B3/w1VXLFmxYtu7afzjva3c9NLxk1dbvLbh53V37/u07P+041P/ovkMX/cuiiT3H3vnaN/9obedjx+DQGYXZA/SaC2P2TxCzQ3NAmjHbtDiys1EsO7X13NwRGUaj3kjvVEmtme4WTQLEeER3F0IXt5LhNvIpiGbwC2dwcdobBqcPat24bj22Hyp7YHg3DN4EAxugbx103QB7l8G+pbBnATx0Fez8Eez4YXz3d5t3fnPmlovdmz8Pmz4Jq/8Olr0GFr4CV9yXvgSWnIOOhefAwhfDslf5K98xedNFEwd2Ll/7SP+xpO94dKqM8ITypfMOcV8l6ENUpo9Q+RDdDdA1igs9NL+FNweguxr2m/F0bKbHRxMeYR+swMEKDFRx/N01Cp2C2frAjzCW0KUC+vt07Nl0jkQ3be/cdzCD2dqucTPHC8MngdkmuQ20hNmMr9QeCoxZTSJjdroEjqiTXc+2GnrEksL2IuNTVrlAMVuGxSps6rAwleHHYLYmwfs2cDd7us6dzhInTQf3vSvooEMwmxRCI2yr75Lma8ES78q2OyIaLXPWSzFe7l8w0SzM5jNOhh9BuIxcQoTTPtmYLaozO9W5kTTsoupOBWZzs6v9Mss6IYaxGvzqDMRsHlXQUDseGPF7j82s23jT+z7wgTf93bvO/fi3btvSO7C/+4qrlt710LFffm/d2hvufaRv6LvfufKtbz73b975pdXbj6zbNfDja5bvHzry4IHBy766rtJZveyrl7/7wkX3duDtKzi2lrtKTvNxtmJ29zj8dNGWmeno8WN2vVbHMwwC8NIq4YFWHJ2HTQgcCFwImnjPaBgmYRKHEAX4oYPf5gogpK3AeBDMxy8JMTQOwXOi0A2h6YPTgPpMUpuKZyaj6XGYOAzjfTDWAY9cCaveDQteifPni1+ME+OLXg5LXwur3ow77PZeDcP3x1PekrXd/cdgYORMweykvxL2Vxz8PQID1eBgNTxYwc1lXVU8iNhPN/8cpDmDnmrcOxoOVBGbD2Iq2oY2Gg1U4VAFvwHy4WE3T5v3MZDTrUEy8XAGXL7bMRLeWIbZCreKrLNitkmii7KKporZNmDQEWdspmWSGSeN6eP14HRoOxfMtiqL1JfMZmbNJYPZkqPB1JQTnHHQJNwDUMjkyOn72SyvCBtHieu4+Ban/SOYnT5RNRtmc5+gHLP1rJdmgdxS30X1kMFsPEKNcXnQSb9ROt7vrTFlSPpkY7Zwbk5zzS9mSxFraWo5th1nUzKjI9Wp0DqjMZvvODs4Eh/EK1Ci3tHweCMemoKjYzBUhYPVqH8sPDQa9Y1GHdXgaA3Peg1NwuAk9FeTgyNR/2izt+oerEBlFCoT0D2FN4DiMjkPdOS6Eobt03PKMcXsCfjp4nLMVivJLH2xAWiF0epHGygy42xp6egC8MiAM0I04zM+ep1Epr1L8zJWR5UZ39pEBzVn4LvUoPAB7SREMKcv8hp4PnuyH27/DI6qcTL8pbh7fMHLwxvOje7+EQzeC/Uj4E9D7HoeLF7X0XcMUU2GlaexYyTpG4aB4aB3aOS+hwY7+oPBanO4Ot3Vc/TGx5y9kzAwHg2ORgOVCA+SVaBvGL/ekaR3JDxYiQ6NBAePu4MjjX297rZdo0eqU9v3V7cfxFNnh6rhQNUbHMNUA+NJbzXsOh70HMN/z4iL/LKYTc26tN0ZW+IWn8x1lvvGbZOWVs6ybkEOaalNLlYqr4l3f86O2QJCp25v8wAAIABJREFUpldhUchwrjywwx5nc40g9MokYVI5bLPo8AE2c178ycFsZol48IqYTfplDDYwr9qQM3gpZltSp0oWZdIxqidxPZuVTL0HfmfdjFXUYuYyzubIarf23LhValjEqhaAx4XZV2/q2XMcevheT1nPPs3nxqmZTvrxCtK4vxIOVHwcrOBOHK93JO4bhp4RHpoEPaNRdzXuqiQdI9A5EnWPmAi4f62S9FSD3lEPL1EZwd1MPEDBtATbud+nITY8uZgNeD6ax9F0jyl2xskDu4Ly6XgF4vRyb2xY2Hwj8B3fVGAD21itIY6iKAK3AvvXeNe+HZa8KFz22sbKdwW3fg4e/CEcvQOaR/CIdoiXsQBAw4cl6/adEZjNk944Ph4O93R1fPDDF6/esP9I1RkeOnTtkgVvvXjJg5NwuDLac2T8wFF3Hy7NBANH6/2H/QND4d5jcc8wHDnuHh8aO3xoePHye1/31ou7Bjo/fdmVv9oeHRpNDh2tHhgc7RqBrmHoG2p0H54+MFjvGMHtbE9hdgqEVltpRnt6BozN0orwJGN2yqS278zMaYjZxFIrzMa7SHN32vB6MM7hW+NsEnOu4+wcHOYKS2HSKj7TtsjsSEa91DPI7EFjJc8LZmu3Yx4wm8ZJrKOMACQ/70Hbcxw3rPIQk/egneaYjXtoq1F31e8abfZUm/2VZh/v6xnBNb++UdyVwwDcT/eNDwzHPSMI5D0j0DUCiN9ycUpfNeoc5WvRcKDGW4FOQ3guZUkxu2cCfrZ4a20mLs6Np4Wult3K1qmG4AX6vJ+TR9jpOJsHzeZkSBxDaO4MT/iOUrmmlPA5DpMkDCHEwTi+IiID8UjH2Tyokrc1EPNjPMa96QJY8fr42r+ALRdA90qo7gd/Uu5LrwOEPOvX8GDp+sf6j3sHq6f7LbOM2QeHce7nQM+Bj5536Zp1B4bG3bFjnRuvv+p1X1mxfRy2b7/1H8+74G3/fNHFP7uj69DogmsWf/e7v/i7j1x67sW/3Lpn+tjxxvplyz/54Y9c8Ikfvv7t3zx0eP+nvvOTH22PHuvu//q/XvwPH/nMVRt2PnIkWHPdrZde8oMPXXDplr7GgbEzGbMtkzPWyw0iGfAJjbPNsEktXxtWfa8pBwOA96w9mePstHoyJzoaYzjROWQNpYnu8rlxml1vs55NawEy2tMqaVFmiMS9gLRebgbNyhJpz2vKPWgmtiSSm+NQIlX4vIyztfTZMOx82Uez0yDyN5sSsnHCwNo3zkqeR8wmTtI9aLZubbWUj7Oz4mEZhHRpjgpAjvE67htXzOZ9yAa26TZvvtO7FDDm7Fl8izq30nai/5pXvHpwZIxbbPoqSc9IwpDMt0/Ikh4eBuNTYYrZuiVe+e+RA9nmdM2Zg9wpZk/Cz5Zsrc/EfCEojmu5oG2jUcvW6qo+ausAboMu6Ld8dGiS6GBaoJbe/0gH2ZIvxkvSrW/0+pZw4rk6zmbYFvD2J5yHV4+vvzDefSUeOXMO4q51v0ab22UxnA6vAUAdMfuhvuPhQbpGXovy9HQgbB+DoQp09e694COfXXfdPY91Htq3Z/evfnnF6y5ZefsAnP/Pn9t0z54bdjz6gYsufmTXLV+88HN/8+Xrt+zqed0b3nbZgq3rV+786Ds+dMOWO7/979f97RsuOdTd8aXvXvW9m0c/8/X//P6Prrr33nv+8GVvuWtn55JvfeNTX71iU2fzwDjgbnPUjP21evvuVK4plM+NF01XW+0TOuslLXIGRYRUuribrQV5zLaZYXdZ1UhRigaXJUjM9l+YGy+Jyfww83PGbKVTsm/cFkGRQxsBqZhIQX7M7gGOXNBPikkSH/8qHTs+PU/1eMfZnAtLYRdB0ceOScsfyJVGo6JHzHZcU16WEnBDn0ZWubDPYW6OM35WEhNfI4sD9cNKUJ1I6UuU0rlxW3EAuMkwtMqEkyYwTme99hyHripuWOXtVzRpjJd16CcbULV6z7H+M1qHvdV5/XBIHbV4aGuOjKkgZmydm1fgf1Pgf1yLpifdZckwWYpGTz5mM0iXnsZJKy0ZqMa0IydxYh5S1IpkHAlMjczs3wZju/GG84ge+0sgDmjVHGcP6JkEahkQs31YumF33/HozFjPrkDPcThcha7eR977rg/+yR+97vnnvO4lL3r+C/7kd9/89bX3j0LfowdvuP2BK9ff8f5LLnps55pLLrrwolWVoYr/hfM/9sOl267+6eZLz/9RZ71x25aez73nR0f7B77471d9e33f7/3ZO6/5zxtu3nTjOz74+Wuvv3PV179x+S/W3zUJ+0ehB09/2YB9mj5M1xKz7caOmzK2kxPCbMCdXGbCNtseAs7YRNhMF37ymM0YX2hz03TKqnqpT9FxSjDbFmFumM073bBGF35ajbPT6m8nUczm4hOFpPurpAuFIEehmT1oWVImCy00SWIAUiOTP2+LS7liWehOFXzjRI3KYgkjK3GmZq+hsI9myglz8SlO2qcR4nnOW46zVYZSzKa8x2uwcFPv3hHorCLa0Txe0lsJe6pBd9WnL+hGxLUxUkGIT5qGdN40+xuT+PI1e6vz/nm91WC+ugI9OM2edlBK3biVN9MIzr1zEBGrqo25O9p2dOi10IER7GnhQr6Os2kojBWEjUl7jtLkGaPgf8sMDjuhubqqkR+3Ay85cqxHjZRgjPvQcS8b/7B/DEkpZie4nr10w87+Y2cMZh8Ygd6x4EDPrg997POrb+4YnILqUPeN1/30jV9dfmefe/kXz//oJ7/0rs9c/rJzL35gx21fv+SSn9xYH63CRR87/6oFG3/x43suPG9J31R4x61dF77n+319fZ/6wRXfuGnPOS94+4Uf+vLnLrz8gxf+dNOtPau+9h//sXjzvVV4dAw3omfN9XTHbB9wakabNmzT6TPNqNoJYnbZPWh20y9GhH46TiqYuhlnW5HZ6TX9zNy4DXgFIphE22UlpT5Fh43ZKlQuGudigEf2V1txSvegKRsl42xbBBuWlAF1qAhFHwlqidllSZIY7w+PwojZ02JNMduCQF7IaIfZxSyKPpYllM6NR2GUeT/bUqwxNpEU/9IGfgRyLXqL4ZL4lCR9P1vZsykQ/bI9aJoHZ8x31udIxDjOXripd98IdI/hXUv0gDRdblxNekZj+pKe0aRXLj2WexOTvmrShwdMo75q2PabNUL75K1CY2KANprleWvnyaNVmkjn6XT83V2Ju/CL2nzdlahnxP5iIWKWydO5d1k4F584m9Am0t6dcih5ZXx66eHwXlybT3om4Mql2xo1nIVmo0rnxu1CV3NUT/URBz1eK//wX438uB0lmM11LDYvKnMNQhn4jeWQN7llx9lnIGZ34zUp4f6ux/75vC/fcGP30QmoHO7ddN0v/vLLazc+PHPRh9/38IHjG+4besN7v7r77tsvveTin99YqY3El3z4Mz++ZvfNGx+8+JOf3/LIQz//j43/+Nav9PTu/8R3r/juncc+/qkLr/vVrw72Df/ted/ZdOfgykuv/uXSLbsnYD+e2NaOtfY1597LnH2Cp3TW5yQ8dZxNmM2PryNy09xs+ts0mtSmtcRsNqRsu8ek0gbXsmuzuGv5sNOMs3k/tto/26Vt/5pQG/2ijwapY74wm98ADdP7ug1+EP38+Wxm2+IBObVlUbeK0NpRgtmaXB2SvIDZWKYEhOZcO7IhjPE21XnDbFr4z4hJXEWBYDZzm+ZOc+DsKfzjX3vYo42VpCoxrbL7xg0bFtkMZmMe/EPZ57o2dBLfnEqEBCZqsPimftw3Po6D7IEK4BVLNBWM9zTJ1wKzFbljwu/cb9oOVi3fg53bkv3k/Ivr9ASo3cNgf13D0Im7yuM2X9dI3D1sf0n3MH8ZUjbZJ9rdMwz9x6F3GDpG4p5JxOypyYD3oOG5U5oV5IsXikMWtYqMTZPB0EN4hPxsvtTT1PiP34GXCQMkIT6YnPmCAPB5bvAjfOsLAkiCJAnCJAjki6IoDuixz1rzDBtn9yFmJw939n34E9++fuOBoQk4fuz46lUr3nXpuv2j8KULPvb0s//khX95/me/smDrndsu/fq/Lbnt6NRw8tVPfvOKJXv7Bid+/P1/fc4f/uE73/PZT/zL93sHBz77vZ8v2DH5aFf32970+mf/1//xsa/88uGucNnlSxdct/Wh0aR7HHqeKMyeZ+CnO1W69g1Mm3vQuMsphlds6WhOO/Rcr2iH3LIREssYXehkIpvbSPAhRX6/2W4Sce2m6UWheZeahum47VmfBFWHZtfGR4PUwe+SBX5I+7yYcjlxToIPVvphhM/iSKsubTsJlfWk/zzX85q+slfGPOZ7Ml8Yh0EYeIF5C1XUy6jGShb9y8A0oXfKy7ZSFVseI2MCfhPfEm3NoSlffWhEMjX+vIGOX8zk3exMijkMvADnrgkl5UFPtITQD/EtWHnVu1XuWpTqyMXEUy1837i0nBqBjwUyGxnM9tyg6fr4OV7TbbqO6zZcp+GYr+44dcdBH/QfmQgXbupddNNjy26+/7pND63c+PDKjQ9fv/GxazfuXbZpP337lm3au3zTIys2Pbjixt303b/ixgfw2/Tgik0Ptf4eXrHp0RWbHluxac+KTXvn+9u/YuOBFRs7TuhbvrFj+YYDyzccWLp+v3z7lq7fu2TDo0s2PLxkw0Ptv6UbHrK+B5dueIC++5du2N3ie4DiP7x0/aNL1+898U+ZLHXsXbb+sevWPbRi/f2LNu5csGnvkvUPjVbr9bpfb7i1eqNeb9Rr9fpMvY7/NPhTG8j7qHk0nLHqWL1WTw2m4Wjk+XA4k+OTTbfZrDu5z200nIZbbwR1Zwa/eujUmm6t4dZq8jUaDafmuG69OVGDpRt29eMetHlGkZMYLM4lSR9dh75vFPYcDbuOYRe5e9TbNzT94JDbUfW6j44/Ohg8djjqGvK6j8WdQ9B5lB6GP5rsH4LO42HPSPDooUbfUHToaNxfDTuOu13DQf8xb3DI6x9odBzxBypwfCjqHprpHmt2DCddwzq8VsfjVxRfqTafo/Cukfim7d37BmZm3NBxHI8aJWyySr+G23SbM1MzkxOT3IJZv9VKuXHj5g5bOfqk9aOWkM0Y60VN6oU0iU7DnZqcqs2g/TcdbDy5IjTqSl+SSJXRSqFVRn2KjqbTnJqcnpmeaTrNYmXU+I5WulqDqnDDdZpYa/hjxpBnZDL1d5tNpzk5MTk9Na3MpKS0EaCEdoS5uxv1xvTU9MT4BL5iTsy4xAwpSlVtiq/pNrFG17AJKi/QQimjzhvu9GSG/xx7biM1Dw2y6WuJN+oNjUDPlmPC2nRtbHQMVYfsIRqy2plPdtupcm4tI3XkIjTd5tjoGL64mmrGmJ/NZAazY77ggjtB2imj7ezm5AMP9mkCKoyhFkAthEYETgR4P1UITggN+hxyOyH64xeBE8BkAyPoZ4IsnzR+iPH502jtHU4A0w4msaM5ATQCXMK0KbttiWu+RcdknUhJFihsQPJyLiI7a6ARQJ2+hgiSEsyKzAppkH5qnuinmCrr0/CRGZu48WH/7G/OeqqRarUZgBtAPYSZALdSx5FMJ1IXj/qbtB6mq4NsFTRrxN29Ym/XqeOD87Y/x6Tf6UQWdlRP/KPFJFov1066OtIxA3mlk2ayW527xjQ95XiwbP0DA8eiQ3PDbFnTabduQnF46qjNb/PKlj63hStKhS9Hqp82eHYNxx2jeHK6n44j9o7G3SNhdyXqrUYDoxHeLo5nHKKeYZya6h3G8w44LcSHI6q4PoX3oOHmsqivGvVXo4FKMog3lhMDFRjE/ShBj1xdLvtG9e7SOWE2narA4xh6vCJ1VKOeathTxcvS59JNmUuc7uHkpnt79g7UcTeYbU5qFTnHCa5nm71UTEQNjO2LL5hS+hLKb4TgPK39YxacrCllDVW2iz5K3HJk7hu356iZjo6nJUlpPZUhZmY+jOtsyVkvJqV8CuW0jivn6tA46iMOr+njHi77RyMXHMInnmfR7NL2RI+HcUIzbY5THTZ547aJa7B6qo86WhRZFETmaIymJYcBR/a0iPAyDTLPPxzBVqaEaIR6rZHGt4vYilmG2awjycZcUsNmKphtVxLe/8H84KZ3FtjKw1CKkwYzlLMw5iznqfVQBS4QzHkkMd69h+qzfngHoDmrpv7tiatOCw7Dv9JRR6602L99LppWHQleEI97LubyUySuPgW2sbBIybhHrPijCVVz6qOkikHqYxFsc9YrY4hWkrk7U8xWrtSR038b/mNwm7B8/UOnALPpxQ6+NNRcHYqPduQ/BGn5+qvJAGI27gLD7dy0/aKfkvD2EbzCrIrLUgN05bi5d2846RtOekd0lFzi0Cy0RzIbTM4O2z1VfGSMtmHiJQf46Suf1bC76nVXfdqPOT+j7Z5huPne3r0D1MZZzXqJRYl5nMD5bFqMzN/MJXZl7i9j87MqQsm7Xtq4WdFSDtWA1Ut9yuLnMTuXKpdEuM1UPfI0/Bfiz74HTdkryK68pNCQehmX7/nlTVAhJnpoXjaf4pme/+a0XMQxzo2XECuqouhjJ5NcUh6oHMMgNG99crFq1jZiKh2+L4+PgalnK7mEVLoHTXwMD5YS5gGzkaj88Ckd20dC8OxECWar7nJGoP4Wr0qq1NEes80+QE7ZnnixwMSnBLPbkGoTVC5AGWZL1vmSKxJXn1wS/pdGz+lBApsBTaiqVh8lVQxSH4vUKcPsXJ1pw7/B7IcJs+c05lNUm82RYq2FiJZnGWb3V5N+vI8v/QihEWX7qomN2d0VOoU1isN9BWyD2QTbxnME+uYfs3lXWnvYTnrSAxQWWpt3QoPuqtdTDeYRs/tGELP3DNQRk4qYLWaP5nkSmM0Linrulo1c7OopzM43R1YjYIIsUNDAMx6z/dAcXTkTMTudo+BjFVwrZOXcAKR4cp0pwWzpHNEcAm29s+qeZmGqXJZa3pPOU5pxthUTidCdMDmWhLjU51wSmRCWaGaHQh6zhf9Mk1FCqiSXPP+UKh1nKxFFTW2DJFPmzc46x639Lx88yGC2ZKHRUpasCfA2uaTxhVSbPWjFyCfq026crcrJtq1p86E9jNMHs3HcnPRXo/5KYH34bBddIWB2ZfZXYh5nM2ab0TaPqkt/4yR5wl/hyFY64LY2fpo5/7bj7OxqNN1S3DuS7qDs5XuLadspXiOIg2w8UtE5HNLgGw9W4BESPEU2p2+27hHtTh2BW+7t3dNfwGypIHbVQDfPjbte0fBKqkAOs8XCOSZuXNK5WavJwne9/DDX1PAce96TCBbzLfrY3DadJs79CjPq4FT4r/0jrbFGY4fOOef88Q0Sp+l7QdE/5arYHNk5MpJRnFJ503e9CiK0ydQmpZzo3jGTkEqBtwGmHGku0qDZJiGkrMZZU6qYSoEc+BYnTuViknTG3hC36FBk1bPhfzbiLEi9Vk8pUy5p4QozJznORkK8zk2/tXFUT/VRRx6zpWgzpGQGnue0mZpSaOcQzMb1VNW4zE6Y+2xT4sK8+BSTqCC2AzGbq6h03k3B6303dtaqorJc7ByN254b1x59vvdgpoxSpQlxW2M2z8ZNW8Fx4kV/NAstR2E+JZ4GmfOvdi5FERq6nq2khEIx8on6zI7ZdtEIA6pbI7eF2QdHou7huOt41P7L7vm39/9bbryOPpzti7pG4vSrRD3VqK/i9424fRWnD5/tavZXvL5KwI9k41C7EveNRL14UDDuxmvtoZuu7esVVFZ4Ljp6R+Z4UFBPHmZOA5YeEVRPhV5cNccnSQj4x/CJbrzf9zgtvY/DwQkYnMLfAxPoj1PlI9B1fBaddw9jubT/eobj/grccm/fnv4aNnZc9NyoUdGbimncOMnH+65xbjNnG9JKpNOtnCrbsplTZOSJb2wwbGcrfuZdL61f0g7MJV+tucXIEIPruHitUAv+0d/60Vpsx2fP9I0Qi1RC9H3Pt+ObDgfXYmlq0gi5XgK1ikbzPEVh0YcY0vvGRTkpqWxMzFeaDrtc1NM8pSW5YPnSefom98lYD5KLqoKj2UWpPmhF+qPM2D4J8PvZnEQTGuIF5SR0po5MhbYO2KSUfsFRn6kr5VbKP3HMpmxSLWQtW3VaLIxyzLYKBtOK5O2xoUgcrYXWs1tidkhdYyrjlHnJziaoIhQdGczO6aFAqn0udo7GXYrZLfWT73bYGityzp0+5F9/1KA1CzGglPM06AzBbBEhr16tkBZmD+L8Mz730v6bfcyHy8x85UDuyGLm394qrknr111NevAxbL+/4vZXnIFRd2C0eXDUHxiL+kdxYpxGyVHvcNiDvYEYH/MYSfDc4EjcOxz3zfb14j35Uc8IJm/7xT2I7nP6GEfxxl8SuX8UDo7DwBgM0Ix9Fx56RGx+sBe2PQzrt8CyNfCLRfDj/4DN9ycDk4jZdGFwOtxvNRNQvrggy/wcOlCFW+/t29uXxWwxAFMFqFZy1UDMaHrm2h+Jxnai9UXNpuhjN/RPYbYqqugoVR1HO+MxG8960ZYpGluzUKa1LLb/pwCzpdOqE0FaPAoP6ekxGQ4WfVAk/qLsejZVGy1g4xDJNQu7k6UMlDiewuxsz7So2DiKf00wWyxTzSC1MTU2cZg4itkJOB4sWffAfXvH7ts3cV/HDH87Omu7uuo7Omrqo46dnbU5fDM7O6fLvvqOjsaODmd3J+zqgnu64K4DsHU/bN4Hd+yBOx6F2x6EOx6EOx+COx6A23fDrTvgpnvglu1w5/2wswN2d9Xv72zs7mzs6nR2djZ3dLk7u5xdnc7uzsb9he+BLmd3B8Z/oMuhz72/y7u/293d3dje6d65B+7qhF3d/o6u2vau2n1d9V1IfGY30ndm+9zdne7uzvruTmdXR7BzH2zcCss3wMLr4ecL4Ns/hC98Mzj/YvddHxn/6/eNvOGdx1/2V0df8Joj//vlR57/okN/8pL7z79w4Obtwa7Oxo4DMzsO1HZ0ZL77UOe17R21+zrr+Lurbr7O+n2tvx2d9Z17Jm+48dG9PTNmdlSsQlsbrAIGsxO+EfrXErNlDpZ61Wrn1B5yI6DVRMdtJzPOpgplVJ3t8dj0MQvp6Of8z4xxdtaKUtOiiRw+n61GxQKivYml2SI/6eNsKRU0CB6hCpoKo1g2FkKbk0JFH0Rf/p7CbNGqXbSp+6lxdlv9pHPj1rKZsUZpJqi9xhkXbTjMzI20ZQng2bytDx7ZcO+hG7YdXL314Br61t01uOGeIzdsGeB/7d9rtx2aw3dw7baB7Ne/dlv/2m1Da7YOr7x96PKfHn3Xvzzy1vO63/Th/tf/06FX/+ORV7x3/KV/77zoHY2XvL1xztucP3uj//zXwB+/HP74JfFL3zB2yfdg5W3O2i2H1m0+vG7zkbWbj67ecnz1lqHVW46s3XKEPAfXbU6/9VsOb9x2dPXtA2vvPLRh65GN245s3HZs/bbRDduOrb9raOntw//0tb0f/NrYDdv8tfeOXHf3kZXbjqzZOrhpS/+GLYPrtxyd7Rtav2Vo/ZaD6+48vOb20VU3BZ++qPG7z4c/+GP4/T+C3/49eOb/B//ld+A3ngfPeDY8/Wx42tlw1rPgaWcnv/cnwSe/BMs2Tq7bMrJ+y+CGLYfXbz2yTr61W4+s2Xpk9bYjN2w7smrbkTX3HOPfq+85tvruoRvuavetuevops0DG249cOh4ZK7tw1aGhgdqDNKSMqr9uo6zGRvM/KLYOc87ziNmm2aK6Vv11PSQpItsV720ZZP4Z8A4m2YfdcSYESGBFLNpr4BpfE5bzDbcc3NZmFZV2bStVB91nPq5cel2pIYlPsqk3U9UWdTx1Ny4WnPp/MeTtJ6t0/sC3lpAXI5p+VKrbZ4UoytNQ4BmAh7gwXQnAi+GgD68PC2GmmP+ZU/+HSb4cujJfzF4Ptx7T/2979/xjOd0/MZzh37ztybO+q36Wc/1znp2gL+f2zjrebWznts86znNs85u/Jf/NvS+fxrpOAL1GFllHvwYWfVi8GMI6K63sOx3w4GmhzfB8YeRKclIDT762dHf/7PGVYth1AWHlMCkghBm/yLMFK+ZC5B+EMDRY/AP72/8P2cf/C9nB2c9ExH6rLPhrGfTR4B91nPrv3dOdem1MD2N1wC4ETRj8CJ0uDG6+fMiaNLnRShaw8M7HlhMnzhv85tjhrT1h8ZDONBUSzAOruDcXukeNIEQrfWaKvURUupDg1RD/7SaGz/FmG33kLJuW3Xs/rXA7NN5bpxbRu1QWD04rCFm9GzmvXUOQbtd6qOOWTBbemomPi0YMDWl0M4hc+OIJTy/Qb+5+capAr4EODv1kfGUVCpC0VGO2TxrZO+CmUMuNpPqzuwbp5ZFWxN0YEZmdyJNXWSVb2kszzmlLZkbVxVlRcgn59A5CNXmThWV8aQdmXG2wrZ2H1k5rDRLFWioCV5AHuKVpviFALhPke2ZhRJTd+q0xzDXpnOcWX/jXlL+6IZzKiEUljsWAMeOwre/By84Z/SZvzX1G8+Ds55T+BD54v/9Z7333ItoLRXO/OWSV7nzDorluQHfjcNKJr8oBjg+Af903vR/fQ789h8NfOsH0H8YfHyfHF8+i6M5fLiH043jKPBD3wui0AtC2P0A/NVfD/1fz6k847k4sMaxNWP2sxG/f+fP4d+uhqk6I6rqAJvuEHsUUYSFEFHJpOoOmk4c+vTeS+ppdl3mESAJ4rgZRXRxaWbLbtZ6rSCAKIjw/G6hKDWJHYSeetZLkxBffHGp4UiDEn4/O79vXKuqTdwUENUsuxUq5UQT4h603L5xOUdu5pMssyjPl6oG78lF/i3mIcE9brgHLetJTb1MvLMxcoQWRdRGhPS+8VwWZf8qnVL95PaNm73cET39Z2pMKp2qQttPFoqzSOW1RqQmyJaRxtnmXS9mmLVt0DCtsUyQp6h5lhp99EdplklN+8Z3PkfSAAAgAElEQVRTCEM2qCdkF1bZHjSbIcRCEl6z1MGNPUjVUGVIfcTRDrOVlMombXFGWiFV+vdJOp+t2lBJ2aGcK3MnKsJsc+NpGyFFYAqSc9TscozRiIHvKM6sZ7fhs0hKpdMg9VE6bd/Pnns5WvQyzpaYrSwVBFf98DMiIQIG3QAU+hCT0zb1BPASoiKRDBdt/jEnM2QpCFtH80Qa5ZIkMDLhbboV3v0B/7//Pg1MGbkJ5M56Lo5W/+/fgQWLwOebb1QuqsK+djjMGyhJhODGHyJvDEm96QRJJA+Gx9RHwX3AQ1Pwng9PPv1ZCKv/7/+KPv0F6BukAW6IN7Tbkwot3AiQQQx4d54PIaWIYth2L7zwFUeefnaUGWc/G856JjzzD/2/+SgsuhYOdMLkjGdeisPpiiSAWL+Q2NYmquk6UcgoXNaecVtIvxNIAgix44HMWD+qNC1HbYjxDc3QK965oUlsk6axSorZnIMwFQahue9PWwOKcGruVOFhlW3JzK1qICsXwhWvGtj+pKVZ7lSx49tKE7WY8tF8rWJh5xl8PpsKOvACl58WZKNiqVgVtnJE/ync2qpQ/RSTFN8IkeGH3X62wGw7jzLS+aZN4ytD6iOOWTA7Z3O2TQiF9n8Zs23ZULFkoPl70PQymqJoGqSCWI7iODvVQ5HUiYpgY7Y0NFzqadlrG1FKXCuPxbPhkB6jPRnMPpFyeZLuVCnaQVFe9aFyyRcOjrXTbrihh5hND86zyEqhmF0rH1v/6pbIuJTuBRMN2HwfvOR1gCD9XHj6s+EZz8LvN86Gpz+ncu5noDLOXWTPzA8Qn4k9SYBXDeILFPwlvLGEBiN1px4lCN780U3EYQgwOAZ/+48jzzgb0fTpZ8fP+u36294x2tVhZsuww5z9cPyb+ZIoCaIk9oKw6UcRQlkUJ6EXwH274QUvn/nN33JRHBlnP436Ik/7rdpz/+D4Oa8//u0fwo5dUBkmuXgOQqckBK5RSTTOC4OQFJYvMdGi+ZvwfIkc8kpDtV7YxSc2jPMERczWKp/LkzSL1SfnT9iPmG033MTBqcFs5r/AZNo0pdohF8llBq92UOm7XiwjK9POgvVs+ygpW/PqSY6nMBvVoPopaq+I2ap/K/LcMFuMHrMs1gq7o9uaoRLMZutp0elTsMmWO/2nDaLlKMVsnLCkPff5ile0Qs1GRSg4MpjNqlBtWDo1WrKVpsTbOHKYTfTLMZsptxJBWbL5PwnMVt3aPNvENYI4zEEIO77yIHHy9lPUG7eSdnxyl4+zOS+bK82xtX4SniLnLJTbBGozdBEm+ysdzSLHkiZUB8lCE+T4sClOv7N05PAC6B+EBSvg1W8+fNazvbMI2J5+NgH2s+A3nhWd8xfHt+7GvgQlc3AmAFEXpyVjWVDHyVr8cOIt9yUA9UaDFoEwW/0iwCdD3voPIzjOlu83/9vUW95c3X0fjemNpDT/SWhPb7txRppdEMV+EPieH9AKTZzgOgM+sbZ2Izz/hUef9swGzvYTbP+P54fP+4OpZzx39KznwdP+Ozz9eZP/838dvOCT3tr10NMHM3Xwrfnv/5+994CyqzgShkeRJGlmJCRyMCY4gNN6bf9rFq8TDmuvF9tgG7ANGEwwwdjkpEQONsGAAAEGEYUQSAiQQEIBFBAo5yxNzvPizffWf6qqu27fe98MAoSxv7PvvDPTr0N1dXV1VYfqasEzSujsWKaoAwdTzRMReFaRVqlZTpAKlL/xHnxbcjbpSj36KursACcwKcbFkrtYZ2dq6M13qZmZ2sLbqoh/6tObznbwLc4UKYSkUgVnSJOeqpHMlUaxa1fyXcrQeqo0VYselWoLRFpHxSO8ztdD/6akgeApjTKpZKLEYUKD1tmWGtSSn0FVKsKvNqS7QDchDYdYDlVMFiUBTpX2oLOlWLZtvFoXcwOhhbSNMiheFzh03qwQMpBW+/UCJEWIVIcJ6gLBCIRBKA+lCRikQxj52TEmNQpMCRgwsRXaGiUKInXhXRolTeaA1NpTL0oVPQTi82wGRXBMtY2SglFKHbZJfkEp1YqszjZx4MzcLopX03DJY8LXNGFMzL/KBo2VTk+YZBCLZQS3V7cRIQupASrobEGPUdIF5RAo3ts04OA0Dp/WpiVesssKebrsy2AliZuTQptxS+ZE7YJKNggjJ4CAF4wY5UNrGzwzCX56Egzdz+o7CDfG99gHeLO6agjaWg/Zt3DvA+DadrxIxjNf3PMma+hYg6IzD/0l5a2SIoBCsRSEyowa0Sf0wgiWrYdjv9+GxmJiJjYEZwlf+zq8+jJ4Fh0rkzMivdUe0AUQvCKlv+hFxHcDz6HHZCCIcOsdpUCpaD14J3xy/zbW2QOrnfMvjv42Dn59lnfg0dBvBODspBoGDIWaA+A/fwQXXwfTXoeGBnAtH00NaDqCmCqd7dFKxDP5CncV1GQlDlA7+TxCtZS1u1mQw3ycyT5V0CdJ6sOdKH85Vc/1YxaSUhGQfYwxLdJlHdvFfQJhNoqX2lPx5EsraZLCG/KqUzV8o17lU0XgC6pchONZ+MgGeHIQYQlqmtrbN4ADOeuOfaoINA0wxp9VAA83bnsSTnwEnhw1sQ1aJr/qtWQ8ij6GoCmszqHFtaUMQ8qm3s8WIBLINiEbw5mlolSAKvIcr1Qsp6drBEr1stHehG2gACd9FO+bproyhLSK0QVNLqqgs5lMKPj0Fwkq0NM6m7LRvS/Jb6oWLEgeaiJ910suiSEepPvlhlhIa26GE98LJ/KZwDmcGpyss9ncjDKgtkbI+HRrPC/GJOOWmlTdC3zRmgmC8nSVETaar7gKq8ZvFmxPMaDX2dQ9iDxPF2KPSwRNiyFtIKO5RDWWXrcVHLilrIDZBk2LYH1Pjzw6MREEMePdXHkrFxtiEjye52oEIMTHX+Wcj8Zb3HyzbMUw185NjusiKcY4i8428RQmkeKq7TKnzHQBciNdX0TO5K/WyoV8IcsPFbHFSC5LwyEM0aTKD/0ocMGzwfOiMLABz4Db2+GVV+Ckk7s/cVTdoGGFPWpgt6HewZ/bcurZMOKgRjS3HgJ9ar2Tf1dq6YAwciNUmww0iHAfOgjD0GcdqlW16GwKcCrSjHW2Sg1woR6SWfi8d+Hfv9miFtl6B7vfYNhzL+8LX6gf/zB0FvA58ijCarBSbIjyQSTMHwWR7/qeQ3YAQIZiSLcgCu3uNhg7sly9b25ADQysts/9k1vfBjuaYNESuHas+7VvbN77kPqBe1tV1dCvxtlzRNsRX+z8yS/te8bBuk3QVUCLcTdAZWyVLd/DqUAY2Gwch0OIzupVo2gbgfU3ciDasVEGsqRTkxx9yM+EJH6g0RSB67h22Rb+4YD0OAWIz1ng0P6c6GwphXMXfCw5dl8qSbZlo842eEPxs4xchqzlKtqC0VcgCLUV1xn5xQ9anJngyGhVQ09ro9QANEuZNmgcz9XhOl78oOnlOGWgeVRWBSRkKUs85YYyHsKGfIh1No8dY46i0NDx8Sg2ijOSmJN1tgxtJX6BdbZUTdKPsPLVQ+PUcIWnfsQ6NEQiGXzp3mGUSIar5id0tjlxwbCS2KrjSLXx/QKM0Z3CEybuZZUz2cXiB43JzlJdo0rDM4wq62yablMDRPZpkS2KVtirYsCkr2TgdXashIj6rFcCJGvsEZAYkWK0/zI1SAQfCgiBaFqA62zX8aQ6nukEhs5W/Y0P0ff8xQftsSPNvmeYsc7Wc1UTDhahL80S5BV0HJYmSj2FRWcrKWO45YuLxL2AdQlnc/MVDStVJzZoAooyB76HePKXOAO7gCmmX3GnXqgkwU3ic1h0ttQiAcnMXSDxPDDUT2odhnUzY5GHAjQol/AtTimr2mvgxrWkq9D9IgW5aYISzmVJfORzeelQydxjgMc2AQ8C1Hmub4V+GRwLHDR/7nRg5Qa47GrY9+AdAwYVd6uGAYO7hh7Q+rXvtL3yFmzcAQcf9k5f1Nnh0COaN+5AveV4dkJnkzihaVi8thbtlQqkdLZPNuFRgFe58AT92NbYUqwWTdb7D4Y99oQ99oIR+28fc6vXnscmBKEXhm6vOptWwKyzUdxErptzbd914MQTc9XDWvestX/+m9btTYBc5XiBC11d8PDj8L0Tcnt/Ysuee7fsPpSuhw0JdhvWdvCR7152XefbK6CxA295lUrge9gTAc4OvDDwGZMQrcwTFMCdaUNno90dG6PTTIV3C3rU2Ul+kB5X8kfzHksPmZsKG4R+6LkeDxazbOCHVtnyXJI/xBsMUHFppVEpxQW4HnSBWl+SxlKp5OfRsZwUe9NoVdLGHDgiQgW4BBAxvkojo4m0jrIb50q1cOZSOFhk5c3qKklGAS6BeHxpvSs6m5UIzzaU8CGpK2XjgEkBo0YWqrEqIWGodTapWANJIYXkj2Mq9Utcu66Rm2/qbCY15hRCac7hhss6OyWoBbhJH44EWWdLvxACga8ENU+2KuhsVaVMN1h5yCRLpgxm1+pZBrcBIeiPEsrUnnKxjOJRIFPArA7DOGYxD5O1N4WXPFKK7cY1i+CWmlbPSYZL45BCKd6Q4VZogDjnMCbRiemLcZcMkedRoS+eZeBTT6foAGCV7dRkmYkT/+2hF0TNS99jjchP1FJCIwqjcgk3dnr6qqYl2YUBmrJAISOY6I4GsRs3OEREnqK/XtHGLdK0RTBUUPV4hjfCIMRHdQwjDoUbjyseMIZYMbV7Cn+ek8U46KoL+YLAlFRNASUIJJ7nSTyK/ABx90JaFweBZ8PqdXDzPfCpL8Bu1dAHj6thxMHw7R93PfhU0GaBBdCZg8MOf6t/DdR8oun+Z8BjzNXAUXNvNQxw/Rt/saF8oGtE8pZ4sVQOyTyMM7Dq8n2Y+hoc9eU21NnVtFNN5m/9B8OQITCoGvaqhuH7+ldeA40t4OO63sW7TFqWSXv1Olvr7Eg9GhtFZZrlQUsDnHFa1/AR7vd+3Li9DiB0wQ8jF3zajS6WYdbs8hVXd379W13DDkFM+tTAgBqv/1B7r4OsE34LDz0BC98JbZvYIALfw0PvMAjCwA0Clycu0nats1FRi4Zmqzz+idcCmLW4c4m8+BZnxl+3GiksfHkUE4/FOlsWf7pbAh/t8LLjCNfZ/EYIVc0ZZB2fzZ9KkkUYw+fhIPTHNzwsW91Vk1HDolJ0sDn0KukSbiyvfxC+zs+4xXbjSfhpeUgkZVBKwhhSJUbYkAwcTNig8WCnfmVpKSwnY5CIjIMghqkRiwWLJjW3xbzLJwRHOhOJUGczqrRS58GbhS8IxPUS//ier+56aaai5mvJwENYWs2CNIM8cw5C1mLHrKVULJnTNU7ifQWkDyIPPepslZs6HsOCkO7mdAamHbEyJsnHyC86W8pyIAZulJLNXiG9kJJRT9RCUwH1rpf0q1L8AT5KzfgbyKiqdeYKP6XJOk+ss7XmQEykyZLf2DbHBu1kpaKzpUi2oFFFCmFzAkEqXC3EWXUhSNLZqVKJn5pEJihF8wznVegywLdEcQAYaMfjoWfMFQ661aKzE7jR9Ovj1dlIFm0Jxbip3g/Q4oyugAflANZvgzvuhm9+v3XQPs39US3BoH2av/HdpvvH47I7b6F7lgAgV4QjPztv4IiO317ob28jvme6KY4xpq6oHVBPs+bmcOqnqbMlAyPpB/DMC/CJY1qV2xNU2FFVNRxydPiHS+GCS6LTzsr94uSOn5449+57V3UXbNSTesZpSsa0zlYz5jAKbVwQk337xvXw8xM3HfeNhVs20QE134snaYDH+j56ZVmzHp6eCGdfVDz882sHDNvcf5iDiNUUqg/e8aXjtp11Mbw4DbqbUeOT3nUiXPoHqbZrna32xnlJzXZ/osITfEXsV1Fnq8Eic24WQTSEY93GkUYSMrmwtE51bZzu6F/0X8ZCJjMma8GSKoITdxa5koF+VtTZMjdNFYmZ0xi8HMkbAKn8EOKcAG3QTMR40s9omFjSvpTJHnFbBGczP4UTOpvGO+k8EqGV5kAkWg0qCWRSh2aNInaUzuaqNfGzpIhFnEEcASiKRmIYXkJnc5SBUpofPqjOVqxlQBb8OakHnS0cppsdIyQxBlDGH/9KZBylQxGgzmPRzHECSqrTebG6LCiJkYDkN3V2MhL3F/Gwzow1gAuobEBK6CTe25foBJLJaU2s6uLc7x1S62wzo65aUUNaIfTJxphFGBQLzTCq+K5XTGcGRZBj/BlathaJMbCtYDe+M3gmQSV0tgAnGzqlsyXSbKmJp1QqGcwqIlDrbDOS2BJt0KSIrgU1JnVuShfSahdNzqLAQ79jADkbJk6DY7+/qebArv7V4YBq6F9bPPBTDWNugaYWsG2w3QKuwelTLsMxX5x++JdWLFwBjo/WWEYX6wUdX+ki7aAWRTg9YLtxHMhs9cYxAFCidXasTSgUhDD+STjoUx19BsPAYTD44KhqRK5qr+DwL7e99BZ02zh7yOehqxO6u/GyMy5cK+lsCNEnieeodbYeUCFEdMsadZ4feFBXD786afr61RB6enmEB9J2EGLDQ9Ltvmt352HDNrjpHvj0VxoHDKsbODzfb1iA1mqDYehBncd/c/WD49ymZvT94rETFtxUCKkLyCoP9TPZ+eG5N5GOehP/KErpgMSg3biPPklSn0yPY3pKZ5usQklYqRlJMF3HRXX7oT+oCzPAAfQ6OwVfb4wplHRzYsVjgiI2Uwd/Zjw1OdbZZhXMmWYMk5QrSsX3qgLSOpvLMvwUMiYcM8lonep3AUJwKt/l4yrMLsvGmA3RtZhx/JYrLjtNfExSpOJNnS2ApN6KbBJBsUBvy0p+ZkW9ZcK8/c+hs4VG3Gw96pjtVN9IHjNgtC3eG09EkpVMSmczobmWXv4KHF1jWmebHcYMoaHRtjytj3QMk7u3v+Y6O1O1IoKwhfR9NkZji0X4Q3nUOlvHISZmTmFoiv+AOrsHo0qsqBc8JYlwq6yzAY85PgadjXrRxUUtWUKx2sZlMi4r2ZrZhzDfWYI3lsDJZ8Bewzuqqu2qvWC3odGhh+VOOW3LslWAbkICCCzftayA1zEAQQl+cvykZ59ezxMCBdPkIukdpA+xESJj7ELywl8lYWeXS0XaEWaeY5oHQQS3PQDVB7YPHAIHH17/52vhi9/K9R1a3n1E3Zg70EeKyQaoj4LK6+wedDatp/V0JgqxsevXtpWLytBPDwTixQit4FH1orkIHp97EXQWYdLL8NOTt33ymOY994mqBvtVg72q6lLV4OaDP9N+waXw+ptQ1wquj/v1xCB0uR4t04oQFGk9HutspBTtH8aN0sQjmVtJZ8sINYcGwWFWVKAkG9swYpMTpGN/5rtynS346ECFu140WmPjGx7U5hBOqX9JklMADZz33tU6WyJFxJkxEpkcuSqLkCVVBNAGEN9VMz+MsMn2Bp1jyksRDTxe4nMSlyLTd8kbB8xaJD+Dej9N8Fy0G49FmVTA8FOgKupscy4ixSWQ1dnULtpyJhN6+vnR62zpg57X2WqHhIcBc5WePMZ9o3srMVSktT2usyvpbFVFQgAmwKa6U1f93jqbcvKuvjoUTMjYRI1J8Ysd/lGts4mZ/gV0NrFKQmcbzPMx6Wy+u6Vuh/GdYLSZxq1bF43EXZg/Hy6+Jhxx1Ob+1UH/IdCv2h5x1JaTzy5OfgW6StpNF+koz3JDVy2hIhuef3I9eVIFtV1OPlBYBeNfzXXkTI0IQeOEzT3iv73rbDwLh+vvhOr9Nx3+WeupZ6GpE867omvg3m39au3//G+obwH0zuJ7eDctJLfraPESG07GaGAuP7PORjyRk/XeJks0Mp5T1oscwy0inY1n81rL48Qi9MEqw1sLYeRN8MMTG/c9cn3VsPY+NWG/mnBgbes+h6378Ultt/0V5i2EXAkJRoSxg6hM5nLqdF9xipxeSOA9dbba/tUSV7OcGCdzfTJayURGWfBKJAccywk84xhOdRqPejXv4u7iv1JcRWpdqPbGDeHGwbTOpvMThY9pNsvyTeyndMsQiCT9M+hskcOaeYQgKoDxPPXUtNCDItYLnMK99q+oszW/MQ8k1tmaf0Kye2frh6ii3TjyqHSzyI5sjCYf5pePREqM7hi8C9TD3jj2kGlJhKMoNg/mMVP5r9TyvnQ2Ialq1JydZBcSDNJk3aid19ls6Ud+iXXTpKIeAv+ns1mgJHQ29xTNez4+nY3XkNEnKDs2QRXn0fEybNwAY24ofO7L+UH7hX2GQp9q2HN44b9/Bk+9hE9K56OwHKGOQblDflNd1NladgfglvEub+T7kfL9zU7CdAbNdR9UZ9PkgLaQr70BDj5y0T0PoDMTx4c33oY999lUVQN7HAQvzsAtBNyAxtNj9HaK12Iq6Wz0c4B3vbQNmox6rbNZT7OQjUK8T4/nwXzsrUVqBZ3NZ954ucvpzNlbtsO0mXDh1XDoZ3IDqjsGDrX6DnEH1MDgveFzX3FP+V3nE89bzTlwAZwIXHpDxUdR4aOlAY9hdrmu5jc0hrn2HvbGBVUWmsyEvDdurrNFXPDdUTpeSd8Hyd716l2OCUwl3OiQmM/ykIyZT0Jna7nKduMiakROxsBFjv0z62wtFeX2jcLfVEbGIvX/EZ2tx4UwQFpn0zVprU3Iki4Ie1hna3nRuzaN2ULya9IzElKce6KQx816mmMb03NdBKHx7K8HnS3VSUAYVO56qSmqxoftxtX9bE0gLk6TF1wKZL98JUCAS3VyeU4NbF2LUFxaLQOJ7whmq8jGxHe99NAS6xJBoALp9B6dKR0kv8KH9sfUGyEaZ8mjAhoON62nVLMWoY8EioUS0l/meZUmXsIScRVSNeGG8UYMExCv6eq7XlJdDEGzkGqvTAF1fAIg+tjx0TRXatHiL5/LC0wBRTankReir3L64qZuSxuMewSO+UrjwNrGfoNyA2uCgbXdh31+6T0Pw45msF3Il72CV7RQvQNeY/FxHetYduCR0kYM6R4xbrRGgReGfmavlRf1eGuDx4O+8k+6kS+ZRlo/caBULKgYNKHmC9p2FMA1o+Cya+vachBR5Z05+MEJhaqaUlUt/PhXTV1FwCtZbGkd+UhoQ2cLQUJ1Pzups40uVjlZyNLhd0Jnc+dqSzrVydwFtG0R+WGpVAxC3K7PW7CpDu55yPn6d9bX7Ld+4JDcwMEwcAgMGJQbfkDXl48t3vhXWL4Oui18KMwP3SjwaAFOm+8J+iBVSX3jDAbvZ1u28I/qYuWtQU1xdkZnB3IdVBiMAlYZbbiQDry7RpB5pKuZaDK/CAEhsr6eajCnHrByP1vw56FEQNDMNj6llnFE1Ul+2RFR/Sv8z/lD/UaIUaMUUUBEhOohZgLnsLQlmyR3vZSQIeZhOSy3sKS4GRBQEin0VJVSW5RPFZmjaEEUyxzd5FiO6RipwpS6ZiTzj3rDg0W0nkMorJKgUne9BJQ0QWKkRvOuF6fqLsa7Xtxr4Uers7mD6S8jWllnq91jY2nLRTTfS9vUSFD5tYLXtUQB3mXaKZ3NKwMDThZyLNANqfTeOluQIZN1mQxWhJ+K/Ah1Ns2E0KeN8W5VXDvLEWE4VmBJ4SLUiHmdbwAmh/fO6uw05dV2p0LJ1NkGMqEf4kULo0bhfgloRo83aVSStI66/v3obHaWglvcEeCrms2N8PwU+OmvukYcXDew1u4zJNxz347Pfa3pypFoFt6Vx0d2wYsi3/cj16N1to/3FlHzOnY+8NG3ImkR1Nm4yKNnPQLlElSRAhvy4XU2Woc5EMCsebByPc4e6BgeHBuemwKDD9haVQtD9l8+ZyE4kU06nnarkufZQtuA7iXLOlsmZ5IBA0xn6rXAUxvIuFzU0pPN3clFDO6QU49Tk+mQ2i7m6NQcJx5hCKUyPvr5/GT4/bmFrx3XMnz/uj1r8gMGQf8h0Z775A76zMrTzu96egosXwNFG3cKiDnJk5FW22To/146m9BAgstHiyxznY1N4Hge2ry60JGc5Nh6b9yIl4EmECSQTYpjDD4Xnld+0JJJ+n6NIQ8pg/SLFBcFzJsEGK/7hZI+ep1tO+hiweAHmpHr7QphHk3nbBMkRm5tceuY8f4BOpvuYunNm12is1VjkUuBzrOxLQb/qC0ffUsN3vOul0wBECKzgqHDhILCFokYrliPhCiMKupsxTrMPdkpUiXdINUp2ExD8jmwMzo7Lq4b1XuMNOq9dTYjRG3h4dc75ESq9oOW4mmpHQNa9yDwpK41takUieHT9oapsyUpBYeHsUBIpZq1CAQJ7IzOlszZgBJYRjM17+D/MECfFWapNJIGq8T0SVKJxdb709n0dLRDT2DNmBGef3bugE96A4fCwGp/4BDvoKOi0/8MM+fjQ9FIOnwYi1xx0+E0ugRXgxFb4DjtuOI2BCXuD/GDmPwQtDlWkTnpjpcczaJ4TnxJHfH9Mxzx5VKRKpQYcqkWRnnHtU2dBNDYBt/5SUu/YbD7sK6zLrBKoaPml4ib2oJT3cGalZaMnrk3zsZNpjTg0aSbkLgopSPpOlZ811yJJy37vGIBZxXqTWyKjQBcyHXAu0vhvgfg5F/DIZ+K+gx28aJ5LTpGHXE4fOvHhctG51+aDQWL3vhUr4vyaylKvHJFFdbZTFvWXia3kXF4QmdLai924x/+rlevEqmizlYiWksGGSAyOiSGmV/Wf8iHmvKcB/fexQ+axoSHkgLC/chrHhpZJnAOV6yXk2J/43oIxONU8NcqIE4yx7WxljCrZsH4D9DZsXtsxpMIoqSiNIFIJ3SWlVsF+ujGKuYina36RfiNJtLx8Ix6up9twOIL6TEETW6TZHGq7uk4RkI926DFoKReqUVikuylighwmrup+9lGJFvcBSm78YrApVS2CTqmt/NsE08G1XstUp0RsMoWzjnkIxA0AnF3SpLUKzGS2YCEIGlOILBTmgPp2QuobJLExBChwl0vQUbyZ/HMJkmMAVT4I7MAACAASURBVJzffULelY8Al4AkZmvReZglaCNRL2opcxRAPlfUkxJcTHE9rhcVbViyCn53IRxydFv/vdv7VEO/IUH1Ptt+eWrzG7OhsxPwGWemtj66Zv7E61iCLZ6nUv+y4ON4jVVMfF6FmPgLCCyob4irgIZOeVCgJCrEPsXDXvrqrFiBHcA9D0GfPdyBtXDo0RtXbKJE3B5XRVBdaRkk0pPez3ZVSxlP1tmcU/CURplMpaunW1pqaz/mOqrXLpcidqVgkojOEHwPXAdKRZi/AMaOdj//+Y19926uGurRe2KFPfZpOeyLbT/6pfXg49DQijMZduRCdSKlyNWq7zsFxypy11DVIUQOffWrqRpJtbghxzIqv5GkYqS9OmkX3M8W0mWAV7jrZTIJF+RSqXgBpXVtvIuuMcf/qXe9UkDMrswmmaJGmmACp3BvduNSSrClZYZaKwooySYBTmK+ZRs0A0Lc15w/myQxUkVFRUPN57c4cVyYH6IGzlT0eOFKe9fZmCcJBkHuOp1N95sFyw/aYfDhdbbgUDFAPJey3WAR3OP97CzVzA4TwaH544Pr7IoVZVqRthvPklrgSFI2RmOLbGF+yJ+zGaHCOwMqW4vEGBDf4y3OSkWM0sTEqaGVSMa9u12is9VSQAhFFCCdXSBXZsrnNoTgu3iN+Ja74N+O3dqvtqWqNqyq8Ycd0v6N77Y//jTsqDMWhUxGZVFFbaEtLrMFnuvjJSfWdsxd/NfsKYmnFTrvmLEqRUXCQz2bRBDUIkDoLMDZiCRGBW+qLVwCX/h3GDjUG7z/jtv/5uMdHDwYRsyzAogXc+xmMgbDIZE+Uq80UJLMMoaaT4k/q1xO35XSiwz2mkIrRSh2waqlcM/DcPzPc4ccUzdgeGvVkGJVtde3Nr//kW3f+OH268Z4S5ZCcwt49EgVVR6ioZ1jueZWDQK1lc6OJShTDc1uelpnK01gtpfq+FfR2ap/zU6hLnNs13PV0zZIDxkgqVGZTTIZWEpl4Huuh/YE5icLSqgqSRJjCmcTiMFvFX2qxA0RUBWBC0xpghmI8NjLIn/1klEFGFoS+AfR2QAJFxq6mnirg3izBxs0ERzky0LpPB2JIJJfQ6aoJImRQBRGaBRHh3kqkud9BigkbqYWiakQ4FYxsSKgBwBiCCTj2AeqfiMkDTyRmeFT0zS/Un5pLBkgUBHNJTgnIPwr4MaCUnpdV10xJ0daJcsktdSrqmBQDEfqrUQxKZiqCw+TMmhUyKyBx0mVasmCInuCxGEMSwc1Wc5UnYWga6zQL7jOLhnrVDUNT7BiAmCmFRq4PlZQj3FQXZQ5n+sml17oCiyKwsYdMPEpOO6/ofoQdLRZVR0M2Nc75r/g9rtg62awLDoe5oU1X9Nihc0PfSJw2skWViIbKHbJJ1NyhRLvM+ueZRGjJhaIiAKBmWk6rwLG1B4B0uO75h4aazi27qEzI1qjs4dP8Fo74bwLw933rhswtO3HP4Mt28EPPFxp8zk7np9JvcTkAdruqbcaZdwxk0vPGvHYF8I2Wvrgf0NnJ/qL5pR4V0oPLg5QY3kWRQCBejzA62nbd8CUV/0LroSvfh8GfQL7qE819B0Gg/aDo74Ap58FTzwJS5ZY2h9q4NvgltjWD5FQNoUR2hvQbIix5J2MjM7WbVRdljl0hAh2wXm29KmuziSRXbbRJ4yRpJARriCsRCjF62kqEmfmWrTYFICOZbzFmRw+Su1x1ckkBitAVE7pesE2hFhnG5FCTx2Ixz4PE2RpnV/niWNUElUXhVGCPhk8Y4Y0pIcAV4yXKaVGa086m/hc8gg+O6WzdbtUKaCrVaL79UBQp/6a5RI6W83ik4DYcDdumMxQ9JA2CdFjh1Gpotz1kipMIKluliTJnA3wKNNjzbZslokqmjqGTY4RMZ0N28LAswAlyURGY6LW2Slef1+gKtbIkXg/O6GTYmJqBDBGIGTrNbOlUqn78TxYiktASkmMSYQUHDPJzE/heG9cJ4ncT2CuU3tEpocMRB9juArmEjALSmQygMNenYppNqAMYQCd7Z14nhpCdx4mToGf/8bd74jWPtXFPoOdgTW5Iz+37aoxsGAZ+gtDI3IPt8TVWGUvK3ShiyzFUZ0j4xkXkUPW2Z7220WVakwyRuOs2NRhvMLTwFw3QW/HIRqmztZNVgcBbAeOZ+sehB6e+kaubcGk5ztHHLq1ajDs+0l4YQY4aDRAR+R8VJkhZuDh4x3Ya6mhxDl1dIVulSTiQ5a82TGoxq8WVViIZavqLzIP0E3jGYnlQFsOlq+Hh56EU8/sPuTT9f1q7T7V0H8oDB6R3//w5q99q+PK0fDKDMh3o9m8b5OVgDSBEUPqSRQ1hvhc3R8x6dAr/zt8np2EFI/iFJxKoBQ7cRsz+W3LxvehzXjmIoMmKpUUjzoAMvLHLMQKIElqxzZ0tkaPZgB6pAgos8YUtpIkmSlAbyJrnzZmkuRPwTEQiJssmU0IOqzez9Y/sZTk7wF4Qi4JNVjMSlmGA+C7vm3RnMnkZy5lSmZGgK5ppXW5iZKJJ4crrrO1FhPtnNDZ2AD5CMReWmu2SiOqyCTFjcA/QGfHvUv1ssxKnGebeBq4xQVN6jM1dDM/iM6WKoQhJCYVyOpss4NTWEmSCUTjGXOqpFLtlXX2zoASOJLZxEenZnV2eki8JxGyzMbAqSM+jM5m0cOexGL6mBRDP2LQ2Q1z58O5FxcPPrqtqrq7qhb613QfcETjb8/G+FwBrbnVx6QAmnmrS9g96my0G6f3lY1K/wE6myfpbCochS4ELl47C1zw/bY2+6vfasTlaQ2cf6XTVkCX4KwLcTiYH8J5F+hs4R/NM/G4o7MttTcuqYpW+l0UpjlHUh66oU2+YCJoaoMpr8Al18Dn/qN18IF1uw0v9hsa9hsW9a9t+/SXdvzmd40PPgLr14FdoJ5CUOTWG5f+ps6mZiOe5I8m1uV6uizdJ0jqgNobF9JxvIGt2VgMZ0GZTKXBSil1P9uMFwipWnixyNZbkj+VOVNXRZ2tkBQgHOgFlCQli/BZQ2IdXBGUWSoLKhtj5P/gOttk9SxWHAPocsDN+r7lstLp8hPn03qBkYVvoC39i+6Hi+TeO5mftZiSpZC0QQvUzhjdGVUXl9UrYHwlke8CyuuNEpCLhtkYIynIdefwwjTebkR/CygC9EOQHKhYi0DIBljk0fMseK20VCjxPTbJybt5ruP6dPNE38mWegmNxBVtScL7cPwVJHPdOV9dzdS3unUTKr3NJ6Cytejiugq+e1csFD0nfubP18AFAaMWBbwixYz8qiJ2llTMF6VREpBaYuDZeqnVVEQaFdNHQBXyBd/1NZGxagOTnSGCAK+cuZgv0jOIqlECXALSBGmUJHle4HohPvHoeToy8L2Qv1EAVsl5+1374rHw2WNhj/3oCazacK+DnR+fGDz+LGxrxQtFpOx8P4iQbb2y77qBHaBrD1phRx76XgndMHDDECGjI3J0uam/bJcrrzmpseAFfC3KjOf+ws718IktTsLWUUz8Vz+szddzC/kCBeTVc3o2GHsz8Fx+rtGL8HnvMnpXca3AL982DvoOb6kaBAd+eu3SteC4rueWPddDOqN7FWqy7kfHxvvNbBBOGJL/FWokMzCPR+EHCcj+vI7REsDg/8APS4WSa7tRiA7P6Sv84Pp+CXvKRQsDnHW4+EY59qmPD346PvqKcfG+FxRy3sIlzl/HWz881T3k886g/fGF8qoatDOv/iR894dw6zWweB401vmO0wKR67mO77mBT3sm2CrGzcdjAEri4xKDtRJv12pUEWF8CxiX2kT/dBMqsLTmw3gocQwN6gr5S4VSuVQ2ahT6KJRYOmWYX4GS6iQgjWJql0tl7l/8mRUCLLSxXdl6003gqxkJVF3fddxy0cS/Ui29ihoDcyUEVBWkU3zPJ/po0mWbUAG4zkz2hkwHU3BJQ2jj3S0Vi77n8sP26nl7JgexEI40/OKw9/GWBQtzel+X9opo0zeJuTEEwiDKd+fZikJUG4JykRlZtaXvZ3tuwF/XQfo6tuPYjm3ZtCeDYfriuE19dZLKrPO7rhN/HdvpbO/0HM+xHQZuW5jfKlvytcsx5DgyU53U7tiIpMDJdeeY7SSDVbbKpXKpWMJrErbjUI1GpXF1ZhGuOhvT3tZuEYZCFqus8JfMZkA3oUItZjYOO5bT1dFVLuKw4a8ubtBHJ9lSbyWKSUEBxQ3v7OiSGAlkMwvwOKlSLQJBAp0dneWSJUQ26GxJnt4DusYkxbCxdrlkdXflrHIMSmeuQJ9KSY5luZZll0qlYrGIuJVsx/IDN7LLsHw53HEn/Pt/7hh8YHufWrvf0GDwfq3/+f3GO+4N16zDzXDLhnLJdcquU3KtklsuOaViqVSwynnLKlh20baLtlUoW8WyVSiXC+VysYyMVyqXy5Z8c925Qr5o4lYuYbZyqWxGcjhOKqkGSowZUAVLllWyOto7mdUT0CgJq8BA2S6V3GLByRfsQr5ULGypg8OOXlY1BPrXtl99PbW0ZFslxyrZVtm1yh59XeJzu1QoFQsl2+JxpAa79IhjOTQee5IPPFSTPSv8TIHuzm5U2+T5JMkn1FuWY5d9/fUsy7boU7Ysy3Ysy7GskmOXsI9taO+EtZvgxVfg0qvdb3y3YZ9DmwbUOlWDYeBQa+iBLZ/5t7YTTy3dMw4WvgsNLWA7Hm46u47jODbOS1wCXChbubJdslgqaVSFtkkMsV35XL5cKithmBY1Md9KwSyobIxkti27u7M7150zYyS/BGjQJYQqiyxzMJqZGRrjnOvO5XN5PDW3XJe+5ZJdQk7GMSMd3TuoLHCuwipZpWIp15XAPytqBFuzFmlyT8BVF5WtBH20kIxL9SrHUHDpIjQkeejiSLAtTCsWOvP57mKpUMLBr78yGi0cxvjFD/4roQSwy2WUPHYZgeveQZDSqDhQtjs7OnEc6a+oNhy8qChtu2wn9sZlx1zt21RY78fHXbKtp8xeeNdCFvWyiaEDUZC+n4217MJPhDYOeH5gfmgDKmFsbKa+zzDa5X6UH5setP/oakgbbe7qmvANjyT5d2ENURhVeMDg/VZAW1K4kqI7RWEEHR3wyqvw3//bMmjvpj2GQp/Bzm7D2o74Quuom2DTNvTUAQH59OSKxCxcc3Vie5Mj+TBYMgiGxJ9q71cis9kkSfZOhaQSI6UkiQ4dyAbTjBJYRkADIb8jeLQ9cqw7YCj0rYZPHt28dSsvrCHwI3VxnF7Pwsc22acK+/lSB8x4ZUvtuhutNiUDh5lKcpjK2wbZbOUiLvGV4bquIpON3L2juQC/vYwvbKMPMHq7HD3M+h5/yX8crsvrtsGDD8GPTog++ZnOgcPbqoa7ffaGqkHOXnu3feUbTTfcAW8tgrYuJBF6cQ3wgMBHmG4Q2j7ukoSheWho0DIVdPns4716IFVq53+qveudL7DzOYkraIkVv8UZ6l0W3G9B3fDhPnQfAe9/f3QfMhPbBeCRGqktcjxBCfwSPeVubB9k1szEjfgGDo8vZQ0gO+G9IxcBvu/+Xp+EzsahZX5MtKVWPeZjacWlzMx8UmKCIpmC58F8oinnmhkjPdncZ0MVNq6RyHSAq1Cn9KFjO4n7zXRihed5/zL3s+0E/llSiziQpGyMCPRMb+J5dvazM6CytUiMAfA97noZOSsHs5hwPooPgzBxkcO8+CFNZqwof9LQidyYMRzctkLF0N4JL70GZ5wH+xxW7lvr7TYMBo2Ao77o/fEK74030UEpDVM63+XHrwRpqU4CUi/bTMk5VpJKnushK5ofGVZmJIezSRJjBoyCyjGnEVMhqMuq8RXBu8vhkE/DgFrYrXbzo4+j97HAp7kvI09t5KtWvMeeGoMJK5sU5rouhYb8ZLrJTx2wypZv2o3r+FSN/JPci5OLGXqblBYTKE2UXxW0s6OH19CdHM662tvh5Ve9P17R+bXv20MPcXcbBn0GwYAau/+Q5sM/655+Ljw0AZatxXfGfAAv8gKETQ+osIGhyLSeuBTAtd1dJWqwjZlPwt84i1DhQCFpMl7JTwaVyiwt0tLYtV3HcYOQnlxDp7DoBJC0Dqsg/aKxUMAEKNhKpMQQfDzy8AI8z+bqODULShouSRJjDnkTuMYfPvz9bKoUm4wt1zcLcC6H1gye6+LZkec7fo9f1/N9N4jcEJyQfOIDGrjwvRKhDAdSTaAqKovoZMGEzubbmekRwgWM8SPaVAJxERO6UYTtP9N3vaRXpJR0jyRJTLaFZgzJyuz7tUT9/9PZRKmP/X622V8Vwz11OjFSGITpSaiwjQSYWwSOxFMA2RtQEnUVYNFiuORK+My/tQ6oba8a4u62d7TvJxtP/E3ntNehrQOPS/HD0NC9KJkLmawo4xl9kNOlZi041FxBmN9oKd7P/ih1trIxNGpUQRMZCTNxoqCjA35zJuyxd0e/mtYTTilsb6Bpim4TjVylEPmMU5FFw0nMqrk+nRSLBUEpm2TEWGU7cdfLSIpB6Ugc8biUxi/eh5Ov8rXOfu/Z7zpO0bwAbA+aO2DRSjQyP+Ws3OGf3zH0gK7+g0sDhkQDhrQfeETTN39Yf9l1MGM2bGuBgo+G9D6/28KVSusU6aRVKhDbjQurCCtKjFlI+FMiJaZS/g+gs3FlJaAEuAQkiRpo207JcWyAvO+3le1O27PIVAOXjUhesqhiPhcIEsg2QWI4EOG7cOkhLPQROCZKHCkx/2CdjfcscLKCrAVOGEBra/Dush2LlmxdsLTH78IlW99+d8s772xZ9m7D+jWdnW0hPiGbbWZy6i6kUr5d5TcHhDgUSOhstL8UMumx0WOMCSiVmRlFInVgp+zGdQfH9aYaUPHn/+ns92SLf12dTT3+od71ItHt+VB2YeMOuPkuOPSozYOHW/2HQJ8hzqB92447Pnh6MtQ1QwA2RCW6xcXCyWVfnrHgQ2TwrpR2oeXQ1jlNB2hEoM42vC3G3PqR7o2TXCM/aHGFGNJDT8lu/sl48iVddBwDjz0B+x2xvU+tdeDRzgsvJ3U2a0O6tK3uZ7O40fyGe9e9+EETeWLIelKvFa630TqbfHqYsqVSmHygxn5cY52tlDircjXTYkz9KCzZBdsthfRUSksXzH8HrrwOPvvF7mEH5QdW5/sPdvoPdvcYVj7wqK7v/6LhwYmwfCt0FOn1MFNtiOZIRdI6O3HX1Ghykn90H0nTdIQSeqailSSAj1xnO27edXNR2Gjb2/KFupLVHUZWFPl0mLFLdHb6eE5zUYWGS5JJ5yzFmD6asRNbcQJBSgkoSZIYgaMYnq2++e5jFAR2Y2PnhAlzn3z2rScnLXji+cT3yckL+fvE8wueen7hs5MXTnph0dPPvv3Q+NeffOqN+oZu1wvV1QTBpKLOxuualY5fzVI9+huXoW62jZsnMSYgyS+RKVoQ+yb2xk2GzpaSWkw4UovBxxikzFEYxetsnZMFaGLDipO4Rp0tFm1Srznt0Oipu15m7ZK/F1C9N0EKyl0vgS/ANQLxyJckAS4xkjnFFh+7zpaWpgLZ9qYy0M8PqbMtB7Y3wZMT4bjjSwOHNVXVlPsPhZp94d/+v7bb/hK2k8PLQo5vAeFLFqRSCDNhFcYTCR6SOw4e3MoFByZSzgo6WzeHjN71+8oMTTpL54lZsWKSRHLALIV31cqIg/khrkAdSSulWDJSDP60sKHrt0b/cXwb21f/8fIOC10fyfoshsin1yb4XRtmo/FdC9OE5jtWoPxp06k5bZ+0d8ADj3k/ObH+yM/lBu8D/WrRyLzPMLdPbeMx/2GPuhlmz4eGdroFJ2OtB53a210vU57oXqO9dzWxUP1O3YrxUpfRgI9EZ3NFhJLleN2O1+x4m4vlzcXytrLdZLt5P3DRdIAGhGRO8WHMI2oUpPmQWuHh/ead8IOm6aPYVX6aIs6M1OH4rhcTzcwv4yWVlKKzMV7IHsKmrW1Yvqz+8QmvvvnmsmVL1y1fumZZr98Vy9avWLpx+dI1K5etnfbC68899XpHq4t3BlNEM3pWghXuemnBIsV7WGdr6CyA8K+0WZ/YqSTD9kR5OJIYTUpmxygE3hvHujkJhV7Sj5UkGbWozGabM5BpDyNwbIveYCD3wrh7GZCJAN6PoQ1MagNedqO7JyGeWfD0h503Y0WCkrlU0tRQb4RINxutEIKaAd063d6KTdDAE+96pRjLyIMpVC8Dj4mpgetKafUjhKKOT9jQ6SRe9CR2OIUIunfMWjR8o1EaVLlUNp0WKYcYBMQkC4cT9er2SqSuJWaPWGfr6gQmlsJpsb4Nif2PK60In1UGFze14JkX4ee/82sPqu8/JNe/JtxtROtRX9p+9bXRO+/QaRNRr5S3+LVKvg6skBL8NZL0UjN6S+GvIo4eWhipmYcXoJKT7hz6Kj+1QpKkLRxgIMpWS1WknJHF61rhCuov5VNFbDCZStKVlXS2Wh+HeNx2zfWw+4jOqmr46je3vrOE5QtNTVBRs01NSLef8C6WOVJigzJx8JIxH9ONoqkDPTfCLrqk+Rwol8rsOzOOz4BSSfgCSPyJn04JyGNaEOBJLHUE5Sf2CEKnXPYsB5GBiN4exf9RSHvmbTBjFoy8Ho7/UfvwgzYOGGb3q4F+1d4ew1oP/1z9KWcW738YlqwAfBiPNiPl2jYKA2Q8JLRjlwOP3iqNByO+bYON1SxhdjSKIeEu6k3+iUYtwuRGoEc/aJoVWdnHg4jrFQhGFTEXcSqd2Rdtv6Xk1JXczXl7c8HZUnC2ldyGstPt+nhUInAM4ay6wzDgyMZIW/BGQNnQ2QRQ58+oNGFdzVexcDZiNGvhlKK3N0KEzroVcb0iz1m0Yr3KfS/e3cQ3f2Dqy8vemLO2ob65qaG5uaHJ/DY1NKa+jfVNTfUtTQ2NjTvqt27Y+vQzszZs6oqR1ywtZIkDPfhBM3nmvd/1woZxHZpMqj26Yk4VoCpzJQbt6V0vKYKBSrUI8Gwg4jd88EgxDAPPsUv41iFqa5e/YegEgR0ENm1gknFJhHdavTDCbwQ+LalUP9JIE3yy1SXe9dIdrGYqGnMplSWdJFUOmO96iXow5DKWYvZibk72CybxmDS6Jq6IUtM6O5Vf1xVjLqB068zej4HrgqUivYWqMVGUISDZzKoWhpxtl1StA7HO1tUJTG1sRE9y6NTQjxwfcjbMXgSn/LZ4wKdcXEcOg3613tD9u866CBa8A1bBRX1FTs0iD4q5Ip6nKuHEHRyFeC016fuWh7RGDBvC6wyqWtqlAjpbGOA+kO+RztZIVmQ29j6BupKuk6LQxyu/NEVgaLo7DAqgHo0fCkxOIFQtulIupSNZRIXvLocDj1xZVePuPnzrXfeDg+7HHXp0jCayVC/eE3XU+9lZfouR0U3Oto5pwrpK8ksguzcuECSgkBe5RHUJBN4JUE+KSXu1bsBbaja9cSJrAzo0wTvfvh2FeOmubjNMmQSnnAH7Hda957D8brXQdzD0GQxDD3Y/99XWc85vmz07KuTxVVZ8Uh0FCBpX4b4L+I5VDFln66qRMzU1BEkJpBrV+3jp6f1sAcIBpRt0pam5QoonBRN+HD5f9nZ0lbfk3C05f2s+2JLzNubdTTmroew6dNog+VOVmrVIkmSWQPyuF8s3opKMF8kmgSyobAxnZsVRUWebIquCfjHljxbporPJ8R6+2vTEc/Nnv7nBcx2aHarJOmJe8Uuv2qCVSwih441/cvqStS2994tqcuqNEC1IuRYhy06ts7k+LENQhHASEHDZmDiph7c4pQgGtDAyCa0h0GRWZ+BI0tl4v4M8PHi2VfI8NPjk6x+4yqb77XjhH0GzF6zIR48XkReG9HIx2uTz/iZvXwg+ut54AvgvrbPx/Wy2209OCKS9aivFnBDIyNdkr9QvMX0+Lp2tzTLJrRUJAh+gy4H1dXDBlTDkoO19aotVNVFVtbfXvi3f/Z/6mXPJBQcbmon/Mh+KuRKdR8ZTcYiQh/g6k8kPMdGYREQfjmSXMukMtLhU/py1QO9JRrNTkZD8e5NPFtwtUmsyozrBR9VF/vzjewemQFSl4p4yqmYTrsCN4JdnbOw/1O0/xD3u2+6WrZRZT765il2lsxGa5ihpBesknNPoCYeBpF45CD67UmdHnoNXCaLQ8z0bbY8dNFhbtwmuHbvjM19aUb1P055DYWANDKz1+lQ37lG78atfb3n8CWhohJIFHl4GQ3+0uF4vO76j5mS0zYfLh39OnW0+f4IDn3zatuesre3FLTlvcy7cko+25MMteX9HwWsquN0l3+XbE8xXIhl0QPpROF9iJPC+dHZFUdMTcFb8gR8mfIuytjJn2PEWkdryUXwoS22zCOqMkO4hwIRJC2bP3xi4Lm7MGuP3PcO+Zd/7yJTlGzqIQ2I2Nmc5MZBdqLNjPa9nIlxNloLZGFTzep6r7cbVHib2SnqeojIntlVjCNmtJKQqVhriAwa2ZZO/M/XSH066tfbWFbEXaDQHxS9ui4YBinysUPCM25vsnsp743o2FJM+WUookGiUzqMRw9rZiQ+rVPybhcy8pRiLZ3kxxVSnGCRVVdNkK8zqbN0vqr0xnd9fv0gD6Y2QxLZe3DrdXqESJons/jDrbPMqDu2aWA6s2Ay3PghfOK5pwN6tVdXQZ28YdkjjN4/fPG481DWBQxZjis6MGO8N5kpk+pAkBG63IqoJ8mpRpRg+o7N5xzjeN66os2WPUQPXVSiBYl59Tig5jaAIAtboxUIx1tmqcxGU2ps1SqmCOHpILoXghjB7IRxyJPQfDLsPrXvmRcBbOTRCNFbJN0I0tLiLMzHZJGZpjkewuggHrDKOX8X5lCQQJMA55acCpeGQl0c1v0kB5wck8H6wzqxBobrFMH3UvjRdE/VcqG+AJ5+C08/If/4rDXuO2F5VXegzGAbWBNXDt37pPzZdPtKfPhu2mK/V6gAAIABJREFU14HnoHq2y75Hb3go9KjTqRMrz1Fi5tEoSbuyxKG3aJNvhFSQnyTGDAlA6xGDzlqBqbdWRUWRN9vObru+y95eiDblYXMetubD+kLYWow6Cl53wXMcfaQtfGtUJFSNm6AbJUkuvYulCM3yzQDFbCacKXDMJkikwOQAH0D4nq+um9KgVpk1/ytpw9Wb9TKeOp4QUHvjrLN9gEefnTd7/sYI74i+P50d2M79f39pxcZOY6jiChPlSYY+AIBm2poV4wwso3T+HtbZOlmrGd3r0jDKoHjOkDjZGLOHPqwNWkru4zESun4IAxzngRdZJVc/TEQb5HqPQua8HAgDfKTP9WhrS3UCa2xCNlWL8TOts6VtRh7hvDhg9kEvOXdeZ5vqvHfgkpPeZ0usswV5mRn0AiqbJDECB/DdLRxg5scEbjAVsiNJHCWbuAhHptSh/tnj3ngQhQ6aFPHyrKUb7n+k5es/sAayPdFgqBpcPuZYuG8c1K1nXV2O0PIqoRsQjQDX2b3r7HgrQmMVi11DGvIiRvtVkBkk3lVDnyHCA3pBmdDHtGJjsL3p7CzFUutsnYF0tpYRwg8aB5o3ITGCCJ2znngiDKyxq2o6f3Z6444GrbN1J5JHRv1WI8PXTcBGyUcDj1sqTEGglMwyNCUXjd8I4d+63hiO1JJKMqpm0sWCT5IivD+Ne/vZD6Mn/MlU8gFcknu+4xTLby+F2++D438Ke+zr9a2BfkM8nAvWwn5HwA9/4t1+e7T03bBUAI+KkJcXlzpeLTNSXcwt4vOOHkmXwfPD2qBRu1CTkcsKUxfiTkEA5XLQZUGzDesL0eYi7MhHbUWwPHJ0i/7p9cwmRXzubsFWel9idMBzduItTikuAWGeisymGoV1BF5gW7bZLlF7iiuy/GMC16NDLfH1Olt0Nvobqth2QTUT8C3nvkenJnU2bpspna0pI/8r26AxZ+pMPetszsEophqmk5TA+rh0Nm50eBD5aOYb4I7W+jU75i5cO3Ph+pkLN/Tynbdw66KFOzZsyJVsuu9OrYubmKG7iIz/09kxy8b00qz0njo7zkihLGtRjDBVKmDq7HhYcmdFaHroh/Dya3Dst+qGH7S5qiaPLqaHePsdtnbMTdH2RjyARI2LYgcN02Qwq4DS2cWedDafoOCEpGf2YITx7JmOn3EyzRN1CgR0v7yizk7BlF3Bf4jOVsf36HHdhieegr0Pra+qcQ4+pnP6dADbIFSI92vV3rXZlUIQiZQYCQi3EAH/GXV2rLAD1NV8YoI7xkEQ+rh3HkLZgY4uWLAUzrusOOLI5X2HdlUNRrXdp6aw535t+x7VeOJJnTNewH1m3wHfK2oVR3RhUnAtFI4iIPaIxJwN8wnFRLsIVT/8XS+l3pI6myMJV8/BeVubDRsK0ZZiVJ8Pu4o4CwkcVNu4MuJ+rDgKBE9pgsTowEeis3XH8YkSvjtX8ZNUeypLNpJFEM+/yag1REWN6+w5CzYhCSq2XZqcCfiWe9+jL63YqG3Q9NbLx6azYw4TMgnSEmMM1w+7zjY5HitSxp+OC+3t1uTnZzz9xOSnJr02YfKsCZPf6OX71KTZEyfOfvTvLz46YeqaLe1kE6nRNbtEx0kzEX9pjqS+r4DmMKUqzJ941+sj8IPGLfpnWGenCKURS0XLqFDG/MJRfuiVyOiXj5SoI4IQr8+2F+DNxfD7P7Tue/DG3auL/YfAwNqO/T65/eTfhXMXoK2viMUAHRwYekjozzo7XwjRp6mO5cMbPF8J6ciSNmZCNCTFb2h8KcalHWY3QEt1n9xIIabyDdExYY8626SCZkKcBHBjM0tSlZ0w5ZUTv08f741zDnIYGe/FcduFpGRvL6wYBrByNRz3g/Z++AR1dMXV0NWitQhRexfobMJq1+hs3UuJIUntVQcZJkmp4b2tswUaqmuts30IPVwM4xGBGvioudqL8O46GHsHfPW/Wg84cvvu+7RXDQ2qamDPYbn991317e+su+c+eHcltHbj2QLdGOf75IlNeMSI7WhM9cxocAel8N+FOjvE7Vnpd9ljDF0o29BhweZiuLUQ1ueD7jKpamI/NSwyLKTEo2Ar3CUxOlBZZwvlzQDXYsTgEzLFUntre31d/aaNm9auWbti+YrlS5fPmjlr6pSpT054cvxDD//tnntvveXWm2+8+aYbbsLvjep76y23/vUvd95/37hHHn500nPPz5o56815by5dsnTVylUb1m/YsX1Ha0trvjvvOZ7iHD50oHMGct3LOnsj0UI3Zmf+R+Bb3n2PTFu5KWfsjX9062zNPXwqoDo4SUp1YMAH+5Q/G4M9yp+IHvRmCDpG1KEKiEbUYis1IPEn8QSvafjnmjUNEyfOnP3G4rcXLVy0cCH+WVDxu3DhAkpd9PaCt99+a8HcGbPenPDc/JaWIsIU/hCeE2R0zC7Q2ZoYFf//P66zhcIJ1tKTd81awkJ80krb0RFKPi9E31S4QaePlCAoOsHcZd0XjIIjvgy718BuQ9BWqOZgOPUUmDoR2tsiNJwxPnwrpwLX0Sgt5AvatbLiZrqQ4Pme29VZXL+hc878rTPe3PTagq0zFuyYMb/e+NZhzILtMxZse23Btpnzt81fvH3bjm40Ev9IdTY3jbfTP+DeOIHQrO5Y3nVjYa+9kYz/+b32JWvoIpwewj49DmaQk4J6dMTxEiMBDZ/z7AKdrblFDVuGy52mzy/jEU210+VdfJ0oEZ/iSfMnv6+qZ0vIOciqKOxI5QVRAJ1tMGWKf9Gl8MXjoO/edlUtVA3G690D94FDvwAnnw+PPQ8bNxdDPGRwwwiP5OSD0LQ0Q9DyoQqQRTOfXbI3HstPmQ6S7SbeirQCy4ZOC7YWg23FcEfO77TQ+MMPqNlMHKa89KwEBNtsjE6qoLN1Ev5nanAMrTHq6+rfWfzO1ClTx9037tZbbr3h+huuH3P9qJGjrrv2umuuvvbKy6+86sqrxo65/vbbbh9337i/P/L3JyY8OWnipCkvTnlp6ksvTX1p2tRp06ZOe2nqtBcnvzjxmYkTHp/w8PhH7v3bvTffdPPI60ZecfkVV191zTVXXzNq5Kjrx15/0w033XrLrXf+9c4nJjw58/WZmzZu4qvkIYReFKl1Nh4PvJ+P0tkvr9yU/8h1tliH4QqD9vrUfJ+7jXoFrzHwNiAZZbOoTcUo4ai7YResszVDKJ1Nu0lvL946d97apsZCZ2t7R1t7e1t7W2tbhW8LRra3tbe0tDa3tra2NW1vbJ88feWWrS2JftBVyNiWtc4/r86mfhE81bCkuRRHspjp8bCEmyyCQ0SJSQrdiapPJbNBu17Os0UTxwE+EmbBoaUq4qmZih+CxCsTeqMyKOI6myDg6VpjG1xzI3z+uKa99m3aYzj0q4ZBI5q++cPWp5+H+joIeF8Xr9OiACAPCXrVyDD5zimvwdF7dVjI5zM6OwwDf8f2lknPzZk0ec4L0+Y9N3XmpJfeeP6l2ZOnzjG+sydPfWPyS7PwO/WNF6a+8fyLrz/+xOS585Z05108O6JZx65fZzPxe9LZzBW0HRfvxWnrG80kJCsxUp0dvDYTPvOFlr7VMOzQ5nsexgoi3hIEfINnF+yNkzhWC5okF72v8+yYkfSaAWPwzRJ8KZLlg5EHrYroASXHiGQrTv0XGZLsYNi0ih2VoyMszBDfRqEa/MBnxrE96CjAohXw8DPwPye3DNl//cDarn5DwoFDYcDwjn2PaPjGd7ouuwZmvwV5C0/isMWi/JLTAjXCeBH8sejssmfb0G3B9oK/oxDU5dxOK2SdrTa9uL+y8sHEVoSGIRk4+B46mzK1trRNe+nlsWPGnvCTE844/XdXXXHVPXf/bcJjE16a+tKc2XMWv/3OujXr6nfUd3V2lUuWi4+xkQdw9PKNX/VmJT3NyRagIb0ky/H8VCY+NUvPS+a6c63NrZs3bl6+bPmb89589eVXJ02c9NADD11z1TVnnfn7E/73hLPPPvvxJx7fUlc3/qnZ8xZtoUlWplW9REQQWMF9j7y6YuM/RmeTSNWv5CrTWTUSVJI8cxunyosnmFPmcdyqD7bOrsQN+sAPLz+GHsx4bdX8hRvQ+kNPinshIw4ZPElCznIjeHHmmvXr6/AsVD7Cc3qCIuMf7d4lI6fK8CNJhI8oEDfwG6DFQqmQL+RzhVx3rrsr193V3dXZ1dWB386OTuPb1dnR1dXZ3dTY1NnRme/O53P5Qr5YLBRLxVK5hK/44ZNBLvoQpEGvh71sDxDO6lYJaTXUbbTgIDsXDuPmkrQyDsgIFAEqMSYpuIAkSeYYEJSzNmgagsk5HGbWUo/FUjaOFxZinR142t23D1YJ3QkFAJ15eHISfObfV9cc1FU1CHYfWtpz7/qjvth5y52weTs+xhUG4Lvl0Lch9HBq6aMLUjXbEIWNppusqUiPhUEhnzN1NsnyqFTyp06dM/mFNxe8vWbRu6uWLF+1ZCl+ly5dtXSJ/i5duXTpiqVLly1dupwCK5YsXfnG3IUPPDRx/sLVbkAaKowc28HzNjzSUf5JrLJVKpaL+SLxST7XnevqRCbpbO/saO9ob2vvaOvoaO/obEdu6e7CpxjzuXwxj4yBz8vSZrvvIWMk9saFOZkN6KqYYl29exwPT83D7Dfd9+BXp2zuX1PsW1v48clQ14jE5LIo+FLnhcIPMi5Sh7LMAMItlH8XrLOlFSSLuGfZ2o51Npv5pLgOdXbZTkVmTAXJLI/ASk7yK4OvKvv4JLrn+jh5cfFeqecGReS1AG211m2GV2fCBX+GT32+bsiIhgE1LQOqnQFDYI/awhFHN/7q9B2TpkFjO94Q45UrEpZpq7sApRPpbLa9MMYWBnfhOjs2f6MO4l5yyq5tR90W7Ch4dQW/HnV2oHS22Y9mp3N8xd5PYQ+AOlt8qmiWCHHTu7x1y9YnJjxx2m9O++53jr/s0sseefiRN+e9tX7t+uamZpS6OjOClEknQOKVPIOGmZrfR4Rj45vIWzZtWbZ02fPPTxo1ZuT3fvSjU866buGSusgnG7SdAkbYRBDYYVZnq4t2ZqM0zLSI5jzJplW2QTPW2XjywRIhOz9VExntzYe5LZVfCUpSJIU8Ul+EBQJMjg0jiaztjQGpF1hxEVq8oBXuq9NXv7Vgja8msbr1vf4nIvh2AM+9unzNmu2xIiQtiJdi+YYPoc1mlr4XFAtFfDfID7q7unds27Fm9ZrFixbPnjX7lZdfmTpl6sRnJz7298ceGPfAXXfedfNNt4wZPeaaq6+94vIrLvnzJRddcNEfzvvDOWefc+bvzvzdGWeecfrvTvvtafp7+umnnXHGaWf8/qzfn3vOuef/4fyL/3jxn//05ysuu2L0qNE33nDjbbfedvedd4+7f9zjjz3+7DPPTnlx6uuvzXxr3lsrlq9Yv259Q31DrivHE0x0/cE2Dh7eOceO4Hu9RMYwCPEigXz0wIu7QA+/99sv0sW93M/GWoybISlW4ZUHc51ME1l5ew6KxogeSSyUw+YOeHE6/Op0OOBwQB8pQ6BPDXzmy8VLr3Lmz/eK3RC56PXOtQPP8dG/DnaovqaVuUfwnjo7jGDbNvepZ19ftX59fWNLQ2NrU0Nbc4Vva3NDi3hHampoamhoaGhsnjlrxQtT5m2vr69vbFy/fsPit995Y9bs16a/9tzE5/7+6N/vu/e+O26/48brb7zu2usuveTSi//4pwsvuPCsM39/1plnnfm7M08/7XT+nnH6GWededZZZ5513jnnXXjBRX+++M9XXH7FyOtG3nLzLX/9y1/H3T/uiQlPTJ40+dWXX501c9aypct2bN/R1dnFDMzExLmCF7iOy85h9JQ34dwQu4AlbwAvPm8fdEShbzUMPxwmTMJrYHRCATt7PzvZ0TKoaQirZasZKfxTwadKL6BEdBjrbOZ5NX4zZfll9574MCvNzJwheX3ANXzgocL2XT8I8P1PfiOG/FKX7ajsQnMnLF0N9z4Y/fDHuU9/HnYfjg+I9R0Eewx19/8kHPtdGHkzzJgHW5vA8sldG919QYKQgOatgtAw7DXpg29s9DJOqVR6/MraifqRx3tCStOcMojALjmWFXaVoh15t67oN+S9jpJv++CjAwwSvBpULDR0L8RYZWIkyXM8EqHYzgAZ0lu9avXjj0245uprzv/DBX+54y/z5sxbt3ZdW2sbeqFOPcYogusfGPBct629deO2bbfdO3nugk2Rr+6n7AQKSs2GTnTvw4l1dkw6TUyhD0TkKlR0uYho4mTJVllnsww1JKle2DEm+i+vUkgsqgzZGCULdonO1tzAzSadjR4MXpm+9s35a/CsSFr7XkTtRWezLwslU4hqpUJpw/oNs9+YPf6h8bffdvvoUaP5O2rk6FHXjRo9avSY0WNuuuGme+6656EHxz/z9DMvvvDijOkz5s2Z986ixSuWLl+zas2WzVu2b91et6Ouob6hsaGRvk2NDfhtwr8qpqG+sW5H3cb1G9esXrN82fJFCxbNnTN3+qszJk+a/MSEJ+6/7/7bbrlt7Oixo0eNGTsG/95w/Q1j8OfosaPH3nH7Hc88/cyc2XM2bdgk/s7UpQI1ef/4fKogz2VYSGuCRK/RupC1tVqC450stNrNl+D11+Gii/yjjm7ea3gOXUvWWPt8cvuZFxZmvgEtzXhxIPQAndu5eAYV+rjViYxOIgJDim959kBzR+ZXnkiGYbGQ2BunnSLYur17yrR5jW3duDYKyOUlrePRP6b6khsA9K3h8TcMcKvO9YI1aztvvuXRK68Zee3I0aPHXD961BjmlrvvuvvRRx59buJzr0x7hXf8Vq9cvX7d+i2btzTWNzY1NrU0tTQ3NTc3Nbc0tbQ0t7Q0tTTUN2zftmPzpi1r16xbvmz5wgULX5v+2osvTJnw2IT777v/lptvGTVy9NgxY0ddN2osVjT6hutvuOfue6a9NG3NqjXy3hf2Aq9UzG0wPZxVR4RQzMGP/ifqP6hQNbh4+kWlbU1K0e6kzhbhkg2wOuE1QDY11tkmSj2EE6KGxzvlVK7HZF1oFHcdF9+CNGKo59XMLQGQJQnn1DQjd7hoZUGemgIWpDwh5NObku275AjWj8C2obkBpr4Ml43xjj2+Y/A+dQNq3arqsO8wp/qQ1k9/tenU3wcPPgLLV+I9eOkX3KQgV1A7o7PVMiYtFamzzMikblDNNBiA3QiGorPL4fa801DwWvJeR9GrrLNZ/Rt/pTdFJ0kMByLyEYRveNBn44aNd9159+WXXX7TjTe9Nv21uu11ue6cYgzaROFsH+dftBDEHTE/goefnjN34WbacdpJjBTrKJ29IbZBE/pUmLZ+WJ3NuLGqr6gL9SwAu0Q+eg4oEThCKPLD+y6NW0scSTo7iEKYNn3t3LdWmfYdce09hIiiAa2zV8TrbCNzV2f3jOmv3X3X3eede94vTvrFOWefc+XlV95848233nLr+AfHT540ee6cuStXrGxuaom93hOVcPtaiIDGJyH6XeNIA37loKaVShWRoQM88fc9v1goNtQ3rF29du6cuc88/ewD9+PiftTIUZf86ZIzTjvjpBNPuvCCi/52z98WL1pcyBcQGm1vKHsCXTe9NYMjnLcHcTArQ1a5Uqx3NfSwxzxaHCSaSU2uvM7WZXW1+n9PrIVbxwHOsvGWDW502x60dMLIG8r//pWmIYO6B+zu9d0z16968w9/Hj03BTq6icH4zFVELatqmSjgSSI/qMliRj3XY6yzkUDFAtugMbnpgWaATVubp74yr7nD8JNMLVCZ1FQE91/YTw+9XoiGxmEE69bnbr398QcffvyV6TNXrVrb3NTiufg0tVpUEQjZclBjWJNHaVDqO4mTpapKJenmOi4vzgq5wtbNWxfMXzD5+cnjHxp/4w03XnH5Feecfc4vT/rl1Vdd/fyk59vb2hkUdqJM3s2WYD86gQfjxsE+B7dUDfYO/Oy2l2epdXbghhnfpRFeaKOv5h7lVLDiT9LZ4vMknTPW2XGDew4pZk3KJmwLk5eBU3GdxXU80RkxXHO06pyYKoORuwnvZGFfkc4OaG8RJRAf1jB7lZwAPTVF4Om7zEEIxQCWrIb7HoETToHag3dUVddXDbWqqu3d93aG7N3yH//VcvVoe858fHGOvQcEaKyOPt6N8aU2ivg0xIgn/tXjkQcmop08OKigG3gUy8DUMzncG7eC7pJfn7Oa805bzu4ueQ6us2m2yjyT7rR0P8tZg/QPEQ6dWfm0TeHY7rPPPPuzn/7sjtvuWLVylWM7vHmJQ54+iRNA7Aj2m6r6hKdHnNPsLo6hbtPB5H99VU0VqlQ2UQAtXNAPGl7wfOTZN2e9teF9743jYMJ19vIPprM1E8ZDlXi153U249+TYNXgFANJY2UASIwEPth5tklaAc4BxC0IIpjy2qp581e/f50dWj5MfGXl6tXbfctrbGhevXLt9Fdf++sdd/3xoj9dcP5Fo0aOvu9v9016btKMV2csfnvxpo2bcBeafStKo3oPmNKw95wfOjXww/a29nVr1y1csHDqi1MfGf/I3XfdPfK6kRdecOGVV1z14AMPzp09d+OGjR3tHWg6Sx8UPHxjTmybk4HYrjVF+dRPjXy5WEYBwbwhIk91lkkLlitqMsdSRpXCzEHkueSZHze3N9fBnQ/CV77tDz7QGlgDe1XDfgfAd39QuucB2LwNXDt5IiiVCIYcwxhmUzmbZmZlr8Cig2YwQQQbt3S++PKCpnYHGybDwWRL3fzs/9VrW1+esbgjX+l9vWzuXR3je37d9rp3F7/7wuQXHh7/8M033vyH8/5w6Z8vffzvj69auaq5qdkqo6tObBQ3jY6io9D3fdiwCf7j+LqqIbDXCGv0jVCil75CG0Lb8DeutBhPgGR+JFSuFJDFbKWAVS75aJaycx+BoBjIqI61BGZIgPLdwHWSl/0Ucyay4Q/jCC8FBPd1xf+80I0A2LaHR9QcSejQoh/3YzwPGhrg9enhFVd1fuEb3tBPuAOG+X2GhFWDvYHDvcO+DL84B+5/ClZvhFw34EQ1oAW7YmP0jQohOCXLxb1xHqU0fPQoo8mQ2l1HhFXBnQgw2Qhr10YXro4H7d2l9u5SR3c5V3Rc3sCnOoXECgVDXPSSxJmRCH7U0tL+0PhHr7j8yjmz55SLZZ9O8bIUNmgYQDk//ZorLzr51F///rzTzz73tgcnbMpHNjm8KeE7MHifDiDy8BqnD2CRkqe7eWzihzzg56yuB6e+tXRLE4AVRK4boesB9OzB1+Nl2ampEUVuENo+qm2Ugg8/8+bsBZvRpW2So4hsFf8oQFmdzcdVsU1osnT6PFusQ4x6d4HOTi0a1KRA+lAH2EYG+VlGN6551HxfB0iCUBEdo+5YVGBEZM3Aj+CFD6izIzuAKbM2PPLIc489/NjY0Tdc8qfLbhh709NPPjt39psrlq/atnVbrjuH9Rr0SlI480s3tjK2mezpCLP4+woLSXUpz/Vy3bnt27YvW7ps5uuzHnn4kTGjx1x+6eW33Xrb449NmP/WgtbWtjACnx/ZM8aeGmDaH0h28JOopKWMyAVdaayzGR/JgD+NfTQO42QfGSCmsNKITuCjjGtshEmT4YRTCvse0T5wuFs1JBi8b8e/Hdt23Y0wfwnk+X0mHpa8B54igtSu0VMVGYio1rGQxXfnSiqGMMElFOrsrhdfXtDYkdTZ6Z7L/CaeWbW25aXpb7fl9BqdGWnn2UmgfoAiUpZ0jG3ZjQ2Ny5ctn/n6zHv/dt+fL/7zmNFjHvv7Y0veXZIQE9gpQRBAvgyXjPT3OtDvP9j99vca1qzBURBYQWh7qBCVWuKVp9bZ2S7uKUau8SUzGDo71WeVfuoNogqsFYPV3EUE9JzAtbXOFvZIsY3WuBXkD2NBZ7FK5ibxsi30w6jYjJMUk3sRPriCZzdtbbBoGdw5Dk76bfdnv9q6175tVUPcqupo4D75Az/b+PXvbrvuBnj5dZyq2uRUGRFn98pBEBULUcnG9bhpvEYNQWzZHSb3u9E6aUhPAVJ5WMy2fdv2LTvozpe7cqWuXKlQclxPvX8oIzXZ6ERzcdyQMMFtgoxUKRbtcePGX3nVtWvXrlfGjO/F2AH4UOi47xc/m3DnXbMWLnpzxsTb/nrnK2+udus73pm1ePrs5aHb3b5j/Rsvvz5jzjJ0lmTv2LBhxbJ1W15/5Z26DQ0r3146a8b85pbmgl9+fnHD8o07urbM7yzlbBeaVjcW8sW2trbNyzbNf33Rwllvd+1omvbq/LdXN5ADeRctRbXsH//Mm28s2LLrdXaKlBXf9eKuNHL2oLM1HyPz88mHUSbuJWYXw1yil43TD783ntYfyCAh6+y5fJ5tyKneg9Qa1NlT39h4/vlX3nbjbXNnv9nc2NrR3m1beiXBoxfVDe1N9Q6RU00qZdXJzkMwhly61b0nmWjI9CgEq2wV8oWmxqaXp7088rqR5537h2uuve6h8ePXrd/g+bjcTn15v1M9mpuskaUDWUKnZ/EJnZ0slRWs+l6Nh3M4vTvH54vdeXhlJvz2zPx+n6jvVwN9qqF/bfngo4rn/gnmLIamPM6RHWopAvFoeq051mROFt0pAhJLK9e2KkmLadReBtqis1+Y9gF19sq1LVNnLG7N6bUjSyiZ1O8MP3CeD1DEAI6dxR/6b5Wttta26a9Ov+zSy/9w3h+uH3v9kneXxI9zBHgvzotg0itw6NFtu9V4hx6x/dFHwSqDZ7uhjab7CAZZ/QPqbD56ybLErtLZ8dEOj1zu0whcx6+ss6XTmU48Y5M7cpKq4ZChPlEhmWRbTqyzdRIxoR/hI6+0EKSz65IFTW3w8iz445Xw9e/A4P3yfYfk+w4p9a12Bw4vHPDZzpPObH9kIizdAGWPTlFxRziAQo6MzvXekq5CDrapY6hrzKTk5rmI6DhAa0nUd47vuIERkJW1AAAgAElEQVTnR44bOG5g2V7ZcvHenFbApnirGFZihA6KUiIljOCdd5dfcOHFi99Z6rN9meZKg1XjIMNHhwzF9kdOP3XpG7NxyHeuue/uv0x8fs7CcU+d8e1TLrt6nNtVf+eYy0//xVnHfec3M1+fD03zf33GqWP/+tA5J/3+96eee9mfRv7qJ6fdefudO9rbzrnl2WcnvTDptrPeXb+2o9V79KKbNq5eM+mFKX889dKrzr7kJ//1g+suvf6Xv7n46z/8VWt3gQSiIicAjH/2I9DZRh8psZM6z+ZRlsnWs86mrHouq71YGOWVOqcLRSLp5DBDYiQQBRGerbJ9QRK4lFLaEVdC+pDVmBAIKBXYFTr7uVdXbtrcgqNpl3+YI70QF2uiUXqqJULHkHEiSY10ew3i72wSM75ZkKYgba3tj0944o8X/+n8Cy689777V65abTvo84G/+oASu0ANbExQJ9lxZ+lUQUbpbD5OS18KSK/G8HkKhIAuxuj5owAP/xx4ewlcciV84tN2vyHtfWucvrUw7JDOn55SnvgiNHWAFeCuOb6eHNETFny6xU9ZiBThxY26a5ueWPB2JVeqMNfULhXL0hZsr15nfxid/dKMxW15Vyk56mBk8vf7+ZA6Ww4sZG6kWWLJu0tGjxp97tnnPvTgQ60trbj6CfHZbC90ttTBr89s6D+kfY/arl+eisrD8SBwaG9WqWyls3vSwVmtrEY12lvrm4jYE2rr433o7AjvzZNbb0bY2Dwh2UGpuLUZd6jobKWS1byNOJBd3SV3jzTDi1ASbulRZ5dJZzMu6pJCGIUunfdLdXgrNPLRmBG3LjzYuhnuvN/9+andhxzZvucIu08tVNVGfYeW9xjR+o0fwLU3wPQ3oKULAlL6brGkrofpHoxVL41HmkvhUOU9WH6hRMZsNoDF2R0egGV7jounyekv21pqzS2ComJAlaUXzDks2V6fOeeWW+5gW87ErkDF4aCGsw/59vtO+J8/nfzrK0ffMHbkVZdcPWbFhvY590645YrR9T5smr/4Vz/+6YqO/MxXXj/1v7/dvn3el77z65fmrPfXP/Hr08+cuqCrecGa6//4p00NLafdNPnZiROn3PjTRetWdDW7k866dsvKdx+d+PxFFz8KnVufvOfan1z9tN0N/3vM0QtXN1tUO+5c0DX8Xa6z1UuTuhOFtdTFtoQoU0JYOLmyzjb0Md4XqnjZUXjFTJXLtZIqgdAP87k8DijykG5ylZRSN6xMhtOZKyzsPrTOtgKYNH3Vhg1N5F2L5ZDxtyIn9R4ptJaAaGsJSFLFgF7zcQ+hvKiY7cNEMiYApbL1xuw5f73zrgsuvOih8Q9v3LSZoQYBvvaEf1F7E8cQb/HKmJ4oVlbZaq2s71CVixYffKTi6adW/1rTB/gsNd7KwefuPHBKsGYdjLoVjv12cfDwtn6DYcCwUu2hDcf/rG3co7CtDnfLLQfwerDaCafTSg7TX7VeT6BKgjIhz3l+oGeE2hyMy5boPF62EJEIIWzc0v3CtIXx3jjTqHc24E4EWLm25SVaZyudLb2mM7wHGFHuonRNCOnCkjuToIur6YKeoyCPATi2s2jBoltvufWC8y949eVXy7ku8B0ygodHHrcG79fcv9o78hh/2iy8m+Q7NqrYjM5GXtnpL/e85JfjsXK55NEjGxLTUyAMNfuwT/Zk1YqzkL/43TKllhzHd2y8YivzNtJhYeCjH3Xl3T091zT5FpkHHdZ7uHsqQhJlGn2tsoOmkGQyxa9uULxHdy4JExwp5OGHlty+5+FWFtorwtbtMHkqXHotHPu99uGH7Ri4d6nPEH9ArbPn3puP+er2X59deujv8M670NiMjxvhk858qqhHkzCtrLkNnS2U7jHANyDKlmtjz5PO5lsSpK3Rmb8PdJOUJjB6ci/K2AygKSa5ThPFL6mvz5wzZuyN+UL5/2fvPcDjSq4z0fe+z37etbWWvOvdtey3fs+7/ta2bMt+lmXLkkZWsDQaTdRkzgwzh8M0HOachwlgJpEIkmACM4dIRCIJECASkYEG0LmRu++9HYAGOt5Y7ztV91bf7gbAPJqRjK94WV1Vt6puhfPXqTp1DmEGYmxs4oDFv9WhLqJxX9Zbb+5ZvvLA8VPZOac7DD1KBN05fDl955EhIVRZdPPb3/yHeas2fLxk2Yy3Xuq3lP1szoa2gTDqPrLv0P4WJxptNBxas8Y+7J65p+DStesFe99otnb62HDuvPX2rqbzeTf3ptSi0f6yC/s/vGRDEbTwn793r8czhod4DLOf9t64HjQpRCIZjY+N69eIdFOT9q8iKxNjNu54PCgxxE5YAC0JC+iTxHBRgTht6ayG40kS47PVWIzN9BUVIVQKq94Lh97VaC5daKieJ8dsEV0v6zaZhibGRf1ImpQe6hPp8F5BcigyYLK2NDQ21d83tneMB8ITM0s0Z0XyeTzBYJhMY3W9TKhtfCFP8itheSsrKBAMtbS2ffrpro+XftLc0iqClDvlCcjJiMqqaphNhEh1abQOCgUiMczWM7skQy0ZJnZIkhRBUkA7t4BcTnT+VOQXL4589Y/Rb/8++p2vod/7w9A//Gtk9zHU3YvCPBKjUSSiaBiJOiO+cb1GVqwU0rRRpJ8AdBmkLUS03SPtrUn47LG8m/ed3gh0lJZS9UzRE7hb6d44dKOC5GjIZu1j2FEMerDmMHXZ3O7RCbLBrwvhiHdgKDIW9HBezu2LVWDiF9R9GlJHfRIK1dRDpxJRGYYQGvOPlRaXzp41O//apcj4qCyC5JTRgn7wC/Tb/1n63T+MzFlq9gQQz4cxcEEGYI4e75aQOa+ZvaX2bx/OQwypYI44FA4JoGYBUHVqp6EkABP1U4+uJrj/McbA6oSXIlE49ASrQio3iYsHtoSw2rD3AxSJKOMDPxZDAoBUSRnGbIVgtorcOH8FoXCYJ8pStMyhFLgDIfGSHMWOyI/ANrkCeul5Hgk8GDoSFCkiypJvHHX2oOwc9OJb6M/+VvxPXw/+9h9Efutr6Le+hv7of4rf/M7g8g3hW1Wob0gSQFcQ7gqM3zGSiBdkuLZ0YRojwvQr9B6ikVWSgc+ORGG7CzbDte+Fw/RH4bMBobUcsK712KTp7jEvXvLJzeIyiew+6sfoJH440x8fyZ4xo+nW7VFyIiaGUXi88vDNE3tOecTxu9Wl82fPbK7vrG0yl9wqHRmsfG3Z1lbnGDId379/d6sTjbV0Hlm7unfIPWt34bkrn1389JcNhoaBXnbvO4t6Ohou5ZUe2H0f+dmSi0dn5pqlcbTwn/+t0sjBnFR3SKkM2tM8z1YhVWtk0h1wP3ssTpG21k2xHaBJMJtMekIEsaqxCXhcHEthm5KA5JBYlKw8oU4VmlVsgD7ZeXYYY7bROAQDJoEcY6IZG0gJP2MRST6VZAqDne2//OY//uVf/tXf/M03nv+7bxTVtfu0tBERBYh5KdKMxChBhCm4caG2vYeHm/v4VjKQEYyXuPSJIV/L88n/zzl15qUXX+loNaiSmISjpYKL2nggja9efY4PVDF7kleghXXpwRSbgEbH0K1K9PLr6Kt/2Psfvjb+W19F/9dXQv/7b4ZXbXBZ+mEnHE6+8MYAthUIIs3wp+8s+uVqy2sJdE1Hk6jvThIVCiQKeCsIWe3BvJuNTm8oBpn6guKyTvzR2ePC59lRwGwxzLRe/ttv/uiN+ft9QCZHgv2OP//DH63ZkOnFXBMRP4BeJrdSFJFnBs/MmtNeXJl3o+LchdIIvvamwJUyBWtTE8DmEB4WoF4UQSlknCas9ChUU09sBpHGBAWl8Gpba+tb775dea8aagEX3VFKGvq9P7b/zn+X/+Jb9rJqsFlFJW1BEApzoQTgEsVJJ+KR8bELYOJEiVEoHBHgQ+K6V9/Vej/wwzgffSDxY8aOcCaxrBBCvCBGonBOQTg/DE6QCWzUY5YcV0/lMglQYX4YYEtlFnFrSxgvSVuT031SbjjC64U66RkTZmSwqRlY5cRmASwdsL5UfK0IgFJSYMALEhIFZDCgFav6v/Xd/q/8ke//+F30f35F+q2vjP+Hr3m/+t/tL70pnbmGHP1IVu9NaLoHaNvREa4rTj/7EvzkK8h5tvqlZNEEddKcVkhyg+tD6OvJHlFSbt4sWbL44+amFlCIhtd9iXMm/jeUOTZ2eMbcOzdLfAjOxeBQTBwtPXgta2/WKAp6+xpXzJp+5WLNtu05016bJvZWvbt0S6trTDZlpB7cU28TfDVNx1avdNj7Z246fz2v+PTWtxYtnldw+fbCH862GVouXv4sZWcNCrsLLh5afMaAxtG87/zgjnnQTTZj8JGgrMqNO5SnKjeOl5OxwYBbI16nCulN2pWkZRQ0EZ+t7wG9cmDysu6ZjNDJIXRwfAFl0DBmd/X0DEBrxH81mZCx8UNoYez35D6cj4JCLoPh0JxVLDcuyRHLrbPvrdrWi5B/0JN79kpqes6pgqpwcByNDl84lZt69FRJfSMSzV3GqmY2iBBv627Kys4+l5vv82GMgjzJttzk5T5iDPlc6Ey8LibaQk6fPPvJ4uXD/S44aeM18S51Lzp+eNGRpGuZcCAM3U0bUzdUyIjU11FGKMKjjRuH/vdfWv7jV6O/8zX0H/6z///5q8E5i1BROfIHATNAN6HWL4qCgkEek/SJOktPOylVnuxkQSUnWj5ahcOBEC2OesyO8A3A7ID6oVp99N8ymZ9iNqy9hKDfcPnt92b8YsGn9aMSEsItFy4se3PXp7vPDYrRwb7BU5np2SfTDIM+HqHwYMuZC8cv5pzY9+Zb7WWVho7+phaf3YmKKjqQJA1xTFltNRq1NlWUnf+s5uixnNrae1fzzh1JS+8f5AQRb17r6kShmnrUWanrO1hFSLIo8GmZGTPmznUOu0QZ1kz3O9G3f9IP94n/i33jzug4iCgBrSV9i2EbYBzbHFCxMJlYP2RIEIs8wZJvyt1XEksRMTkxjdJ/H8ZsCa4uad1OhgmAKAweONSF/7GLMeKEh6bIR65yqTsasSYmgyIcEYA91fKnFdPLcME7CdWKZZPoU2TU2YUOpKF3Zgf+6lvOr33d8zu/L/32V9Dv/D7/e/916Kc/dVw/S5APV4tmS2ubMAGn+IlLjkQlnocxQj5BrQ19i+afWM2437QNqYdGC6I0Ph4ovlmycsWa69fzGZcbb2OQNqWpNA9tx3Ck+tI1S48pTCgQCL9E7DWG5urGgBJCymh3fc3SRVuXL9kh+KMoNHThRqkrIAiu+tuVt4dHUaTPWVNYODriz73ZaLP3sd2Viz+an3Uo507unVHG2d7SWVvhQlF/T+fdz5pBsOlKWlqXh/Xj+xPQg5h/yoG7Xl9wzNbaDeYPzABtF5H2H/bQTXY6TpNDdFF4EUGYMNIfwELFrcZVyo5jtShtBiQPRAh5IrlxfJ7d/SwwW0bjLoNx73sbDAani+1tvL55w/ELVgHlpV9J3X0s/VLRq0u3dTaW3spYeXDbviMni1ftP+FnCjPOb8+4b2UGOo8f2LArK3v9xowLZyo0Aw0JM0nXQ4/l1XpAxWxC5qWocjD10N2KqmgkGhgPRELRSIiPBNVnOBgF7Yb4CYGai4Z54nzukXAwGg0LkWAU9DNoCbBHiITEaEiKhqRIWAqFpUAk7PGjWTPQ178e/YP/hr72dfT8a8qpS8jBIV9YGguFwyE45JYikhgR+agUjcgjvmA4JEWCCTlHo8EIHwzrXTQQjgRCkUAIrrTGu2hQiwqE+SDPB3khJPAh8IywPiEAHuoiQdnoiF4vbnJ6x1WSRUnJQzQ7YHZZEzsKx5xIjHq7SuYteX3r+dNbi/sjfpTy5rSak5Wpe45Zx5xL5i09dXD/7q2LP9iW1TY0XJT25pptH6fnXpz+2su1t0vTjmSn7ispqR99Z+EOxI/XtTcu2LwODZevnvbLNUfupR488/zPf3rk1IEPZs0+eerCWACskuj/KFRTzwSYrUKZwrm56TNmVN+tCYXgxhc3hhavGf1PfxT94//lX7NNcnD+sWgwGA2EcJMHQtFAKDoejIwHobGfxAXDvHdkbCwQjvBSKCI80NFeTU5Jo4JhMRSWQ2E5GJbDEWV0LDLiD4UiUgjCxWBYDISEYEgIhaKhUAS7aAh+ioGQNB6UA0EdAtMbVggpvBgORkNhKRiWgyE1/1BY8Y2GAkGeZB7CmQdCQiAkjAd54sH1kcJhWedgOoTDYjgsRCIxFw6BiYFoOBIKieNBadA1mn8LLduCvvU99Af/TfrKV9HX/gv6068Ht65A4SAKhsOhsBIOgWx/OCxFQmIk+GguHIJajYyGR/3RQEgiH0XyDAUV6sIhfc0n9odCPG7PaPLT5xvzuEeCAb6hoX312m0LFq86m3u1f8gVjPJkqa8ftCpwwO0bTJzIvCOjFDaiiIwofgMYDiJEgHfk4AwPx+NMo/jKnIRkcuwC2ZJFApkj5G4ehIpRWYrIooCkEAryKCLBQhSKERHKuVxTVfeUMVsPdurHTnjXK4HgTMpn6xpvCsxWZ76+vSmo63JQvc9Ep8oXFrMjzq6Omd/6/v/7Z3/+J3/1F2+++VqNxe+TEfJZuMF+u1eYn36l+O7VrK1vVV+9xgzILi9CgfqT5z/NbjTdPp92I23nQIgPiigwjlUFJHRbcts+VgjNlTAEZLt7396jCxauP3b8RtqJm4eyig4eLzlwvHj/g9y+rOJ9WTdTM4tSM4v2Zd0kLv6t0v3HS/cfL4u57MLU42Xb9hnW7TKu2+NYu2dwy0HHnkxDanb1/uzSg9nFh47fOnz8zuHjZQePlx44XpZ6vDwls2xfVvm+rJIEtz+z+MBkLqvkYLw7kFWiJS45mFV2ILP0QGbp/szS/Rkl+zNKyM+DWWUHs8oOZZUdzizbl1acc+mOewwkSeGPttpDtHk8Zof9XXmLVn1c1OZcsup8h3l4xcfz+2405ezYWtd87bmX3u62mHp7Kr7z5sqiOx03ts/p7un0jbk/2zfHUJ2ffuRU6r6iohp22uLtKBqsbmmatX4l4op2rZxXaUPSMJr9ykzLSPT85fTM9E99PpFIQtEKUqimnhhm69Ed1tCwrb5w5bqP12ftybyzM6MiJbt22+H21bsc63fbPz3UmZp5a192yb7sm6lZJalZJSnY7c0q2av5ScjjPI+X7M0qhnyOP5TDiYv3ZhUnp6dRezOLU8Dd3Jt5MyWzeG9m0d7MwpTMIs0V7s0AB+M2o3Bf1s39x0v2HS/fk3FrV9qdXWllm1IutpvcPGZYVGYQN1eHid129LOU4yTz2HMv5ByXP/5ZqHtC0fsyi3Xu5j4IKdqXWbgvM39fZn5qZn5KZsGerMLdWUW7wJXuzrq1J+t2yon2XZn2Tfv71+4eWLtraN0edsPugV2H7AdO3NuXXbw3s3hvRmlqZtm+zBIYzJllj+RSM0tTMkv2ZqgNhRsNvis1s2RfRqnqMkv2Z03q9mUW79cmJhkb5LkPmrR03/GSVNwXqZCs9EBmceqxGys2HfnRi+9849vf2XvkkLnX7h8PRKM8jEzyB+CqwHY0CSE8G5l9lPFTD4GgV7RzId3rNB/wCBpWawmS/ieX2uC0Aq8SyNEPKer0ldp7Db0SNvBD34ObPniRQEOIB2QzNBBWoigjp7TdNJIgG5ggV0RziFOWQEPpV+OQSfbGaeop+Wx15tNWJt9HYFuXg+r9TcJsBUWchvZ9M+ezbu84Qu2Grm//ePqgB13ISX3ue9/62+/+6L8+92ppRQGKWJfOmv+P3/rZzr2ZyFt/4mzquRZHzs5luSlrB7DlPtDDQJs3vueSG/hRQyj6qBkrSIzIRw+fKCpr7nMjhxvZ3MjuRVYfsjzImX3I7AVn8qges3fSt6w+ZNOc3YfsI8g+Ck+HD/V6kcMLT+Jx4J82D7J4kMmLjG5kckMRCc7sRpbJnAdZ453FE0ts1fxmDpm4uHCrB9k80Ah3Gz1XCuqH3X5CGB4Ts0GLbWjccH3Rum2tHpRxJHfr/vRTl/Nd+fdzt6++33rxd//iu3/9L8/96J/+6C+fe/dGYUPmojcMPd2jIV/xkbmGqry0I6dS9hWW1rDvfrgJCeGKxsY569Yg9sah7UubOIR60SdvLTEGUO61Q9kZG3w+MFwRo334dh+MDWA+MOYkbVmpe1pYKYfL435z1vyLZbZOBplGkcWLrG7k8ICzu8H1+lH7UKyXTV7oms/fGT2IuOSijd5YFBmW6tOHYKDqHAxsL7J6YYCZ3aiHhUFr9sHnmH3oYrnlfhcTxWigbofjBmw2ui9WDZlGYo0QK0WXub4g6ifFWXGhUzyhDj5kxM5EKjmCrCNabXGF6Ug2e5DqOAQjmdUc/ml+mCeeVrGv8EJByVWl03YyjxVP0h4OUWfkYLb2cDg3XH+bD0ZUrw/1jaDeEeVOS8/HG7f/6IWXFixclHs+t6mxyWK2cAwnEbQmY1VMQGRt31eVDlBPavAMVacpBR0MqwpSiL0g4LGJuAgBeQxWmMLimaG+hTFXkOVAMDQwNNRq6E47WXavvtfv8/vBPKMf298bIUYafV4feHxgqnHMPzbiG8UGG8Ew34jX53Z6rxY0mfvhCANmmXYl6jcZs1U9aI+nU+WZ7Y0rCAWcnYbUD1YPDY3zSBzsKH7+hbnNZrR0077K+zVBKTTn4031JRV3cy/aWMkxHlq+baGtuyjz7PFz9Y7qgrSMPUu7OaWp0VmSXz/Ow81MWOaTc+VHReYHpY+tBBR0+dyVBR8tr2uxWljeyMpGTjZxookTjZzY457ScUI3SxyveYQeToi9xUk9nEwczlY2cgrMZxaZGHBmDtlY1OsEe0e9DHKwvJUVrKxkY2UzqxhZoKfdDHFKNyPrXQ8jGydzrGKKd0ZW0RIrJhYZGXA9LtTtVIjfyKgkz8wiC4PutXqvFjSwsPTSVs+xJntA4xI+m/NH4TxbDI11fDZj5a4uCaUeXfIvP3nZYkJsQUPOp8s7Byr+edpmkyvIOUqyLt3sNjsup865fuem1edJWTGj/nbhsSOn9u4rKrsz/MLLH42New6eOD194Qo0dP3Q9iVNHoT6xKVvLzIE0blrB49nbhwdBdE0WFtofxSqqSe22lYPuTCcKyga4TOzjr8zY251l9PkRd2cbGaR3QX9YmVEE8P3MHwPCysnY5KjZPrz8ig9HHExhNAVrRC/0U1jFTz8pB4YiqozcniQs5KJlcwcDBUjByOtywUfeKaosblrAPqOdD10Iuy0dphdl6t7ezAU6UpEyfnTgnQeGQ9IDVZZ2YRLN7GiiRNMnGBmBSsj2BjZziA7g6yMZGYEC0xDZGTBQXqON7mDEO5EFpdgcYlWBlkY2copVhaZWZhNj+SMHOpmaUOBBxdEK6nNiAdla8GranVscAgmOFlku8Hfw8ITVhWMZOakHlYgK/seDnVa2ZKbJQf3H1y2dNnKFSs3bdi0fev2M6dO19yttpksgRG/Zq8cD2zCFpIRDuKY+lv4mFPHSv9hCqgcL5bZwZMigk37qlFqPnj/G2/AC1GRdQ233q+9euninj17t2zdtmnr1pVrN6YcunbhcnVNVW1rc2trc2tLc0vT/abmpmar2QomfBiOZTiO5cwmc1trW1tLa0tLc3NzU1Nj063SinOX7zndUJNngtn6tbk63+nBgJ4pI5+qf2rUIUYLaAj1KEi1N0WpSXKe+ih9x5BM9Om1DgOFTWXtd2u7ebgk8rB/OCcJY7YBbIQ88I9WLCFlQpXUnwpCfJ+x++2f/OK73/n+D37woxd/8vPcK2X+ADqRuvvb//yD7/38rfXb95TkXWm6U/D97//4n5978dCx06LXnHMq/crdzpCv99juVT/88U/efnNmbW17SAadX49itCyhihP/xCLpEEVuIYejwtGM7NfemnGzoq3Po9jcstnNY8CWTYDcUzgFqAkAsGJklR5WNgJGymZWNnMxl5CDmVWww/QFUxkLh6wsECnibKxsZWULq1ghJTDBlGYZMS2gTxMXywSo1eM5WDdAQXpnYZGFRTXto1fyGzivzozpxC06QSjG7Ga3XwD2TOJZQ8W8VTtYhC5nb509a453DHXfajq8dzcbYc5fyv3+95/7u7/7/zKyL/v9ow13Tv/i5VfeeGf6xuVzG6srjx06mXLghsM6MH/muz/8wS/fW7Bh1sp1iG3bv2uzwY34oZFP3p83OCpeuZ5zInt/MAiXc+CPDlqNvVbgohM+C1Qnl8q+ALuCN8ma7je8P3PBhYIahxcTWdy2NtwpNgaZoX/xSssNXCmQY72DblKMGObxvoVi4mBs/AodDEWAHxiZCQ7XDWpodisWDpwZD3KylOxhgIc+U9jeZhhQm1Gl/tCyLT3D5+70dsOKc6IVYVJZ+qJN6sgn41//xFMGTxwLK1sZhTgLK5sZGZ6xwalYONnCiRZWtjAIEsM0QVZOdRYO6Z3VDXyt3tncyMbFOQurgGNgDkKe0Imwtojlk7AOcMtmaDGY6XFLENLdulFhJkOFLjhwAjz3ZRMrWwiEs8jGir1spN/N9/SN1Lf3lt/rvJRXmXLw1Mp1u9+f9fHzL0174dX3Fy3bsP9Q+tWreQ11TcMDrmg4SRQQj2IY4JgPJ79ApE6j0nDnAiGecO2y6OV8pi7TraL89KNHNm3c9M7b7/7i5y9Mf/+9tSuXpx89mp9X0Nzcanf0eUfGAxFktDhzc69evHrr8o17l/NqruTXXs6vuVHSVHynrayyvayyvfhO62fF9Vfzq6/mV18vrL2WV3X6TP7584VG+4gKTbFqwDk5jKskp9oXTwqPzWUULzceDITH/cFxf3DMPz42OjY2OuYfha0A2A0Y8SeEkHDyJFFjo2M0kIboPS4nMz6m5qwPn7oUfcqY3z827h8LjY+MhaQrN5uq6rqwQKjWaQ/6H7eJqGF234OSTx6f2Lia4CnIQfEPdUIAACAASURBVIgSH+HDgWhIkHgE40SUUcQnRNAoj09XxHGF98rhUDSErx0LY0gMg6QTpB5DkVEJVPyhKL5yQxR0UiI8eYUmi0moqJpMkVEkKvQPueYvWvrau7OrWx02DplcCEiYO9rjijwMwdVRExXzLCxMfr1LgHAChwlPK0zdmAPygR3FbFKZCYtLyOop/qxp918puO/2Jl4Dm6ihExu5s4cpKm9xjxFjLDLi/QEJBQAvR5QovvAtoXBUBml73oWiwZCA6QtkPSryCpgWlTACi6DPBEkBJLpCAeTlkRt4iKAsiepSIhyVZSSIoQgfAAMTMAzhOpj6R2TSiDJdIGmqzQlgUPAfrDEFVFV9/4c//GnOpVKTC5nJZgMHXQD9woCzYD4JmCeM5bBHQiEZJzMDRiqkE4Gmx2AmbjH0eYYDKkxUjdhhCkAdgCLgIoVtFvZyzxQY6utNkYAQGg+O+wNj/jG/3xcORxs6+y7fY82euBFOhuuEZSUEPsXB+TBZUSynHjuH7Gycs7KKnUN9LOpjUC8LJyCA6x5YBFB0t9KlAJxDSRa3bHHDQucxOlqrtgJ5atM8wWNlFQcjOxjRzgjdveMVDebz1+9sT8mYv2TdL16Z9g//9KM/+dNv/N//46/+9u+/953vP//8i++8+8GCOfNXLF2xZe3G3Ru2pGzZcWDLjoObt+/fvH3/yrXbFyxZPXPukjfemfXcj37x9//43P/8X3/9p3/yZ3/5jX/89j89t3DO7B3bPz19NreutnZwoN/ncfs8bq/bPTriHxsLjgfC/rHQWCA6OhbuH2Lv3Ou6WdGVf6s9r7wtr7zts/K2G2Ut+aVN+WXNeeXN+bdaCm+3Ft5qyyttKbnd3tI+wHp4fwix3rFRf8AfD6kUK3WeUZZhKRrqwmE3nmJf3Hm2ep0IUx56m5voPMEnXkQYj2o7kUkU1mqgyuklh2j5wM4AHLDjQzVdYFyecFUM9hAgsZYVDVGLIGcXsMsHJ72wN37jVltV/TPDbHqcrBHAuP8TqDS934AxG7azydYNFlZUsASjan6GsEHaro4IrHQUCWKA3IoGsIZVJCGz5Kkew8QV/6AfpHqQitDv2G9QMREVauvuHziU9vZ7s/cdzW7pcTvwKtvqBtbE6oVpGSPKlDrHe2ADOckloK8NCLpKFglxTH5FxYYHYbZ58kk+YZ5PHnivw3/5cTAbxg3w2eUtLqKPBXcCcACA2bCbRxAThgxYHgoTfVjkArqM7ZrBAICBBMdgoLJc4ZEUkhQUQmgcwTVV0FVDhoV6wAfbf+SSBx572vAgY5jw1pAPGYjkxhbi+Wj9/Zodu/e+/ObMS/l1FqdsYQGzadPpMZuclSZ3Ot4jAbbPzCIgtcC3xXL4YvsVbUxS2IazGILZBgNW3kCmIl4JKQg1dg2eqxg04dOcCVeZX+zvha0sR7yDXS4ODTLSoEvsh7UL8OV2/QdiFpyivtWtgOOeYS9bGcBsm0vo42Sbi+9lRZtLsDpF05DYM8D3DPBdveGmLu/dpsGiu6ZLRc3nbtSfvFyVdrr00ImiA8cL9mXkpaR/lppx40BW/tGc4uO5t85cv3ehoP7GrY7yOltdm6vHGm7o9OdcqojyUiCqRGQkiiLoygGr2bCbApflMd0kF/9kBXTOhKNiWJCiksTLclSGt6KSLEhyVJQjohyVlKgEZiwiEgqJKChIEVniwZAVyHYmQVsMQFWQlZRQMKzDvlgCjIzqHas4zJ5gb5wQmgTcSgQqjTSQT4zDhbioZJ0VajQ5eCDbBSQoOUSXE3gJBslRCQFmV9d38dDOJDQh6QQ/cR3FCOgu7bTZnLEMk9NOnWViU8Tx2fiaAL6TgDPB+hkwi0M2dci75KsBluFiCdZMjb8D31ignzRZoybXV71hSiJUQIAMFVkB6744x/7+4aPpJz5cuHzhsnWHMs5W1HVah8ZtThFEzzgQvDIzisMHC21gEeJBOgHFIQEDrLmeyusJGfH/5mJ2WQvjwzbBaFfRfoeux/d/ydoTdw2YecT9rz5h5IB+ary9BqI0ePmHeHxtFDRAy1jhtnpyB7JnWJIM50UHDYwujOpkWoEcjnqLqaGxafnqdR8uXLE/7UJt27DFpQK20amYXSroUsy2asJNyZhtwYsteN0pqT3uki2MYsbui41hU2F2RyfeGyftBj0IVObXBrPtLsXOKDaXYmHkXi/qZ1GfS+llAIyBvcZ9ameRlVFsDDINS3gLPbYJPwWX/OQ9DoW6RAcr9bllOyPYWdHOSTY3HNCQIwlY5WPWn4SoQiouucclqc4pdjvFHpdkZCQjI5pY0ciIPS7BBJIZMM7rLWLOZ7UimD7Fgml45hHYJnSSTiACArygBCNCmAdGUVQQD4AN2nZkUZIkVU8QEW3DMudYw4Rul14lABTayBpa/0RgzAlALDkNCcTPB2M24XopwXlsD/DZ48Bnq8Cqx0JaRRqYHDJhwQpgdv7t9nsN3VgOn74/YepYIK4FYHbRXfNzz/187oxZt8pvqWcJBCe1nFSxndir8T5dU+JPo5hNVXdizMZCEgKstPD1AEKPcXfCYo46THm1AnANSFRclWjqyTw0A5IDPMma0T8aOnPmwosv/vJff/zCqg27LhVUNpmcvR7Bxgq9bpghfW7FzkRtDG/Fh1s2N1DtB2I22UDTz9IHYvaERD+BO59wb/zLx2eXNbMj2K6XNqKge/AwwUo8sOEFFDuBpgNfGyNY2Qmw1GRFHS8RDlnp91/IS3QAaB7yP2St8uNIlooK8l/6xSuvvjkt9dip6qZeyxDsaZsZZHQqxvgV2ENitsmFbC6pnxOteGfVwYowir4E3PZvLmY7GGRzAWY7GNE8FDEPI4sL9XlQHyc5QPwTYBs20jnU50UWl9Tj5M2sFOO2n+WmF2zXM5KDkXo5CXbIWdHGwhE+lYyBbXk4i4mFTO6XiCxtTKKWU7pZdM8sZV+7J6EQptGw86WBk8r40N9k6kR55A8KoyERX98G/ioKSgmxgmdV3WuCfHv8BIxNQzyZ9Wit7YGByBchFAmxOuoRh9nqCl8XDaXgnepY4XqiEk8i4tLEfqi+OMyOawzdB9CiaSk0JClDEiAhVFxhqL3f8ziYLaOCCmNRUeWNK9dXr1z9xutvLF+24uzps02NTWaTmXEysRacpPRYL6sASjGbbIVQRdvA8MpYcBDoJvk61TgfHid4vJDtDKILGb6b5Ek6T81/snrEhWOFVmJgPDA4MNjTZay5V3/kUMbMmQtef3Pm2vU7T5+/Ud9iMTh8VlawcJIRxFYVO9znidZ1me7cbyqrayu+Zyyvd7f3Yq4ric8moj30dNnuQW2OcIs1YMNyZITlSoJtIlOGtx9BIh2WAgkE/YuJ2VOdZ9NOmaD3AUoN3a6i0mYONJtp1AAPBBBugA4GWkHkw5DMq91NBzzJE3csTkxGFB485MIKyVPbG098PW5EgC1gD+c2dvXcvV29c1vKKy++8MG77+zYuvv8jbuNVr+JEW2sAmecHji3trqwIJIGt3GYjUX9J1xymRjUx8kd5qEmm2QC4f+wlZUSuvgL+fM3GrOtw1KDgauq67lT09MxDJfcelyoodlaWWe61dBb3tBb1eY0DgpWl2IcFipb+wqquipaBmB9hrfTn12Hapgt97KyA4O3nZGxaCoWuMMyFnYGVhV6uZlJ/LKVlagzc5KJA1HZOpOYc7UWNEfjuUZmHqHNIl3ckgmIN6oiAvKGFSYou8ZlLoxGRRTEKtDB0iASZOC9taV1/OyL+0WhLQGVMZiS4+NYej2F0UIfArMx2mjpVYCJyYfrKAukoWXEXlB9ioygQglp8Afgw3JMvegmPP0wSsKSMoQAzL/ea7TeqWphOL/HM+Jxe71uj8/tHnG7Rzxun5vzcewIcW52xM2Oj3g9nNPjHuY4l4sbLyjvsjpcgiCO+EbMJkt1VfXJE6e2bdm2ft2G7du2Hzl8JCM9I/dcbsWdCrPRPOIbhdNC+qf34ot3sc+HdgCblOCojh7QnY/tO1IYplnpuCr8lu72AiHQJIH+RdrU2COLEutiDB1dt8sqT53IPXYk+9DBrLVrtn7yyYaNm/amZZzPK6xuanP0WLneocAAJ+B1NLBBZg4uO5lZNDTgeev1t773y1nTFq37YMG6WSvSy+qGBjhpaFTo9aI+H+rjosNjkn0UyHEfE3L4lb5RNDgG11tzckvS0s+1D4z3cYLHqwz6YW0+wIXs7qiN43tZ3s5F+7kIw0SGvLzdJ8Nla4CEBD4MpMSpI7KsCZvzyUj/LKkGkIOatsCV/BbOC+fNE/zpxgDucRFrfI3i+6BKu2G4+FabZywmN4pxWsLb17jbtHU5OUKD/NUMdTNBP5aIAIQes/HAAFAnIySWAxoPRoxm+53Ke9knzxw5lrV9Z8qCpatWrNl2PPvSvmPH3v1g+kdzl3w08/2N21Nu2mAYDLFRKycPsGA8ysGgQQ8a8ihDo3BWYmWQwyUPetDgKFzZtzBo0B0a8ImOEWQaQXYfsjphZ9XpE66VVlytGTANCz7O6/Kj3lGQMLe6pEGPPDwq9I1Ak/ax0SGPNDiCukdQd9LS7dl16CQ5T4DZJhZuPJ8pMHR2DqqdouuXpq7B85VDX97zbFiWYXkFlhmrqet6c/HRaR9tmrVg7d5DV5vN3laL5yf/Ouutd1dPW7D5vUXb1uzNabaPDfZ5Dx27+OrClGkfrf9o1Z6jl5u6hxUH3oebpFUTV+SPmszKKjZwgNOao8RBxemHA2yESQrwDMQRYUMdZmNpTW0iY8X9IPIJx9IycNIRBQSBIzIa45FzTBwKyANj0sCYNBxUuAjyCyggwPE26KyXeEXCVgBUsyoaiGuZw+xWD6p0iwIK3gqGSJo4ASs16hOH2XD0noQK5FZZDI0w200CsfQZLlvDD4K+cI9IC6Eeymdj8TGgTXpZM1VROeFBE4A8KSuytQgMCqZsXRZnds7lW3fqOjotHR3GzvZuQ7uhs62jv7d/bHQsMOoPYucaGDC0tRna2ztam9rb7ncZjPfuGc5fqOof9omYkZEEKRqO8hF+dGR0eHC4uan5ZtHNnFM5e3bv2b5tx4b1G5YuWTpv7rxlS5cdOXTk8sXLVXer7PbesXHQRE3amXDTqhQQhOL6kSYl6v/xmTasxqjhZxpCYZv0DekLCthah8H/AvJ7AnZT752yytyzl3bvTFm08OP5Hy78ePEnK5evW7N629athw4eOnMut/TWnbaWjiH7UMjSH+h1Rgc4cYATe1283Sk4GIWuUuGGNIu8tqE3fvjT7acr2wbD5sHRNifsm1Xeqd11NH3phkPL1pypa7a8NWNBalZeX5+rtqH50+OXP1yR8vbcbc3D6FTO1fSUPV19rop7rR/NXfnWjB13Gvob2rsOnb3e3uu29bOXCysbms2u7sGlK9a/OHNhxo37RpjwcJtLN5njqCeRDEo8Pv8cSTzhL2taglfy27iRCLQ8dDBeKpIFNVmTgZ/+ybBsRxFigqjTyG3ddWLlhp3HT5y+U1Fp63VEBB4LnxGrzQoxA0UMclCUxnmRg268l42ti4OhBtUD6zk4ntb2a+DOMDYB6fOOdXWZrl3LS005tGDhshnzFn24eOXHKzet3bw7LTs3r/ReVYelZ9DfZfW8MXtO2qkzw4N+pvveL3/56srLrnMFLXduVZvYYEFBx+0Cc2vbQMbJ69v2ZL/69tKrJV0mBg0x6Ej6pVemLdqVUTLgRZXlNz49mP7C9BUHz93Nrx60MaixpTf38vVz16/l3jW1Wr3pBw6/8OrMjfvO3+8VODe6cqno1WnvL92cOeRHFnt/eval9xZt25xT3qZx87ph8KTk/hGziht1WHQcLu6bPehsQVfsPFulpNDXTd1DX2rMJne4TRxirdbNa7aszLjfNCh2O7w7txzLzjlr6h188Ycrysp7DUNBwzBvYETHKLqQfX7Jkm3XWkIOTqys75m98khhjR1Wb8+8+2jv6AnFo5ZLM1ElYYnKh1qTeOpqHVntYiXagCdRGXnGeQ47d0DiAhITFNmQxIakIT9v94YHA0r/uNw3LvWNiYPjEhMUvCE+QjQiqFBNTaHBcTchFSqwEsDWc24UsDH9D4wHtJ03QgbiERmHTYDZAKVAH7DJHvrUTsJwbHwUtV5HEtOv19cGIz05z8YGmMEmNwjLYePcWGoOLMepcK5SNbWU2NfqMiQkTRDgoDYYUYaZwLnconMXiq8V1FwpqLtcUHfhxr3C2x2VDbbKesvdOvPdOnNJRceNmw3XCmqv5ddc/azm/MXKU6fK2lpYPookIQpWvbHhUWzQHmzzEcBFCIWD4eGh4e6u7qLCohvXb5w8cfLggYPbt21ftXLVwoWLpr33/mu/fH3a++/P/2jBhvUbD+zbf/pkzo1r12+V3bpf39RtMNrMjqF+J+t0e7kRcCw4Hzfq40bBz416sd/vGfV7RkfdI0O9g3ajrau1q6qytqig7ML5a2nHsnfv2r9m9eb58z5+b9qct9+Z9cH0+XPnfbx02YY1G3Zu2rE/5ciJkxfyPiuuunWvvaVn2DYsOP2o3wsONjw5xQFOdnCynZVsjGR1yVYXnF8Cn40Fi4wsGhlg3/35S7tz7nYPhO2D/iYncgx6D+9Y8z+++8ud6bnTfvH8D15bteNgzfQXt9bdu3v84uk///Hig2lZr771xpITLSnZ17L3be1trJn/4boF608uW/DxytXrzty6/+bKo2dvNnW0NM2cu6WzbSx3T87ytTs3ZZ392cxPbtT0mMgd00SR8jgJ8185Zt9tdOdcumvuZ10syzJOjmEY1sWwDMNwnBvv6Xh8HOdjOZ/LxTldjMvlZFin0zXs9ozUNQ3sPXR1656T6zYc+Hjplhlzlr7xzpyXXntvzvzlazfs3Ls//fT563lFt+/WNHeZ+qy9zgGXh/P4Oc8I5/VR5/bg6yceH8u6hwadZrO9qcVQXlF36VpR1sncXSlHFi1d8+4H81569Z33Zsyft2DZqnXbNm1LTTmQffZyaeHtprr2Xpsz3O8WB7xy/6hk4cTOvuDmzatefOmFvFuGrsHx0mZHcbtn19Y9Z9OOdg669mw+c3zTpeY7N//lZ2/O3nJx25ZPFy7fUtwVzb1QNWvOyrX7M348fXX2ucvl6Yuff2fBjlP3z6Vk7dx/6T6HMnMvHd6/7cD2lSlHzmZca5ux9tzx7EtrNqVcqRm8d6l80cvTln96+LVZ6z9Nzelqrf7uy3Pm7C68UmUHHWTPnO5PXUQcQU/A7E7DIKW5QB9k2DL5smM20WXkYOXOW42v/WzaNTPf40e9jGw2eBta2jotpld+srS81GRlgq39oZ7hoGXQO2flsdScu3YfMjvF4QHP6Z2rdh8vahyFtf6z7z58d/yJCkrsYjMok0AYs+vJchus2EmKoKCggIZHwgO+aP+IMDAq9o9KvSNS76jcOypZPRGrJ9o/rvSNSb1jYt+Y2O8Xh0ajTl/QNxYWBD1UJ/i1HVaC1vhJwU4PcIExjNnYxBvFR9Wyu4bFE2A2uYVCGV9Nyjy27023sgm3rSbAiKslxixAPH9M+Wwi1z7hU+VQHxqzeYzZ5Ir8wLCnpr71bk1XZa25otZ8pwZcRa3lbq35bq3pbq2pqs5cWWOsvNdTXW+qabQ0tTtsDl84gIW7JYE0kAISuiLgN3gkGQQMSJ/CMxIGFXQiL/pH/a5hV6+jt6uru7Gp+W5VdWlZeV5+wcULF8/mnDmZlX3s8KEdO/bMnb9q1bpPl63asuiTdQuWrJm/aNXcj5bPmb9s9oefzJi7ZPqcxdNnq27GnCUfLVrx0cLlCxev/HjZumUrNq5cvXX1+k83bN+3Y2/a3oPZB9POpJ24ePJcXu618us3q4vuNFbUd9e1OZqNzs5en9kVdnikPp/S61UcHrhbqb/TTES7LYxiYdSjIHzqAzOBICKoKOKQu3f49R/+2zd/PPf195e9NW3+wl0XmzssGSlb/v7tdR1Dvpy9C+ZtyW11oK3Tj94tLUzLPfuTRZeNwyPV9xt+Ojtn9/7zOfu2N32WP33m2tsmYdhkWTB/6aly4570vMzMi3eLCtdsz2k1C4unLzxwOPtScc2787YcPVtmwkIlFjj1jMNp/c9fLWZbWdRq4TPPVVwtrqtrNrZ1WDo6ze0Gc2unqcvUO8yMct4g5w2ynsDAsLfL6GgzWNoN1tZOc0u7pbbBdOJ81WdlPd19gY4eT31j363q7sLyltxrlZk5+YczL6ccObsj5fjmncfWbt2/fP3uJau2L1y2ad6iVfMWrZi3aPmMeYunz100Y97imR8umfnhkjkfLf1w0fIFH69eunLT8nWfrt6cunnn0R2pmQfSzmXkXM8+m3cp705ZVWtFraGla8DYO9LPiUMjsGjr8yIbh+UVQGRBsbpFExuyOPoOHDr6yltz33x/zobU4/eG0Y6dKRdOHjExzqM7r178tLS1rOS1mSsvNkc8LveK5VszrhmWrdw9ffaiC8V35qzJeG/GwvL0mUt2pHWOoc7Cy6s3pFb2o7lL99Xcvp2+e01KZsGRC/XLtmbeuFlZUtV43+E7su3Estkb293RS+fvvPz9l2trCr7/7vLPjHCfysw8Cf/0VAAjkaCDuhWNzwbMVvfJsEDKrwVm92ChhD5WbC1qeOmH75QxqJUD/YN+N2K8I6Y++z/99Zsvv7jgjRmLXpq56uCJK23d9rc+Sd9/sbnPK1sZxA15qrM2bjlyrcoLF/SfPWY/eRETdPFEmA1iZUEBOf384Kg4MCr3g1P6R5T+UTTgR3YPb/Py/WMyYLZf7PUDZg+ORIe9wZHxCGA2OQadgNuWYGdMJGZ0ieX2GIOajNn4updqx13S2FoVkSVlYsxWYRsP1thOLwEvsiOtsbwEtkl6eFJeOYZ0qo9idgzptYUDrQ1deui5ef0nUT/hs+Hei3YuIMjCeHAUG8xB4XDMRcIoqnPhMBoLCOORSEgMRUVRPQ7Ae+Ow90k3qOm34ON8skxRNy50KE72SsEojCRHeSEwHvD7/AF/wD/iMVkHT+TeaTExTcahBsNAg2Gg3jBQ19lX19mPn321HcTfDyEdfQ2GvoYOR0Nnb1P3QKvJ2WZmWq1su8Pb2Tdq6Pe3WD2G/jGTM2LjJLtXUR3WiW0GzQaKXlUhweAeTetvssCXFUTAQOQS624EwO7mkNs+8NaP/m3rkYLaloH7zebbxrB1cPRE2pEXVp3qYr2XDk3ffKqi2YFSZhxsvF2WfvHqK5vqDG7U2Gl/4eWjh3efO79/971LZdPnbr03gALOkYXzN+WUDVXevHty154DW/ecLzOUd3vf/eCDadNmzp29auH8g1cLOkwM1uX0RcVsQozsbnTyatPxS/fOXr6Xe+XuhSvll2/cOXel9Frh3bK7rbfvtd++115e1VJ0q+7SjfIL18ovXK/IvVZx8XpNTm71hQJDqy1i84gDbrnPJfZxqN8NzjosmYd402CkqzdosI+1W0eaje6mHrax21nf0d/Q0Vff4ahvV11dh6O2w1HX2Vtv6Gvo6m/sHmo2sm1mX6fd39MXMA9F7IzoYKQBDxr0oQEv6vdAEb0cLN1UPVNE4g8LANvcka5h18mr5Y7hMUN7u625csXqDRvymFV7Dp09d9js7N2/5WLOltudt+5PX7Sz0ITYIc/qpduyTtctWr7pBz99fu6iFR98dGT79vTi7Dlbj1++70VDHYVLV6y+XOV5ddpxh9Gdlrph3bHyez0jpzIPvj1r4cqdB243tWzcfG7O4mMdQaUu7/77//iz8rvXXvo4pbhvQpmGJyfQj5rDBAQ9EbNVoqeAmptfFz67l5UMt5pff/6DK6ZwhwfEEYwdntrGJlOf44UfLLhyqb6us/dW62CLlbMPeaevSN9zqqp3BEQUvexYwaH1KSdL6kc+Hz77UTs0Of0EXTwFZrPjIhtAbAAx+MmNIy6APCHkHJX7R0SM2QDYvaNC/6gwNBr1BaUI1qAaL7qUwGqrmK2KNFGg1JCUQBvhs/GpMYAR2CrF1tcxAJHT5Hg9aInn2fgMHHBUh1Lgjy8GftI/GkVDNA/FbP3rKlprG++xgmgp+qK1rMj/ejYelFLIMi+IcHwQ31bkHJCcPKrnj/h9UQ7xYoSXQHdJ7Ato/WNBsVLVjQtdlShmx8JIzZHMesOXCtuNrqiRCdk8EnFWt0gcDaHhFiZiYcI2LmJ38zaOtzBRExvtYSLdTKSHiZrdInaSkRW7NWdiRDMGPCysAXIZWFgDmGngrbV9byBA+p0lLH6CGXGscFSD9rE+5zv/+pO0q03D48gXRANh1MuOZ5w49sL6y+1Dnov73tycVd5sQXunH79/+97RM+e+NW2PY4jLOX32W3NyUo9dvnpou/lO+fT3V95uC7fX3H/rvcVnqr29RuOmZWtfeGNnvSXQamI+Xb27srrZLaALRY0l9Y4euCVJNr7oM5Hh/hXy2QSzrRy6XNLRYh5vbOeKy1uLy+tKbzcVlTYWlt4vKG7Iu1mfd7M2r/hefkn1jdKqvNKG/NK2lMNXz12tqm6y21jF4UVWjncwSh9onpKhpxjU60Z2VrFqhxSgNdoJgUOjyO6S7C7R7hKIczCClRUtnGjlRJtHtrrhvo3FJTsYUANOXC+L+jhQX0UUZfSy2I97HO/0SiYO9GnDTRgW2Tihp8/1w5+/VFhaMeIXJc/wrNkfLb3Us/TT1A2bFvcMdn24cP+uzTcNt2+/Pu2j09X9Nrvjw8Wrc8utm7am70k94QyiyxWWK5/l38mauSv7YrUX9bmY3RvWvPvqu8uP1ve7w0d2LNidlXfqlqm0o0+OooOHco4VNGXuPzv/g6V1w4HDx4ue//GbLc03X1u2t2AQGfB12181ozYBQZ8EsxHelPvS742TEzEzhxizdeOqzR8frXaE0PCIvHX9ofTjJ7vtfS//Bzdw1gAAIABJREFUeGVtHTc4jobCQAccI/KZ7IszZq8t6RF9PKprtnzw0ZaiWofpWcqgPdVRMUEXJ2M2SH4jkD7z8yggqaJnIBMuo6gATHIogpiAMhiU+8fF3jGhz88zQcUbUqJYYhhwAvAAa00CcWOMQzE7oZi/fOi9cT1Kgj8GMA/EbGA9sXJUilwUTSeENxpI02uep4DZ8SitLSVIKJIkhX8k/aXQQaD/P75BdCsSrebQXtgl8tnkYpfWU2py0j6S6HJHLhb1WD2KiYuCAQDszJxo5kSs+U/SnjLWAihZOMECl68EKwc02uTiQQkAWA4QzW64X2gGHeAKGCDChq1AdaIbaxVQBSwpZsvkwgMZ9AS5EyYA8NkJF69Z5OrzfPD6B997beG0hZvem796xrJ912/Vpp89M2PHjc6hwPmstak5Fe1WlLrsXPO9+9kXrnzj5fUfrdz21sx5R6u49Aulp44e7O8xbt95/M05u375+uxdh3MbBtCI271r5+FF28s7naiPE65fKn137qLX5n/86tz1xY0DYG1CuztE6kOUGNPnhAqr9TsKz9zPArd6tcxgGhB5BZST8TKCdR42QkAFBMkAAfkS7HILOprM48N+ZHfLsPPPCWanZHXKVkbCqyvFyoAfO6JZGuR4QfKAxTptOATXWhiQPLAzElFHA+YfsDMx0L9UMbuqnt2VFALnIJhU4eFkZmF5Z4Zr94LdGbheXPHRsg2zF2xYMGfBgqXrPzNGC2ran3/5xY9WLn/zg037Ukrbb999+Y3331ix+63pC3YfOd/UJ5VWdM9ZsPHVmcv+9Y1F568XlZzfdeh0XiusSKTSgpv/8I1vnr3HWLnxtAMb95/Mz8hven3Jlo8+XL5h86FSw2hTnXHpgjU//eCTl6avvVbS2NbZPHPtwfJe2OCBKukXlKqfruE+H09spUjUl4JyVg86W2joIHvjmHvBlALUIann2W5Vell/v2iib0lm+z7nEFWhOlGrTomDmUNudqSqpu31JenTFu+Y/tGaVesP1bXbDHb2Rz+Y9/YHGz/4eNu0Jds/2Xm8uss11MceOHzu5YX7pi/eOG/5jkMXG41OZIMLVPhbsMJ2kv9Te04wKiZpt4cqXcZK2uFJ9K0mYDYoO8NS3jwWF+exnyIAkWkQomgkJHFBgRmLMuNRd1Dw8yiMqQGweEAFiFwoBgZJBiWFsFuO5UX10mea4BdFFuqJQYwGOip4PzJmJ1xwosBMPfTjkkO0qKeA2TRz6tEyB8lbUYLzZvqp2EP22FU5dl1i8JKUCYFEKJjkT6O04lSdMDQ8YflCi8bp3R75QpHV4UVmltcf0Cb4rZxMXEJ48k9MsicZtQ8/vidPaXIJZQ2W80U1Z/Luni2ovlhcX9s92Gjhag1hK4sarX0NRr9tGDU1u/pstnNXCt9ZX5RVbr1c02V08c1WX4ORs7BCi23kclnr6cLOFnvEwUQaGtqWrt2Tlm9ud4LNiU4Xd62q+szNypJGjhr5+IJ77B50vdxkHZLAAC+GbQLM8NRNJHU44a7PumGo7An1jRDBeBUPrLErK/Tuyq/SU1ZrOZ9fdy6vttnsc7hRvw8V3e3Ju9VeXTfc3T7WWtUxa8HStPySswVtrRbeziErw1c0W87cqMiv6LZzqNnMtFhGrS5YZHQPhK6VNxqGeAc73tJjvG8d7xwI3qptPHfjbkVTn2mY7/Oi2k5XbkF9UZWp14PMTqm2kzUOCZDtBAMyjitKngjPNIRgNlh39QJmtxsGgGhScqHEMBtffHiG8/Epwb+61KNrPr3HzEhWt3K7uS83r+pcXnV1z0gP3pMrvtuRW3DvTF7t6fz663cM7b0BsBnjjF6/05JzozKvsrNnWO716RWiTVWKvsRH8evzn8L/iEW7FVCT7k6UQVNXZRi54Z41lqlS8VKNQxIvRkM8scoRDER4rBANkB7jctx9S4wjEpZrVjPRQIQeBAPFSPib8K4XeVGXeJLzbF0KcvwcyzwBqEiONFqrGQ2gns8Ds0MReiJOWkqWQEA9ZoqVwir5Ct1n0nrGmpgGaR/1AMymjYs5d7dHPl9owZgtJO0APzb38ExpBKwebMAaimA2m1N6hqMmrMwSm/rh4XwUFG5IQ8zoZyV1u893dLnhQMvsgt34XmwygahVsRJzy8PC3tTs9Tsymgbh5LJnWLSwYZsn6vCBbQC9rtOnRJ6eSePYPeizcqNtSIDLd5q+GxAowedTMFH1ByR4DGTdMFR0h6DrGSmOSGk3ROlV0cf2aDdWHxP1LS4RbhO4oddMw7yVkeyc3O9FNlYZYBHLoPb79k8PnKxxuE0MWM42OWUrKzi8opWL2qGjZSsXhQ0AMAGJLCBLyJs5yewK9LmDJrdi9cj9vqjDI9ncspUV7W7ZzKi3/C2MbAcOVYHGYWWTi8g0xDhdDMkizvPzecaJQBLMtrjBbPzZos72Tg2ziT5DbBmtsXvoXOXQrwFmW1jAbOAZGNHuVsBKG4ftzbOiw6PY3bLNDWp2rJxidPIOLzIxUStsB4oml6zXhhY3yLUNoScOnAKn9VFPF7MJ3CkS2V2me7BYY7DMy5FQJBKKRMNRgRfJxSKY/XhsEP4Q4AOjjCKBrugEPFJFvjCf/ewxOwHtNBhTES4J3lS2Q/fWw2I2fYVCYHLmtHQahZAoiCqfrQskx/igZ5ueT+vXHLQsvSc5cy1kAszWv6jPWUZcHGY/Ezh5ulCHJXgJmsoml6rBikxaotoXZqkbNKg42EifRzF6sQSKC5ldyOTEcM4Cfbfi7W4bhwbciPOjoREweg+rFpcExsLdABV2rNWcbBTHPx8ThJ4QwyZ/Hb7oRnmPfYgnV6Jl+APwxotxRVGnrLZtg4eKitk+wOxnwRQ+OctucQl2Tun1wD1A0C0Fm/Zyrwf0U/ZxqM8pDrtkh1vpYHgjK5kYcBZOsrplMysaXYKFU6xu2QiqmyEKq7QUrR4FG4gUALxZMLZthpN4YgBKJu+a8Y18MBjlRqDzGZZuE8k0cFDc5+RUJQHqMprY6AQ+G2N2W+egeueTnFRCtyPA7Lu/DpiNwVjQryxxR2Nbn6xkgy1AQETYT4YBAGt6fMtDHdVPjMoPhFs9Nk/mf2AmiQmwObKJ+WwscCzDnT6Y5LpzU4zZUlQKBUJ8hBcFKaZcSyP7KnOrgQW5gkRvQqm5EdFmitkJ8KGgqSBGw7WJ+Oz4jBKroiuVSIlDggRHhbm1D8CC5aq+cU0WDr+VIDquCaORNQvNlrxOakLF1mKxuMIiL0bC0YQqYT5bIleucSb4wgacNODL31pxtEFj6yBtnUVLUSQlJoOGS1QrqfsE2C1VTzUV1i3p+OwvOmZjWw7A+4L8WsymE9mlJJwQ4C5W+0d+kig4jCS2nlSLT1jRqRHs+8p2OEMF09omLmJhI1ZWIApNHbAjytsmcIINaxX+Ij2lXjfKK+tyDEVhAQ1zGi7uK3BfA/QegaoTEDbRjrKxJhwdny2aGempI/fTwGxRv0whh+sOt2IFkTdgf23YbDnuO1VXMxEdwPY3VXE2rABSwDqcweymFdtI7gbTcPCzhwX9emDOQa/7Fo8WkhVo38PLO/34Uf36Vz4Hv24Mk5MakxuZfeh0UXdr57CIjbBoGmx+rTBbv6C0goJx0OkNMo8ghAFXUfQJdOqPsPVuLCeBV2nPZGGKi34YspmwQ/Pgn3grJR6zCT0nt/mIpDaY/lBxTeU/ZUQwWxREfP9KIirFaDLw6GBFkRSBF0DPBwYFynCraaaUGycKx/BTp6REw+UJMJuQJAJ+RM+JfrGQDFRkE4BcI6MV0qMg8VM+WxIBRMnH0PSqRwNRWgpVwAL7DDp0JH61UNxYAi9EwtGEa9+4LILZRDpAFaBPKE5fW1oKyVxfLr3wrn0y5EydJIiyIIFlbHASw4lfIswGUVINqsGj+XUzB3SPE+knLNwEaB0TTQfCCraTidQYyBaBjV6+G98iwzvAKiOuE9hRrJhAaE+ACl3sBAI+CbHqxiypbfwzIeWT/OwDzDY4hiKq3j1JwjrMFBGOXURFgov8sgjmtUBETQQWPOtG552uoN2DTK4vKGYTxprCNv1pgdt3cHUQRM05kH/EHSqZOEFnM5sIoiOM2VETx5uwqWwrtq7d5VYtbcMl4LhRoY4NyAdHAaKraZI9dCx9Pp5YBeIxu6u1c0gUwUILVjYng3JKlc8e/rXYG1cRDneK4mB5Bxu1s9DX+OJ1TNmnDrDxnhnHW6hTtSw8GCzjVwAPk/4ZYrYJ61Q5eaUOTqtBSgyr1JJEURJB3Rf8g/U53t9WBZNFXgqHIgDV2hUskoZChh5WngizZUTQRxRUiJFEieLRBJgdt8+uY/zpciOuioST1th2Cs+PtjdOwVivu5TwrLojZwrkUAGC7rRcBRHMhnBtPYItIkHrw1YGDdfvE9BA+ooWCx9C/4CvgvVOjM+mUQkeUlv85LzSuXyTA9Q8SVSH9pN6dCboqS36qTyqaCvV06uYGXlS51LMDGx0xxwDu7sQCBYVBTMjW13I7kRWF8kEwk0MbKQTbpI8TYwMLBSDbEy0G/NbYHOCOIKsMb9kYagD040AwzTxJB5QlTxJ1LMI7/OiG+WdjqGwKmOirpqxQCgx5kOsfGgzRUIo80YHwWwLZrIJn02OrilMfoE8IKOuHklgGXVYihkBrQXMRREaLZKDGLywI3wVMGEgXwkHnEBbwVwjC6LgdqzOGrQCEMH1OIU5DynJ8TAE/WmliRNcJ8qI4Dzbi84XdrQbhuEGbIwKAaVo7B44W+U0anLjsHv0qBPz806v2MC85qTOgq/y97FiHys4OAmOBqCGih27ib5OtHHUyVPk/ARRD9+qk35XQul2d5xpk1qzdPJKLSC2dgZNcABAmeyzUlzAHiEqRcLRGL5oYKEHRHVLGOM9YU1BVSdGEBUck8GOliKjwFggDnoS8AX/nAiz6cG7Ji8HudBRq9EmUgP1SbOmm+E0RPNQPlv/on5hMnEptFy9RHdyKQoSBYmP8IDNuj8C8wnqzGIViEurvZacuRYywWGDFqXmSVof8F4cckdybnRb4NwO38RV7/aQGz5P8pTxTaFHeBJ4gP3PZyO6bGfkJKfYGbDGQ8IdkyRIeis5nwlCbC5pamfHCR4v84S3bKxi9aGr5R0OZwQGi4xtseENcDjmJMtKKleMPYKC0j5rud0VgCMABhTEWhnF6pJtLtnhkh3OBzi7U36ww7nZntUTjDPqMqc/iYdGUY9M7DlO8oQP17kH9B2+3iYn3GT7PH/aYK0Jy45+Dl0vau0yuFQFDjFaIdR1WXJqWKMHLsR/nnV7vLLg1j47sbOD0QHiyIdM9lOfBmmv0MTPzjPB9E+YoY9RGYemwKDGJJ28UoWUCOjEUk0zYWYQRE0xl0fAjlB1hERejhLMJlihEf8YD6mFgPEqCWSfCVMeQxwdzMcgVUMe9HTkxilC0yFLQ3T1o4XGKhcLUn3PFLMVGVSNRiPRiTGb2CyhVaI1px9Fo/QrAxqopX9YzIa7fWKfJ5KTZzK4UPswahtGrU7U8sSu1YUew7UzqJ1BbQxqZ5++62BR5+frOlxoatfJIHBPo1YGBnU50ZVig2MI25HRMBvWgkRwgYwNMlTwqTYvo8zr9WWGQKcbdXC4wUnjM8jgerDrdKIHuwe1wNTt8yuOZVDHlA46jvTg5/404DHTzqBODnW70en89tYuD5guxwJolB40dQ/lVHKtLGpzoXYXTK521wM+aupP/vfYiVuARR0PdFOOpYmzZVCnC3UMoztGlHmlgfDZRCIFZjO+Ta1iNpndU2A2jpoAs4kwG6gww1vCOtCkTPm/Y/ZUmA3n8Xp41jA4LpDOSBqbFPJgzMaclgLakoThkeixszUpx8u2HSvakla8Kf3mxid2mzJubsoofiRHC92QVvQs3Ma0ok2fr9t4tPAB7ljhpmOFT6VWm48V7kkvSjtVNuCimI0FSumGiv6MBo8cQVayL93empa/MaOYNPj6tKL1xwo3HCvcdPTpuI1HIbcvpyvYcCx/arfxWMHGtKLP0d3cmFZM3Ka04k1pJZvSSzZl3t6SUbomJbe5xw2G2DAdV+mBhFo6B1YfKNqccWtTRummjNKN6aUb00u+wK6YEoEvm6dwY/oD3ePQ1a0ZZTvSb288euvU9UZYkGERUpXwT4nZkTA2tk2hAdMBONWW8Q0SHcrAmME75LC4J9q38K0wEggb5rrEan5PxGdruJUgC6eKXtMdec1D2evYIkLLIRYlq3LjNCQmpK3lgzcmYAdSf3RN09PMqUeNUpAsgomwaHhiPvsxMZt8AljBVoX3AprRFWjupA/UQiQk80gJw2uaDhydxjrYT53MjQcFXiSa5Cd9TvbuFOEiNiojSGgsEMVq6ifN/PFiqbLYYICX6VVF0olP7ymKKBgUCIP7wCdVHUjrNoUHcsPzJxwSk5OB4jMFxAphlpHJTTdj1PNsolJBnfeyjAQZq0uLfwoSikaQwOOx/WTNAl+nG0WqhJSM/OM82BbSRT0tvygjXkChsBIKg/3Qp5VtXD4yGg/i0y3c1HFRT/hF2CiDjFAkioIhmTTXZE8yAETciYKs8DJIFmqiNbKsCEiOipI4jg0qQybE4gN+hsIowmNpNV0gaFN+Si4QUkLhR8zt4ZoOJr6EgmE5wj+bzsXVCEWU8aAYrxDsaRQHpjfA8SIKhOAg9IGDh2ySETKiYrYK1bArDmBCdrVhixvvqGHcFaJSOCzohaA0plxVq5IQRfqdBJKUqoIHPB4o2GnAAZgSgxiML8n4i+TJdJdqgJT8DnynhmHUQ0tNDolFPXvMjoQjAM+6P1rbuEWN9nVxgfQtGks8j4HZShRjNo+/neA2wXg8LmjvJXkigaAiiFNNypgmvAdkpW7x0DEFF4ql8HhgqsyfmLREAsHY4E36urgqPUasIEYDwYfN5JG+hVQGIX4iiijJiiCD+iuYezAY8EAhYyMBs3EgtskDS2w6F4gHSYoU4UHxqf5i2OP5E4aoRqJCYwEgXQmxT+enIvOiEI4K4ShQxKnWrFMsZ8nOoxxnSgGGNHFSJBCQolHM1U6dyWPFKkiM8HwoMhFF113VU+3ZQ/dhlkgj2UC1MWZLkiyCimmwWR7bUYUq8WFB4pPsJT+d9of8I8FoNCw8k/7FwzUaigjRZ5M/bgQ+HA0HQjB/Hmr8aIq7YyOEDhW9B0t44frLohQJhTGJmGqEwMobV4As1skvWJbhArEA2r9jNu6wqc6zKYGDZoPmplgbd82MJtM86vDV+OxI6AuB2VgjdRTo/CNO10ggBLfF6FsaLY5RGa19Ymlo4ik8hE0Q5dB4cIIXaSk0Bxqi9yTH0hDNAxOSimVpgROU+FhRiiBFguGHm+3xnFpCcckfRSiIgqLBsK6p1WkvE16KMNkEsynFmRizwQw7viaSCNtimEf6/k2oGPn5MCie8KL2RcGxgPKsMBvJgsiHo0IEr0Q1qvfonTsVIQ4HAiJg9lQE99FLjOUmPAxmS1jMUMQiSfq+gDaXZQWWXIoAgK0aH9L1RTQiiELC0Ums9CepOXk3HIpGw4QTeHC2MatI2j1jYMAmc3iBAhq+ooKKXnQ7V/M8ef0j4Ugo+NCYrWoreuCWFJjDIMtiSZTCofCE/CutvII5friYCf0Ma3FiI4qs22F5ICmwKpuUz+YTmGnKOpMcyMyAIUx0Jmp7cGr+WiDWjaqCHa3bk/HZlFml8yc5RDdYKY8aKz4WpPqeHLNjmeuLxn5yYS4cCsM5ge6PdicQAvpHX9cHJscmhSSeZ+sXjCQrNUPcanCggacW7UbamLQCRORYKyiCL/9N8Zmxr6BZ0U+gIfrMsZ8cDciSDPVPin3UkNjWS8LKSUZTYTZthAkrkBxLQ6hHlKOhCDQVDUnOaoqo5MQ0RHsL+FQaqHmA9pHNcy0kPg1en5MccALcPhPoLEQyEiK8qkZXW9lQXjw+TzxsNCSORdGQpJbHaeAuIuwM0npq42qqEDp+dINZ3RiIvy0iizIf4YUoxgyas37U0UBaAeqhswNCFLhJM5ELBUICD8Yu1T995jQrEqdFTUigda2qzUH8Oh+JgtwvzUrz6NKrWEgBL5YYdzEcWgJC6JlvrbYIEQ1ZsUmqa9K4QPqGVgEaECuORlGPgqIRPgzqmR/ApybMUJon/UzqoVHEEwnjL0BYLy81Hakd8JHzI6iq1vhxr5Nv0KIm7Bce6h+OfeyEWdEBCZ8J6wUF8E1dONBho4ZgHoYS+QdjNs1czRuyifvD9SfaM2OzXksjCtpdL1xz2HXhRVlSIuEoqPOKJ+bkPFvNRFv3aOY1sdktLdtYBZ7oPJtmh4/NoQN0IXFdRYYULZaOMBqieZ4tZsugveZXj9nax8L/2vB92KZDiFzYj+VBc6CtmtwLySE0seaJw+xY7pqPljJFVjQKVr0q+xgbBhrmqZhNM9QqACm1NLG3aCyN0r+oDyR+SXkczE7OJ7kU0lkKCoyNx6pHXqSVpJ4Jw3WBavtgahLLDb/OR3miRpdStMmoJ7xIEZoWrYUkvwWkQVYC4xNhtv57tT6PVYz2LInCZUH+pP66WEmU+agQh6m6VyBD+kcrTD0kH60mtP4JnlDwKWG2NkRjX4GLjj48Zms5xBpKN6Nj7aNf1iDER3lYM+n/tE+OEQF9LG0fGkhDkj2A2VGVj6TZJifTzVDSvPQTElqbDkKSQJFROMyHeDGKEI9AhgMcPc7HqKNWc8LSSZwWlZA5KeKRMRt/3YRbrfSj9Juyj4DZWj0T+wWHk0VArAhtFgi8GLvrpaAR34ih00CUnUHihD/C/dN5pPVUrFO0bGPvPT3MBhod+zb6tVol4qpLA2MVUX3PFLPJfbhQMAwmvHR/pPXj6k8FiOLnW+yl5E/QQh7MZ8dy+U3CbO2rQ4EQzNUJRwgdoMmxyVE0RMsZCKasRAifTQO1fkmeXbE6JGdFK5AQpaBxPWaTUmhiWpYOnhPLxWmmwuwIL4lw9kEpGiWjsay0gmgUrN/1OWtMdhwtmxKzCaLHpvAUU4AUNBFmy5Is8M8As7HyClLDZ4rZiqxEw9Fo5KH4bNJH+hZWBx3ufega/TJUG5BfJsxOxhKM2UFeDMsogsCFFRTFyE12y2MsafKkoERXi6IjXD+wv+yYLeowWxKlqrvVr7z8CoHtuMlFxsOvDLOJ/Wz9hrPWK/rO0AatSlwgKulvKsymTAklo7QUGpKUYVwACNbL/47ZcZ1CaT1ecql743Gt9lg/SNdM1C/PFLORgmBjTT+0tA+MfTWt1RTjZ7KoZ4/ZQlT4/9v7ll/rlqO+Py3MI4ZhHvLyMIzwAN+bABYgLIUkkzCIUOxJmESMgm2EFNkKhEC4TjA4COLLfXAf3+Ocs59rv9ZeUdWv6lfVj7XP+8v3EW9tndO7uru6Xl3V3au7l40pSSdZaFXR0kkIa2nCont3nq1VLPbkJoiBlCCXCNklfX4p7zzYHx81z/Ym2osmECMfELMLeyCDFFTm7ixr17LHqvqwcDYtyC2vL6Za9r6mBEHysD+8PfNsvNKwOFOUp+AVazoWGYbjen9cn84vNtsvVuvPl6ur3f4AGWZJNox3AL3yh91BXuN030/WC+02I3ENPtc82wk4HmKefT6df//3fv9n/+HPfv2Xv/7hjz+sFsaFujcTs2UbJKYRSeK6edKp9g4cXhJCpAS7MtXcdy9mUwjO1N/NeTZ1d8cEegiFk2o9d8yWPYbJEmsjzAsn3o0749+5rPO0vElr4+CLhd0GrIPwJxKQhqYvzLM1ZmtRSo94khgtyaZZmBDWQos685YNLMuVjAmYq71V97HrWndugmWIHLlE2MZsubboKIcRqw9REU4IE7kVvSLKhhH0NvoM7g3E7P2FmJ2J1DsxhMgMdAbflZiNl1gECxditpqKxOzdcXUcv1xvP1utP12uroa9vBQFX2f/Tv97cntgzM6oaFGZCO0Xel24vCuzO8W3TkFU7EqEAKGhkk1t0Y/gc+R67IjZ0zR959vfff+9f/Gjv/jRV3/+q//zB/+rWOLlaaN2PcN7a+iFvDxgbTwWfIilnWcjbFORlToJTxgsOU7r1VrSLOMPy6VdfCnBOZm2aAHRPtY+z5azd7pVshBQIqCDr811yHq1KfBkXjqIEqfMdVQhBGZNk5xVy3evXixsGFL1wFlWFJxqQ0L/4z9E3qCSTaFu3zUxLMzqTDDrNnnivW1RnGbDxF3sZ8602GFAGJohkUxkIjPQ4bYQnddOvdhhfxBfgJIV/uDKU17Lf+t/AlNCLVyMbb1aQ9eFbWgXEEj+sHoGBgtp7deBcnu/Xt1f1QhFM4PImWCWzj/icqhM1XnarLfHPCagpqhfjthyVkaONHNL/Pvdfr/b18W7hcXvqePOGLymDYz8J/8/7zxbn5fL4yGYVpZJmYbHi9BFFi7G7PM07YbjZndaH6YvN7tP19uPV5vr4SgGiy/5vEuCjabCzx6zdTtYGCQpZyIRE8Uy0K296EfOy0mu2jT7OY/n73z7O+/9wnvncfrwxx/+m3/9bz/4Hx/Iky98EHfyMybXEVbFTIlV09NUh5ge5cV94+ZwK0Sw6QwkIiaY20I8K+bZLFMxdsd5kiOs/o+n87Z5nm0LFNV4ORFQIZGfyM0ZXl7GHK6/yPfcgCDV4iFyVimx2b5xIsrFypJhcBlelfefsD9ZG8eYifgfnADmpvpm7c+zvekLwuyzQBE1yCfxKftiMOvdQOwWX0pjxhELVmS1LJynDcZkVRZiXi8G19xpxZhnV0I4T0fZZcqwoxyyTMsvszJTGci0dxwbMwFOhOSXkAtC1roxzGXTWkXfLOReidiq5oic5JVICmXlLNGvvJePiG9JUOltuRnt73eHu8bsGQxoyiZhTbvYRVyDW/mwBEXUQpjFxKSvVKjGHMxFAnhIfNUpKLEK7q0fdscnSEPRAAAgAElEQVRhf1rvz1+u95+td58utzdDtafOiz7o/+lw6sj/XqjIb1VLDek8iosoHAvLM4GK/FlaoNXFcC13ebVqXI8tZXTo+bv/+Xe/9gvvAd9f/eVf/ca/+o2//NFf4if+RuC/3ClSnU6IIalerIjZXBvHXAGrarhiDMss8EcG0avHkObIjlmEMHE6npY3S1lpTxVPh1PxPZ6QK97Bs3L5TlrudJWjNafDab1aHw9HtihAx6NlbM4dSNJLUlmLuYBgegGg0o/L4x3VSe5fk68OqYhEEuQ0tULkTOQq69Um0y/vFU2yyq2EGImczVVVjuNJDxueDqflYpmbQ5qt6M4aWUQlJFpvWyEknfhcLVZoKyo6MXdB3mEqIR9PsvAly8uOkxbCRGQd3a7coqos+6nGM7qI1qs1i1XCIRyPiuIniFHtAyhvzTucRA5OJxO7YSdT7cyUl8nAqulLovPq41HMEvvGrbmkIBLAVqhiIrdGFWGmPzuB4/6IYUd4AzmLblYayB3SyapMOhF5Pp3Xq7X4dF08B4XULBMCL7/qrHRaLPNImx+jjJIUK2373R6PV8oqeGEyurBhYBMsCW+On86+FM4RYrfd7WGfYVfux3r2EEy5xAhpE7KHbtjJlh01V3Q0Z9AZpwR6CTLFBKvL5V967ma93i+H8bPF8PHN5pPrzdX6cDic9WIwc7NSpedqFJV6D+eFECZ22x3PZwMolHh5S7hJEC5v2vAyFAshWBLnT5n2eOFOwpEHC4RorwQ9iBq5ulB7Oov9bAc8GTmP52//7rff85h9Opx+8MEPfukXf/mv/+qvzVRUSv4y6JO+VdP+wkW4FYnQ+F0ulhlO+eR+WsTs/e64H+S7G/Y4czZsh+1mu91sh81QQQC3XD2gNmzlKEIF8VpibS9fvCRCFNusN+XXqm83W8KJs5sAYYfd4bA7LG6Wm9Vm2A67QQ7MgR7g2W4EuBOgcVQyZeVbFnC+Ak0L/SqHkM/G5bOlfIjKs+4mut12d/X6Sukn8UEqCBiilTshZy19EnlYXC+oDia2LQsOocB72m/53b16+Wq7FlNhRSaC8iY3slw1qTkKczdshpvrm9VyRZy0ECZSltkPITmxWW/wU41BqN0o2Vevr1jM7afmhVVYUgxJ9QKI2ds6LJkllzfL9XJNybfGVma5iqn0RnTEvN1sd9vd65evM4TYCOxBCj2ipHcZ7fipy6xX6/VqrfqNWheQpyyUr4W5ja4hO7oX14utLo9LV0Vv3QxiDOmLrGG726w2+LIVJoR+5EILa9Hvbrtb3Cyyiq38euuFzSrEHhrkomKXv+S6Cbn2h2EL+xT5qD2g/LBdb+ULF5oYEWzIUtsDj4S0id2w36w3y8USkYMyIde3JsgUE6yy3mzXm+3qZnlzvX51M3z4cvnXLxb/58ubF683m/V+txmEfPWrl/Uijtd5NCVClfp3ebO8vro+7GW1w/VYKBeisyzHA5dSyYetiEmLXkw7N9c3ZKpNKH64FJpiWLKjEmVl/aqKJXCslqvrqxsodzyNsjb+NZtnYw78J3/8J7/y9V/5wz/4b5u1hCHYCb1TTghT0q/xpZcbXr54lTsFTU5LWrEiZp8O59NxOh0nvcdJBlZYDdMXbsvFMD4MkWlE/lqWlDc4IUwcD8fF9YKDRExEFL/UwjCEsxO89PqoU+083umklarD7iAH3jfD8XCUMj4SF7Q6OTgdT7h3RZkK4lmSiYoFnaxb+cXNgsNblI/CqVFD5cNhVKnKR0UndTyNK7lwXLYWzxb2Vu6oF7QiYjyOx/1xcbNs2w1IIA/5RC6o6jFFgpc3S7wylrWYYBlCUsL1dRE51vbxyBBmkIeubj82bG8tipaDLPspN3v40sJpXNyIfeJ7YR4gvHgxxxMzjJO8pl4EWJU5HcdhO8g8zPWbTTEDkaZ8BI9WIaSbGE/jchH6hdV5Pzoe9bWAbIUYCMlNSJc5HFFG4K4XuFqZ09u9nkJYi4oQJhx5FK6y0MpqucKr+VA+I2/Lt5BUyxpyiEySZFOxRkcHutU1LGBSpXYSzkRn2DYjN+WqUtR+bJo7bHUdSOC49zREl50ACWhZIKRNYJ1Jl+LMwLQMXPSlv1Vzx4MpF0uDyBVrPY3b1Wa92i02p09vho9uho9er6+X++P+PB4xv+1IjHRWrXT5RRjTPUZ4f0YhH0dVWztNERoh/V4+OauDqLgD96gUVLlJByR3MY0awrNXFO6O427Yy1Kcpqfz9N1vf7eK2dM0/fDP/vwbv/6NH/7ZD09Sfif9Tn1FEK+HL/zV2iFSCJAhBj+DAHcC42ksYra83b161MFHI1z3JyQ/HfGl9nhYRYgn4nl21QTW+isgW2G7jqf+7yVPR3lYIo8Q0kd6GvbpZTApz0DWYm4DeXf3jWPkYS9UB4PkzgVoz2myOigKCqotTDyTPA+2RzisyESL4UIWCyfkk9w5s7U9XIATAxOseIFOZJWY8Wu11D2Svax7wICflLCm7Ds9xC4VwEk5izHRskAIa+XENNnzbAJVlRiqVv0i+mlFp9bFOMbKJHs4HU6POuvV0p9b17N8x0Pal96Wzw+7M5sUGhKsmPDjfPals16psKCZ34MmkqkKa7vPvwdNz0rhASfZvzVB4ciCuQxfTL+E+x6PnUxYj6th+nx1/HS5//RmWGzGkwYFHNG2GhRvbprYCCTEE509aC0qCtbxcAu3Uc59114gjHmU43z5Z50mcrZLCIhUOKJGUVd7wfFwtLNqWuu73/nu+197XyzBzRK9+4M//eAbv/6NxfWiayQujJ4JcRssC/XofJtidhZfj1YyUiQgZX14MPf+bNF6Rk5lZyCRMreB3CNm537FVsgUm3Blo6k3cQ8amyZ3pOoCnW0WIcTzk5gNUUCerXx+ErNpaTTCUkr6sDDtcWvL5/5CJMkCJdntegq/5Xx2ScxbGLMP+0PssSL7tyYon/mYDRzDdr/Zjsth+mx5+mRx+HRxuNnK+74mfVNWzIYeppdpul/Mzq1ANQrBAlgRUJME3mTM/r3v/t77770vdjKer15djafxt//jb3/zP3zzW9/81j/+R//ky8+/lIFyog0DJl09kpWqIiS56+jvQSvHiI+I2dzPlm1dNtkKD7STSPTOelkHIyqWpsIyJhZjwicB2L70tsRss620RaXLF7hg1iPvLqW3ouh8gwzmvnanShYdmmZ5ipoQGlybRUii3+bZpESrax9Lg8qHIn/ieXYj/EnuLl2FQVI4lBirVJAsCmSVfcwk9BwxO1OCeXYJwRk/7GpJivLltJZOqIxnVBAjXWVPMM92VLWc1Wa2m0HuY+eHhWmHt8ZsrWK+EqJI2B4Ysxv9FvhTLjZIskFJkIVUzOA4NZNVwMLgN6tSq8tZtWpfdJaM9/dolHhAkyLkVDvTKS+yHKf1cFpszq830yeL8aOb0yeL0+thGkZ5r83uKHfp2qeiE614ZkQpQjxx35htZ4DLdo1+3AlDESkN2KYXpsVcElyiElIJAZFa8u7z7Pe+9t54Ov/3P/rjr/78Vz/+6JOf++c/92u/+mvf+y/f+/73vi/KT5vLbG8vHjfrg6q6abWWTszWJZ9c+HEx25UR//34lkAgMubhLA3gALaiTIVN91mmlYGWDkWfNzzp+7NJjLd713l2PlBPJBXLFVx/PmqeTYSUapaP3hMn9LcflqeoCXHGw2KYxcIJYT9mIwCwPDHcE/kTx+xed33g3aVJAiIo8FUZv5r906+NZ6kyZpf0vEVr4+j7lE+mU7O2m+1j18a7z8LQ0K33oFGYKJ8P/DgGKLd4dpBq3ePuUrUTw0MMNB6IqJKPnoWTmM1PVZ4mXcGJX4WMmCdn6hwuJ7OP03I4v14eXixPny+nj27OHy3OHy2mLzbT1TBdrY+vV/vh4DUq/BW1+JlHV07w/WI27t6p7mtLSwVOTQyM8LqOgHu7AqmsroWgsMLvGLO/8+3vfO0X3vvBn/7gp/7eT33rm9/6rX//W59+8rc//fd/+tIjNnULcdyAFHrr3Zit0+AYXszEbJe7nfTApTActniuCSL9xGiClyrrNgeX16jnX9FvncQCQ8LPduXuvYS/TicvoAfePWYDlWr9JE/vy4UIInSrLUTHXEIdUsdsH6DYHRFeDBtesLsh1GPWgM0pPabuMs/2Jmo5zMEpnypm02TVMWHLjM0etFdUEDF6FylV09IwG7MlbOvGgrRYRDxsNxB29fK0z7Pp4KjlR95dWurXBRjGfx7v9jy7VSWlkbRmsspZTxSzRS+6a0YjikpHx6Djk9xdShZAOX8q1/eI2U5S5WG4bS38RtLvQ+bZ2U6c2iJmJ33th9l3hPChLI3cLURdU9m/bH6ZMEut8zRsd88Us4/TtD5MLxb7v70+fnw9/s31+cObSb7Xp0+uD5+8Wn95vd3s/MZxlwN5kQQ/JJsQTxQxW4t1nICLAsd3ZWwBFWijME7szArVOz1vOGZ//3vf/5l/8DNf+adf+fyzL370F//7F//lL7188fL9997/nf/0Ozh7WcgnPK1skLSlL8oKiZnn2RqzZRcCnHA/ZpuHld2PtiNRzFTDJ7MAqf7Ky0d1Ezg3aQtxvutBBhGc6bsOdAEhXBseI7FdbFIlhmq1ATwAiA0CFp7DIIR+FZAajhpEQuKhyA2F96ZJIHEgy6+WK4vBiIU+n7YmwKYKjZsbEc7RCSETbJWv5AZ9yD1uRx3/Gp3t6grPktYbDrHPEH9JsLCAkekol1itlrH2a2XsEKFLSVkI4SfdQS9kwfRSLv7opkqRG6SHJpww3/ySpARRZAtxyjt6kfvGcWdOoxevlVVmoqMSc8LLeyuqzfMod5d6lqGy3pLYxK5XFkMCnZPC8dMQbvkm1fN+d5C1X6e/a2yGyrQm29GjfAJGu24qk+0ncKbQCs46605v6QDeNOknBAn4ULFnrUI9wiRwolJK4mNN2+lSoiJyJlJWqRfvpyi5WW/tbtSGzgoVvBCoyl2Ju3PtelG6e73XbDfs5Py3I2eiQm7M6UUFIgEisdVs6YPSqFkFu5icn5bpCocjlA9s3vd/SY/QG+V887Ch0igeO94zX/C9OMVKsrP9BDFCZOU3Qu9y24Q6KPMzahLypudJ1sBfrU4fv9p9+PrEmP3jq9PfvN598mp9tT7ujvrmSjKVOkW2Uqck2a0LHOfjRbwx27H4kp0AusB4kqMuOO9jTszi0Ql36KpXN+2gUdlavx2yfCztAmlVWcypwluqihODwHPcF3vQPv/si9/8d7/5wz/74Xk8b9abb/z6N/7gv/7hn//wz3/5l76u7zQ90g+YD5TN6qJf6D2ZUPSgCDEmZ1ElL5AAy4+L2SKL6oswf9IXhUpcQf/X8ypnzFOtG0CO7sGhp1I3Vrey3fyT5c8neZUpDtQnVPLiEAgurAoTPu9FLMwE8beQ1WIVfTjRX8Rs1bSPBEcbMlMBMqaxMUQluknubtxgiQJNkxImyE5YQzoD4NExQkXIR66XOeV944HTLEmpsuhiQqs6EqpQp8TAxGopByGkQ8KjKTaQKmOX5qu2GO1GgTQdNy2oAFU+cZ92lHfMoTL3jzS2S1neVxc3C+I0FRCPNyHegWkkfLAMX8n+GdLTYqPeySBrv15etOOoMtCb9lwv32vaFmxg3nJ3abkulTu8+B2immlXWICJMmbraA9nfezuz/zMpccCmWIi2qX0korJl9033qOzQoUqMEVm6YAjxTxnFg5X3gsn7/Xq7CsmBqMTQUXlIFlOKoRj8vHhrClL5bnb7ky/iFLwjS5qhGrYfIwt9NEmCFCnMcZwvzxPeB7POIXfEaY34dOq0kSdfngDEgCbkdc8n6f9aRpO0/Vm/PjV7m9eHz/UefaPr88fXp8+vtq/WB3XBykjA0h0ltQiiA+qPIsQJuK9XneL2ThthfmMhnkNYOLS5RSW2ICqOOnlZO8qpeqtgAvERcEqVC6IzHaVXZaKTtbJuq8WhEl8/NHHX/lnX/nVX/nVD/70A5yWhCo1QptHRcw2+l1Q2fwixDjlPg2WEQCssR+zhQELM8YtfmKIZGnYZfXX+3BRUgeuPOtFMbGvWnNazJA7HhiWEdNjkkhkEKSX4JB46Xq+PB54iDn1RigMf7MEK0gI1N0KWw/8kBtIbffi+dS8K8NbYzZpu2PiQswmAYmFQukmE+pXHRkHyAW/UNw0zcVsRC+2KMVhkZRSJU/vWkaDW+PbGrN1SlFZb54fwyRGeb/yLTGbU1gPG9pLXVwMeOwILiio4/ExO/SiQ89K/sfDEfeUCa9UmRPDwq1xMiuGKaAc1uWiu3vMDjy+YGjW5b1bWnQKkfWMMdu1htmVNa2tF7GhZNakBDtxCRgXuSSyVODPF7NP5+l4npbb8cXy9Nly/Hgxfnhz+vH18aOr45fLcX2YDmfZg/ZkMbtyJnDF4NqF6dfhpc6FTsFnN2H8Nrqde69XcnEc43JAbBCYKEratMQN20dCl2J28T43ZST3gkKtGE90VTzKNljpy7kMQ5ib+kzMpuBg9/xJA5pLsJ80Bc6+b5zuXgwarqHFTzw5y8ujluEBe6Ncxmt7uHIVXwtioxZ1tN0MpFgL5JC+F9aFC7chWhjlS5atu6roCcxm2jh0tK4XAuS1ca6/MRFTJdOrs59/ZhYo5FO5Nh50taJuIVHa4roQ3Hxw4QAkjOGCdzy78NWEnGM2fKsLhz2H6siJ+6yN+3KTx/vAk6wo6NGB/6KzNk7JB0KK1xONIMBOA97v9revjbOWWVEInKr0duNNHmLJ+oKByqRtuQtbOihkzHLY9WjJ0Lu1q3ZeSu90PMn5Zqq+7B2UcCLPhVY2oQMR7R1EpVzHe728/CVUtHxKTBmElIxIxwObfNjaeLF8qo3ieWQ4ViegffbBvhBC88IFnQ6kDAmIhJxfl8sco0yyZAqq8m+A5ypYB7L1PEjMVb0exsV2vBmmL+TB9vDp1fDZ9e5qMw6n6aiORybZ+mVzTLCJFsKsWBtnB8mupjQGZUSbCxFoyufoREuWx6Ncbyx6cTotEYKKrC6d1sV0EZ4F2KcwLSzIUXtAeDZdF9m9H+xlbeZZXs3H5pgvlGD9TEFPHbNNOmwuJS7sG6fjZvGsSwLZS5lIbkhj9laeZ+cPx90ZzOoZyFrMbSD1HjS0jvIVqnkgTKG2Kq1++75x0nbHBCms9qCRNRbIKqDwM7CqUvGruRf3oLmPRneqehGQs90e8rd333imNjuLLDFNvxv7xj2ii4mWy+CPPesFgaBLcp5NKT3JnSo0IaJl4un2jctli9wbRfzy3q1DMd/qdi6U9/W2cNDeL9qhAFuQe/SeYd+4UzRthsN2dzrJ5Gr3+vXy9dVquT0M47TXWbiYOUydQs5eiFQSSIgnij1obJXlK2+DViAWxyD/c8wukby5PWikR4mfG4OylCXoHMBynS2szewbfztjdldhFTBrl2y7ILoxW8ZNusRh1gYxEU/2tpQgcxtIHbOz7VaoaHBEggSrVHD9+TbG7EoF5KLiV+HdmG2jE0i1qtX+7BZzWT3lPWgtXw/eN+7kyX/qt2JNy7wbMTvH1OeO2aXo7rFv3JdqbFRR4ukAVTVPtW98PmbP7hsv/A8CD5ZeseQGa6TxtMapDD5rzJ6maRh2w7A/65rlarVdb/bH03TUC1WwMG5cZDrnvWXWCdK3x+y8/5ytNF3J5p2Ee8m3K2Z7YArVO52zw7JHxWzXBKRjE3MHRpOUGryV0mTzSGqMpMvwTd/fTIiMmORrCLOlElXaU4PC+a+Iw78es+PcoZCggzIbFIMkbzTvDiMSLe9UOWa2KAfvSKTmWlZ+NI5adHw9OYQWmasJff93rI3r8rIRQxqqRIguiZFlwBc4xX3mwamXx5hGh4qmCCpdJgEoBqagZQ6DmOVcrHF3qR8NABnY6xgs02ZgwfyZTMiE7PInzZV8yCYTLEk9ZgjTKB+qdPpXy3WNSu2TQFsmLYFEi0Qgzw5IuTvs9O7SxFcYv9NQ/KfYCfW61or/FF5w1ove37OwT1hUSQnnLuDFjIuquv9Ec3jTjJTER+tSOJQDIUxYFmrJ87m0Zu7IZB1l7eeznSpiYKJsxecftCVfvzEigcebkH3ve13bd/zABuRhdVoejxVM4yyvNi9vmsI8m95Aq4R+0aLWqpE7qtCLzrmFkmRXZDMndN94se+dYilaSXjMwLxR6RfYN87z2SmL+9LP43m/Px6x6WySx9jydWNg58qtk04CCXHxl/egJQ+PeWqQigqmSnVKIFINGNsq4zCVZqHR2X3jbvBBEiGJKeQqKu4b99ikJOGVAWRHEmoPpL+wFrhHOkmwgPKqoLC3pAKZFlYk3fF5NuiG78bzD0Ti6m+Lnc8vhZ9EJZ5uzu4bZ2xgH1CZ2s5bZz6ii+8OAFpQJWe9sAeNIlAabHMpHyF7yIGgIfT8l60QSEhsECgNzukUT+Qdzw6EZCshQkmQyJR4yB60LLpGUCYfdZH1vnF/SG/7nNM76ew0CF6BkPErqebLBGfZnS7uQSO/UYt9MscAA/pYwTlC9SfegwYWUuui32RaIT0HwmZYBomsVnQZFGu13N+DBgnDDLI/QBxij0CHUoHUrajQsLBWDa/vv2/coin6FFhjc4f9o/eg5f0lWbnK3X33oKnpmqnAXYLUGCZChlDxWfYA7neHrC9j0PVrWUoMNgOHKp1avOGXXd4MWxUX+oU21TXTWnK7QIIjJGJmTgATuTDTz7EHjcinUe7zx/Py83g+HGSRPH8lZvuXdDLRZhEiInL5bDdbpGFghavh9AzlNVZBzoZKtan7qPUsorsmiVYqwGfZg8buOU2n48nuGzeGUsx2DZLr3IMILFyK059zI8S4qBFSzVTUrvrPsykFBDzbZe5kUU9KljtubaMYxNHpIGu801kvMiCocE7UeYt2nRITgT6i7531wsk22Wcfz41cwYLNMbPR3H8IZLshUGUNDqI6+0FbZIcEHobGucRdznqRkkjcxoIR+bCzXti7lKwHAo/Du65ZcD27b9xPKeA0Dl90g7McdH+UZ0cvaqxPHLMpOvMF4831DQULrQVJHKO4nVclxTFhwAHjJHKX3rm7bzxtBa8MAwdCZLuTH+cDBMWsdW8F5v34fePWf7VFaYL6VaaeIGZjkl12PRgPDrnaPJhC855eSRt6Ue9k7+uzzb12hFdOxbD/IqzivVgSkxw5ExVyccg6H+XpGpaEf7DjmkobssDC5bNeBRLpj+KXMF+nv60pKUm9NWYHMVlubiTsvDhxZC7RmziPss6x28oet37MPsWaKOlkgtx1IHrSXe+82jNmQ5KML0Vsxjg1xWw6BJ4DUtHFcA2NPkvM1l4Ae9vvZs96dbiGCpLwa+00WVO1b9xVQynBzG6P2RY4sxE06aww+BRCmLhw1ksYdvqcMV3Dga/3XMqFiVil0Uuahq288Dxa1BOW6BtmoHCspL8ntUDuJBFyIWbDqqQk5q8YcHABLXtztq4JiBdXHLzRebaTQQJ4HlE0iLOhegiV8nTVyEgInBrEUXVjtqOyQ4MQJm4JwItTKd5ItHq5e8zWkuhjmUhyEVmqLIGrkxqPt8Rsw+AmRHEBgzj6rGWwoMTYVKyN2T5W0C5jCzMUwq16ydzBvB8YsxORiNmy9msqLpjCm4+F3zzpd+2bfPKYuM3CGEX6iI719S81cvd5NqrAUCM8c+FXiTexO3fjaaz3XSMrEWxVujGbhXHWqDyfjQh0r5jNywkgN+odCQozJy7HbJYU4aSxIAPenWL2sBPux/PxMI6cZ5+m02kaL8dsyqdVugyk5H6IfD4bEgOzYuqNq7EjD5Cz96Y3FrOVJHdZbiH73WG7Gcz4nd/MSJiiVzG1cpVXXY1VSUC6iGLfuPqHmGf7zLMfswv1QwfuRtshYZdQYmDiUsx25KmwPXeJWOsMsIwkku/A3aXxnEkdqF8g8CzzbFACN2d0Zk+EkADV+l/rTklbGXJ7zHZBhctzzKJ1b539H71Ufjbz7LYwcUaH184vJbOButs1oFohuOjGbBKDMqiFvnc8yMUIUKLYFR2Ns0kiUauaZzM3OkZpEsDJYkh0WtFwO57Gm+vOnSpRPYka9Jvl+9Kfs4ZxmwpNLdT+6NpscT7bY4M5rIQfw4gssQxpWYD53S9mU8iZSARRP+tiKna7svPH4NftDcIPKVXeSr0Hc41yNq0sg03cGSLy8ceElTfMDYUE0sALFZEllFef82RnvSq4EyxEslaaZxvxcDUgmI26ZNDR9H3JemcOVCkmHeveFAJ7Jebx1qhLPrOZq9ja9bZeJzDjx7qCtys40aHYhYHfLtWSa0lal6Xvd9f7zM/T6egnwISFImADeUWbCdWtInKTf9jv0jybcI/xOY5A9RjLCoMwGPQXnbVLl3EropAfP88G2YVIXW66TnbYrLcV+4UpptWdAkk2OdoMjY257R40t7fsIt7qmC1ahBWCK3LLxMWYzRHKM62Nm4J1uU/SydfA5sSq8icbNOHk5Q73oNFM2SFFPvgk5NlczKQeGrOFL6qAjoAOAk07C5djNsQFgn287Bc9em80yr03WhWn4RljtnqQ7j1oQYNLWlhwX2zyYRYNknph1l1iNgsTTxlIQEy4CReUGIZ2+NrxpYsPQbZhoB+E3bJdVaVoAZjBhev3mWI2CYt9494iLZmJvgRooj7yg5mRLUnMnfXqqrIbs4FOs3JPBEnTKGOCC/egsZh1Xr9nzUil5MtRTq5VzbNNFB7z5Cfk4NKzAm4kaNenMbfGbN0MC6o0bHNMT31l2kzUyQtZrpMk+9qGImaDWou45dIL+5eaovNVegm2/gZitrR1lj10bcwuSH3ymK1iZX+HxN76mJ19VmmLIsfk2tp59puJ2doT1KqeO2ZnN4oXveXD6Km3ZAf34JgdXc66o/JIn9jTSzdm86Ed0UhC8eCJgMHNO+h6VNbNUSkAACAASURBVPIyQYaNaeLZh2W5zzU3mkxCOnODih0gsnwscteY7fSLF+vFZiGsB489SrBk+CBMajE8zTKiQonKIS0Lwsu7G7O9Xz8oZuvyEuVG+6TQmPX/Q8wmsy5SdLToKfeYZ0fMZnWzarfDgHPk12Z5zJ7GqYjZJNXHQNEfnXj4saI3YXZeDmveipjtzyMok+yEyasknLuui7hwPpsz2JmYTYunDloI26bCMkEFmfrj8p0qGZt0PFtTKhRWlpGs5KCL93p564GH9GciM9CrhEwbSH0+GwWUWlNAolBHiJ0G4HClPDJZ5S7v9Ur4dD9X/p2sIeGUVjSE2PuzyRQTF1Sc0EtxLWn098JS/3x2JsYbhV6KmH2rXvheLyL0hHUPhGenE2OpjiPQFXjTcmbw1vPZTrz8z/aZ4Ww9Y0aBp5tnh4myFU1s1hszKpKkDtEWEgm8IGoVqZkuVexy7s+zOSoiMV6+TyfRZno0PWwHuZ+LH1pmRojcKotVHhOzSb/r19au0Tqb8BgT3Dl5F97r1eoFJlTDHVUN19br89kgac4Uu6g85skzxMyv2u1u2MkeQP1IAX4gbZavhF/JBz9ZmEim8qwX4ZU8CSf92WCcfgtgKOz0PMH5bCDMTTOt82x7nk0iNYHn8SLPJLNZF5EQlmjEwb4zMVs8OMYp8fcdidmqJwsMljZe8hMIUSeM2G3OIPipXOs9X0Onq1DH2XYnef2JxDx+3HALV5JCyANjNihPg+WHx+yEChvIT3iJGVkgp70OH/egsZgnnjVm0zKpMtuzxrNwpFYZRHnRQuIX6dvn2alKp93oJj4+y00/+F2cqVEYz7sas9EBq4fxtK65eXbukugvKhBs1o1nDS4lmG47FsQ8suiS7H1lzxWKnFRJ5I+bdA3XMnXMVpLsLEZ1L1v2BrkJZ/btjdkuZx1zl89oVG7wP88Ss73p6HpUh2rwwD1oWWWTvDLR5MlppMpZn8f7u0RZhTizXpDbxmyoOC/Fnae3Yp5NNZjzlcdp71jMZh+Gvu0QYdo3bkMw7zOMrGT5bYzZ8DX8q9YGZVlMoiFq4pZ5No1VlQufWPgmFmitWbur3jeezvB4+eeN2fl5YWoxfDqp1VwzZs4+WaXdNw4fxA7pJSNwommHRzchcjatiYfMsx05DdLmB2gC+L3M2z7P9kAY82P3whhm7fD+6QRk7JT+C2Y92oV+nX3qJW+qz3J7wDw72kVXYlvUbOpinZitXSkeP5UsGG0ZlfuftzdmUwLdEOD0P0vM9qbDJztEJHn3eXayQ5Ez/Cf1SJxZL8jtxmw98xYmPc7FbMfbuglGUzIWQ1GXcobQpi/tG3e3SJzoMCA0wmFTzMZiCm/PZ7+Z59m2b1yfR9oFT+qF/cXmPiVSkUphPZcpnKpb1FsF5CzEnc5n01lzDTA0FTtUKcaQz2P2oKEJW8KSVtxn1eFz7nl2PkwJexCuIQduoU/GQ43TeGD3m9UGqxdkEAkedYXh0Wgxzq0K0xcLnJFJ5dl9nh0KclGrXdk7Z0VxLh8k1B4cc6oie3Cq93p5zI7jiLm8WJF8KQ08DTGghXMeUb3/82zDUNsn9OsqllwKcNgOh92hFbIVcONkeSaox3pAU8aYhzzPVi4Cv0pMu57rBR5Trdfu+UpC1g6i97K5HrPxHHnmzXNF9WK3cg8auWPi7me9aCqiXB8lZFGTo5zo7kHDMaq2i5ER2g+8wYP2oNW7TMgyE6TTIBQyRkjav3bDLs5n644ckIQxByoSD/udwGlaHsDEPhMQdZ9q33jRtLQuXeCWPWjN82zXyylchMrE5JOYIsvd89ncrkuWZ+bZLvGI0I2Aou1k0ARmOpB+gpjtcqlaEescO+/PfgMxGx3DbM4PIaBXxwvt4RxVSkXMVjj8NVaJ73XWy4TQasqbK3zrw2J2dog6wmW3l9bdJKjryzGbWsMtNPZy3Lc+ZlNBNf327vo4qo4C8ImtT++8P7uM2VUV963xfnEOZKOkq0B0cd89aMlOMmvvbszGaAmvprbhPnhU/zAex+1mO2yHmlkdYaOzwLwVj1x4kmM2a40Kz2GGWQ+J2dh7yF7sSmGfyokqZtP5uKsxU+RquZ17diNh51WTvte+8WeJ2YwLXWGqtZ9wTazNhVSPIF7OqrkLYpB6ZMymHusuf8+Y3eilcJVspfWfbczGMB0mzRnILTGbRkzToYCi7cfHbFFGdbG2zGPEN/kwuSDAC8sQ1UepcXepd4A3ELMx7lY6wYKox/u8DsadVJyUgFsBX2AZbGKp6j4xW3uRW62qKeZDVA3V94jz2cU8zLp91ovLXwxuuQYjQoAftqapZRULUOcrtiCJXT9epWvNsg6BeXYSaZahtOjW4lpQMury6fYSuDOsZY3nmXm22GFWGUa+oD+bqDHoMSDzq+nb5tkitOgFOthHuw5XzEpMq/2HxuxO17N5ZyXMM84y7eP8Mai1u2VSp6P5McHOa4bKKPKYeXaSFf2A+DjOg72AtK53pmKenYXs6bAcXUWXLSmIGRotQimqerkeJHX5yL37WS8IxORDaaQljSwxpquYDWE6nYWJwmLdbmPJweVzl/PZsW/c+nKPzlbFEClpzqop5tnuN4q7YH3IArQy5vDrVqgp6Ndjtq4DudyeMGab6GzMd2meTUcHmk2zth5gdiJAfyITEnMIs2TYXd03rjZMFUvd2bXxtNQu1N9lr1P1PIbL90xc3jdeMeBqMH4SkrCGtAFr0stg9R0SiXRZfrFIJnj4oX/JwDa3gXT2jcPdI3a664cWMXgsqHViOKiXXudmeqfn2U55GIp3JLXp6JzWrs7kYDEP2YPmzWUuLKBCXxSRJrrPs8OUqWLlWnuFLgwSCZvr6kXPeuEhQrZycbLWtRK2ajMqMUsfkIBnHOWGZvaNh4LKjqcdSWY2YaLaiqnG9ULRde4u9Xm2BACS5KSyXYz2MFoKTlGM9Gvi0vPsfCww7xtPTFGq0grXP1RrUPpTPc9GwKPambjfvnGaUxaCr52GXrzYeTwP291uKN6xISy7wI0MlIeJ9u5Tk2E3L4lz5BDdPZ5no7Gq6awXMkXpTFPnebbSz3lq1mBhn0Tiz4Nlf37VhN45w33jsvLHT5aS0hzGSfcFQyILFXJFVb/XS6VXxexQB7pqY+d0fUG/k/fYfeOuDnIXXkK56+9B89atMFyu+p8IAUkaCElSuP3c9jwbvXJmnp3aeN6YDYZTc8YIBdFjjKaZM7H2JT49fzwohoJpVTSyXD7nEu667MRsuF04ONeWtGUGp8Skji0Gp99gwZE/NGanERxRMQGSlNOnidm+Qk7Z5EQ3ZkMUtY2qfGqgu8tCWWxA368svrj9zFkR5JDk76pRTw04sc3EbOuKVR/LsT9hwF4nVXHohbqee55tMbukszUVDMsMOVlD6yqVfszWKaP09vyhhZRgK1JJxg27jtlaDOHceER9Imcit6Kvcq/p0Yr3i9mZHabFPm1WRJgl5veNi4ozhd5r4CJbPDbAqqrI+7Pv/C5OIK2U6O126NHydcx2JGESpJWSr1jzmH3rHrSio9EbO1qOHWsrpf9shDO1Z73cfmxS2zjG4IvYQD9Lgl8n74ljNofd7l7uGrMrvZB4UgtIBdfc2bNeIEar3B6zMa5Ec/LXBRS+LLszV2qUZ6qdZ2dsLIYEW6ng8z/1PuFtJ2ZjXpUFRCIzkJiZ20D6MRvlgYpuN8ds4iFTMxK7+/uzxZo5GQL+jDyzALg6SqG//bAipUEI8TDBrBbPJGvX5oshB9ZCIlfpxmzaAynJVXg+uwTKL+exzgEZFZQsVK08PmajoXliNGafouMo5XiSYvPCTGpLJyEULFnQRDdm6xMiXVfIyFsMObcrN41JxflpVOkpN3hELunUKjbPLoHy/uZ7nc/OBDOtIpqLtZfen10RcxHPM8ZsjXl9+tt5dpZ/pQXqdyZmd+0tn88WDfLTGB5idqFlFu5pHJn1PBvQakks4ZmJ2b40QpU5eU8bs4M74J/bN+6tW/lEv0FIJ7Oc8Qpgr9NtoBgYCTZFdXvMlgfyh3TRATFmWgmkrRDCxHzMNhvNnoLIWR2uGWX4N+XivmKLGYQTjzMsOQR2pTnPQncQ1FdMboKtEAhiMr9K8O0xu0XVQkg/eh0afWTMblshhKK+Z8yuTTzhmUtuN9t6+A8Z0k2QKloIIURKLVRZt8bsjDMLmXrURDGcKqvsd3tbckxN49Fp14fWpkXK2TrxaKITszEswAiJhTkZyp0C8gELHA6mKvreiKPdB05hElUqaWSTyKYVPAKXYrnWvWJ29gaZGHLBLsbc+8+zhcLup6EcpQ77Q/EY8YKrcTl3muBwlsbjNPTn2WjFy8R/WgtBQEi9lMKfbG1c73tHSVQkHpYnhKiyoABkYbbezrOTfMRvVxXZSsIgScAz0Es+NmYTJ/nKkPvG7At6yeJlE5qQENN+wKCL9E4x+/h8MVsfOZu2ck9wNRT0U5RMpOx+zKaOu8hdCgmND+KyFXr2PWL25XZJf9nKT2K2S7r/v47ZWYxIU6G0H0KIci7r1pjNJoiBBKAV/Rkxm7meOOwOsiZZduZnj9nanE1ZKAQnqYqa6Im2hJO7zCQLzsfDfMzOlkzkTJRa8JXVx8VsIidTTFBBud1bY3YufAE5him5sLd7v5g9v4bPHQyijtTQbMx2Aor/FAKhZIqJhFxj9v6w15jNKg/wY0SekWi6M892Iu8Rsxu0FsVlK4NsWcgSs7LeSmS1kIy2ZUEVcb+18Ywwp9l0Bnp6NmanMP8WxGwM6iEm2lCXMYqSCWdVTGs8i0+vnttdtjk2l/DEACIDNf2TmM3uEdafpHSvtXGTc6p+a/Jdj9nyvPP/Scz2sB0SZg+quoDC52L2YX+YnWc/IGZj210i4B5r45zf53bJHr1HQj77jpBuYcqHOHOiDKXMebKYnTckJhZ+ErMp6iLhGvw7HrOd5yJm74bDsD0M2/1mvV0tV/guF8vlYsmfOYGsnNtCWH65WH7x2Rfr5TrKL1ZS/kbxL1arhbS4Xq3lu1zLzwxZOQRw/WuFV+vFzWK5WL56+SqQO/1CgKMyYtDuDF/KgjW9WioxIGm1/vyzzxW/AIlqJdjkS06ZtbhZgAXDQ6Z6LAzb4fWr18G+kk15eoJKUdFlFhJTKBxNKxer5frFly9qIpcJj7PgbYle+CVTNSTJ+eWLV5v1ZrvZivqcWZR3YlxKlIBUd2EmVC2dLp8NlU61rpdiMISbdkzpBVyz3JDc2DbrjXxXmy8+/8JwLswOhQzXr6geIiLxTGjrJpmb5UK/RIXEcrF6/er1zdWN0OnUEr9YiAPBCLJWixXhhATmJLHNavPiyxcqeRey57YqayGC3I1hcb1Ah7LeBNO6WV5fXV9fXaMk/7aoCGGChb0V7zJuctLxl+tXL18tbhbbTTif4DREzS5gxlkhJxehL1Xierl+/er1qxevLpWfl5hTLp4QfDmeMLCr11eLm+V6td6sxUpZhXIoKi5WcH0m5CR/wnPF9Wpz9frq+uqamJ2AQt2R6w6BxTK2ghJv+tXLV1evr1je6U8uAvJxzBkhaxFICBPXV9cvX7w0z+CirlWc4BWRwRrLMOHdpKVf9XWJBZIXicLYRL+blbiIm+sb6WKu2U75ZM+Rq0RGLZdeVQB29eUXX3b8IehxZouYLVOfu398dFPUujA+bZ9nA0MaSN698aokHgfud4fu/K8qfHmyKOzMkNTfg4apfFvl/tzVa+N5MgHBshUKv4V0VaAbPWYXXuaQE1XbCiFJuDHPTkCbT/fK51J3Sdfz7LSIYmtrD25F96MubhZ3IeOWMnN6P0+H/bE4QnMLovtk69LZeqXn49t61COzYOStqWvJmGfDIbix4a4J4pCEZ/WdANu9i170LB/PGhWtdH8QeZsLqgj3dcXD/rAbdgRb4jILdWn93cpNwbLHbX+ol/oy/qpiywIhbeLcnPXq0kYg2yWkh5OZsg6Be/oCpKkWDyEZIWsRSIgnTseTyf9u9mCuw6vf8t+O4D/F2njbknaEw/7QfUdIW/wShNJrC41TH78bMGrMx2yipg5mEhIvPcueVCVIZI1nxDw+uuCTv3h+Q12ydULaAJZGGDgxuRv2RM529ayRnADJEKT7hfXEoRSApNLf1WIlVUCSwvunorUt4y4vAJKpTEzSHC5psnaBxI8/mhulNIiqhfB4W25Fy8sepQysmvAsUk5tUlA4SAN4i2qz3oicXVP6DFUvMLETbh0VtEj6EGVz2AxCCT9OsB0nSzkRSzIQFSE6qpXYZp5ng4sCIYUPAoDKh24mPe6pcSL1fPah3hriuaQiEmyFLBDCWjmBe9CadkU4bkWULXZuhzGzVUVoxgbkKTAfDyehn6JzeqwXlEjYliTuwoKc5RtMPpmvi2laZm6urwKJSYfddpdL5vSsH8v6beVD1nxfvZloCMcvwNGHgJngVi+EtAl53rzd7Xd6vnxOJiBGm4bddpsjclMNGNQ7c2TMVCKnMLMLJQYm2loVZBqn4+Eo8s/241JqC3cg7lg6WdDLeJYxQUl//klphB/r9Zc4nkrTVcEeD8ftehuuYL6h3KikL+olF7ZtpElErR5nYrbWYelbEilCz6kQUujHbDgUunUnl42GjnVHJd2NKMAL42ai3XZHrUAQhiQ1oZTIw+9CMUn6xgKRpyyJ2YzBChf8ijzfrsdGce4200mmmCAL0yR90gr73lHKU91iGkZoAUUSQOLE8SEXlEZK9bxy2W9ix0TkDp19UvAQ6KJzeXYCAHEKflgnyDPJ6A1NjieINI3bgfVb4XoWSDukK92r+FDA4emQtI4mE9xuueIWClCLYHOeVksZk+FLveA+soCH5L0kROonR3HY1IWfuDud5Xzz/kjMBZ0lkd0shEZSUiXsoEijX7Fz1yY1JRBhJIwHVAFnfV7WWT4ejrJHCaTS/vOxQ82qCLts/7S6SeeRdpasxwWJd1Ms5Z+qCAHKoJSkYCd5f7P4dEI8Yd5gzo+hWBq7KHKfqCQTsvPZ7qBNDi581Ap+5/SSy6e0+Aedx4u1JmaLtDftIirmKkJA+S3qjuJ/Dru5mH1XVNR+hXway3dxJuGzSjcReGYYN0tWmeyHfZR3KQFtdvhSBaIoY3YQ4AMs6yPqIuSetUfHbA9APSXyThUXjviBhs4iZhd92BluRXABQptoy1y6b5yCYwfg+IuQrsJ8aH/LPFvZ7pLUAbpZZ9+EYsU8W+UjOm5kisLIkjRZIFNZts5C3KmScmt5tqhaCMyRIgW2NxKzbW2cw3yXJLhoRX0/iL5fXMZM/CRBGSpmUtSEsBazsmpUPsvFMkhCeecl4OhOuWkgdLiZRCV/DZB2PpuUZJPOwNS0tEsWMuWZAC/TXUeZi9m1xNCoohV9kf4Uq3DvsdHjxFhJEpmZIpHI9SohTBZQFmIPWobfP93pesrdfneQeWr1caouzbNRJZUM+STGq5gNNsNFcBjhHNW9m4Gk7DjWfbg27mR0xHhRzmyOiQrDhZhdlSQGJqoC3Z/73WHYDiF+l0O3cAfYNa2EBHvQ8qioQkKtzcVslLdcYE76faqYXVEVPxmzKaNbY/Z46gT/wuZ6xjRr60maGOPMzrPpICgg2iUhXYU5b7fHbDaRqKIKQ2q522DKlVh+YMzOLSZsMPdoWp/nyTyjV96AlEYrH0IyC9qc1NWI0vXp7HW09Y7GXXph62lSQoJ53zjUHZhJRmKNte6UcPqL58EttgvycVMRUaAiomyq0sZsEYV+g0iPzQHxkAmISc8lxmLPujYuloy18Z5eqIgghsXIPuSjkpHypD/FbDvrhSouxqJkQsK2JFFWKbKSEtv3es2VJDxaT3igAmuXDOrzWltbpuqTNmf9WMKAdgv5MFfn8XEnaJIPygep3npYVwNhFhNYh5B5pGOmECJxUc40AyaiokrvCWN2MJv0sh/2+b1eJkxOexrfCDqDyG4I0NEwSs7dN04MpCr8GO080Ylc1jKBT7K2/yTz7MCcGhXg42O2mQtEeVGyJGLOGm6N2W6aFl1m1gbNgXrhZm18uH1tnHWRIOVMkAUrmSypWhun4v01CSV59kaHtEzXRNPsJqp3caJ1rq4btd63LSjC4BxoBLeaUod+Hqc3E7NFLGm442vFpXA8FgbNt0FcPvrqAmW5rSu9y7KMBkJywiu6sWlYOo/T8mbpWWZa/GkJDXU10B+jAD7L76PXxqn0lgBxRveM2UCSxcJOV6+N+7J/sTbukUP6C4Y1Ifxa12ylpZz9bpINOFs7S1b5suZn4OHgI5WRXFKV4Lth132eDWxyDE8LW3UONJ0v4QIF8pgGuTpYwd2u0AWF2SHGEaJdli+qNN3hATEb+E3Cft1Y9m+SBWKUrwsx20lNEkiOMfsxK9nTy4NjtsXah8ZsJ17M0lXcWXMu+pfbj6096zadJ4nZ4R6dGFOQDj7sOHFYSIfOYm28mmcjJkkHxp34pZJC90k9BCY6bPV4PI06Tw0iRJQVTmeD4bCwhqpwahdvzbM9XKmX1vgrDN4cqRW1sQy6DX+ezojZSfHBmgXXVBh39Mc18RlzKsamz+N5s9qIz6Lj0Bce2Mtt9BU3bdMJYpTL81e8D4d/3f42q3vvQYP2+QpYvBcIL9sh5Uxgnl2pFZuNbViTGA853w0YMdv122IgJUFDo+JOlvri88x7vXIrtmuhJVhbQUl971B6hO+Fx9Nod0M6/dnYSDkT0a6XD8odZ5RRFa+WKwYe4EEV2kNYi2Ngc1Ze4SgP5ObIFH7YH7hHqSWGqAqqtGJkVV0+aQdjSsHvoZG12kRu/UIueqXtSJALNwYcPagoZDHIh9tBxO9BswWd6R0hUI17WIl5+yNdFlop/KerEjSTDLJASJtoY3YWAsoLHiVGWTA/wCx0W+vR+r6sFKUkGF+K2TAYl0OHPGetzvIqgn/YybQBHxkIisvK8qGh5gQRypgGZCTPrywYvDvPzqEk7J/eOJGXTZ0NQZvyV859HOBCqeKiSoUqkSrtYuDr/NK0qHrcMSwxm5JMSwikfJp9r5dX4+ssMw9tOppJhALIwuNxXC50HuPqb22OlGVBt8iJk1n6mlXpk1maIlCnh5jngESVq1QUzsVsqVIqrKvLbtyKdsfzOsVsYNAXp8urfPFlK0GYt0uJtTHbiMG+/aRZNJ349UF0cqwPiNnWtRwJYzY5NRUE5fomxIawXB6eSN9VapMhQ0L9aoJVWvlcypqP2bkVYugAsSapLFjTzh1rdd7rleyTxZi4rBfL1VaYlph9DPkInaoFU4FHoA79Lnyg6sbs8TgiZpsXc/2Szg7lrh1m5aalYpKSjFnXmzvG7IwnI0ea2hfr9ReYImZ0YzZZAD24mS7ei6ViZCsSZkohM2vYDnLWyyOKCfMkndeacDkbnY18SAlxRqJ5nk0221qIhZXTsJjtzgTDu0zYLTE7K8sp7zZNoCRSrd22F7MxG1GEOVTb2FeNFs4tKz1jpuvrxmypRVt1Ylglk1eUzAxqP5WYvTusddqjrTfe0pG3yqVddfVCFY8nmbZxzGodTQ0409mbZ/uwEbjU7t3mMicpzVaprYD4Ik8Rsx1o5fkT48TK9zk9IvryC1eOIKEbEJqYrdqScXQSaKtCUtuaBTk6+zxbCpuX90VgocpUSFTWihIMa7BZWsWCV8Q8u3ierScOPWqqClJhiq5osUQOcZkt3jdml6jaVghhgs+zRdq+oKpOs+i6pKdlgajqhNqAxey72AM6qq9a006QcCvyhcH5tXFyEfajrfPCUXAqaH3hjnqvWJCYPezl6n6nv0CegCWRIkn7OlNOv0kVLer7y3vzbH2vl3YBs9sw8tQpQC000sRssXPZ96vzbFeuG7/65ZBPGoiw7wjyzIVXMelZf5dnN3Z3ptt5JcP8s0Belo/BsdswXuGKtdksPUvTlUEgaroRs3VGmFVQ+BPypfd1H/dHY6qwf/E/hFMUpKQDKTmCAO0etHIdQpCA/mTtwFx1PZQEXzbPcyIhWFkH6uwbd0UnJZJyJmoWXMWgnPg36y3n2e4V/SXxXoXExyKls2zNOb+wOgbgp4nZsJlEDPopYrasE6jQwFG4MqlVhAC6CJSJklgHLUMSsEnM5r502pX3erY4E7N9+ULfFW/RQkQz800KszKESEKZGU8+z/aOocwXRwiksO95EfVgxAqg+0SSLgl+VI52fpfcClCXX476EBSYI9wqYakwaJ7j8TxOq+XaHm+0xDR4wF1BbanUKkvnGfoODPYNvZAVQ7PKINQCVHS5XeDPEKZV8XYnDIFIuE6zyqK5qvDFn+vVWlSW5FzwmOsqqeJrkjFkArppfT960norT5qKW53gqT5zWd3z2VnRJf0IDJURSnMqzy79nbtLyUJFpPcCwU8WSDlrgSRvUeSfHLfRgCBKsWkVGLlpJ/EFOKandRk5f+xr44mS1lTaHiTMJS7m9B7PsxNJXUnSdVh/LMvXlCN3kjFH56xXGmRYW0otlrjEnr26caErtKaXnKV70OTZFjmFkdOPZVVC3dQjtU8InQBZ43u9CEHC6a9NhToqy9sqAhZdyjLtWUTjHVSRL9bK1IIFz2qtAnfHFnvQtDD9fKVKrnYEDam86cVdDe1W9qWX/OKnmUTKCiNJQCkMf+iLJSZVVcdhd+jEVGe5bnecZH0F/TEJKsfyqgqu36aZWYLCdzovxmxVAwZx1r1T2wUECssOjhBnKcXsFCwrhDCLpJvCEKvCdEOgczxrzGbDkhDFYC2LBpeJzEDWa1txiMQ8djwHmhxaVM54IaiqVvopClvrfekZVe6QqXDgzIXJQpsQQ9Q7bdos0klULaSt1YPEPWgwr4rgXEWzCt+dc2fS9T1oFX6qBj0ZuWSKOOe4uzVmE4OaUPSLDGfTvXY1ZmsGc8lChYR4ukyxFvA4pxazMypl1sa+GU4MXLUbegAABCBJREFUZSeCXYVeHDOqdmN2xxQz8hID8AR+ykH5jZidSZ1Ls5W2AFUM7mCNErOPdg9XrkI8pajPpzPWtMWx5k+O2Rn+5DG7RI53lcq+8eqTXQSzcgfM9GNircutLV96/vtx7wjJkm9Uv9+V+8bRj/KYhvRrlq1nlEDE+IjZqac8wX3j6C8q0sKw1TbqmA3CyHKWs9Lfjdk24cZYMLOmVYZNOguXWMvKuj1mi+DyoCObONNsu4X46OAtitlzUgYXZKFJvBsx2wUegzjvG0I/PyyGcSUclgPbYWlg8zIGIcL7v4uz77sTwir5dsVs+pqKSlhX1YG1+3VitvuIVpgCgQUSFSG0TOjCi/VjNpfyMp0ZQwMPvThmFLklZhMPkTNBFrRM4M9wuQfN940T1VzCRVFNzkyMWHhgDIaU3raYrauAouJSCKH3hvf+O0K6MRtoS/UJvueO2epqItqV3NUx24zf11Ob4ePf5ZiN+Xel4nGqYzYKuAHj111idpIpO2GVYNuEE+KJOmYDDhvCAikVXOmSNk3kTDhyscafzLMhDQqHibmYrQXEgdrzIQsSHMnawjXxdBMM4e9izKZpqTtrz2eLRMl1MjYZLKvQJLf6IJxkzCig54Plwaq2FZU4qK+qeFgKn04ISUIV/MRZr3y3K9vwAgQEU1WjWjJialnxrYzZfh8ZSAX9HE69zfNsjKUq+XtY7dgV18ZDi5rqmmKSRtiPI8fjtgKuWU8wz879pTSeSe92vbA2XrMsu3l0bTnzq+uF1vUoOu8Xb+E8GxsportVeiEL4LEbs5ODRam7xOzZebb5ej7yyXvxm5YiZsPZgdzzhN2M9vzDgbGAwEDugYeN2vKIN3Q+6dp4IkYfxssmT7mII0uHim8f/iUWckNIx77xthjodGL4vI1PR1psNWRmbRx70GaXOlKLwqOab4UZFsN76FCMZWKvpgdv2/XGza4OZ5WcMHPUptdLfUeFjcMsqkG/UiyTShXgkXbOmk9v1hvZsusFMhlIRyvuyNp5GB6XSHmlQbC5L1vcLIizbYUQUa4fqKvX6Hwe032uvBv2uHPDcr1dU67zhYY4ciJThJBI4LGfst9C96CVeEAtypAF+akD5YpOFLMuyUEJEKrPPez0HRgUr+Mhkbk5I4y7Upwwtl7U0vsDbN+4lzSCVVCRxk8Pz4Kk/EJQBkSP0KGM3cNVIa94oT1Ua+NeS55HatfIxIM2Peul8tHCJkyela28DdrlfAv4/XFei3zSdYj2vu6+KSaBZBWfeXz0VLpElRLop5EgYUtuQAgis8TcObAWlW6J1PGLfeOuxFpZIecJN1ITszlVdr0sTyXPYnZqMepmaWcnmZF457WjN2TNec/7xqmg6JUZlUYr20OnzZk1Jr0QA4k8cw9aGEOaULlk/i+DZzyGlhMffgAAAABJRU5ErkJggg==;" vertex="1" parent="1">
                    <mxGeometry x="20" y="60" width="657" height="189" as="geometry"/>
                </mxCell>
            </root>
        </mxGraphModel>
    </diagram>
</mxfile>